<svg width="167" height="129" viewBox="0 0 167 129" fill="none" xmlns="http://www.w3.org/2000/svg">
<g filter="url(#filter0_b_825_575)">
<rect width="167" height="129" rx="12" fill="url(#paint0_linear_825_575)"/>
<rect x="1" y="1" width="165" height="127" rx="11" stroke="white" stroke-width="2"/>
<g clip-path="url(#clip0_825_575)">
<path d="M67 67C82.1878 67 94.5 54.6878 94.5 39.5C94.5 24.3122 82.1878 12 67 12C51.8122 12 39.5 24.3122 39.5 39.5C39.5 54.6878 51.8122 67 67 67Z" fill="#F0F0F0"/>
<path d="M76.5652 39.4997C76.5652 41.8911 72.2827 47.8693 67 47.8693C61.7173 47.8693 57.4348 41.8911 57.4348 39.4997C57.4348 34.2169 61.7173 29.9346 67 29.9346C72.2827 29.9346 76.5652 34.2169 76.5652 39.4997Z" fill="#D80027"/>
<path d="M76.5652 39.5C76.5652 44.7828 72.2827 49.0652 67 49.0652C61.7173 49.0652 57.4348 44.7828 57.4348 39.5" fill="#0052B4"/>
<path d="M77.1379 47.9551L79.6739 45.4191L81.3645 47.1098L78.8286 49.6457L77.1379 47.9551Z" fill="black"/>
<path d="M72.9101 52.1816L75.446 49.6457L77.1367 51.3363L74.6007 53.8723L72.9101 52.1816Z" fill="black"/>
<path d="M82.2102 53.0264L84.7462 50.4904L86.4369 52.1811L83.9009 54.717L82.2102 53.0264Z" fill="black"/>
<path d="M77.9825 57.2539L80.5184 54.718L82.2091 56.4086L79.6731 58.9446L77.9825 57.2539Z" fill="black"/>
<path d="M79.674 50.4912L82.2099 47.9553L83.9006 49.6459L81.3646 52.1819L79.674 50.4912Z" fill="black"/>
<path d="M75.4473 54.7178L77.9832 52.1818L79.6739 53.8725L77.1379 56.4084L75.4473 54.7178Z" fill="black"/>
<path d="M82.2214 31.0498L75.4588 24.2872L77.1495 22.5966L83.9121 29.3591L82.2214 31.0498Z" fill="black"/>
<path d="M75.4576 29.3594L72.9216 26.8234L74.6122 25.1328L77.1482 27.6688L75.4576 29.3594Z" fill="black"/>
<path d="M79.6842 33.5869L77.1482 31.051L78.8388 29.3604L81.3748 31.8963L79.6842 33.5869Z" fill="black"/>
<path d="M80.529 24.2871L77.993 21.7512L79.6837 20.0605L82.2197 22.5964L80.529 24.2871Z" fill="black"/>
<path d="M84.7579 28.5146L82.222 25.9787L83.9126 24.288L86.4486 26.824L84.7579 28.5146Z" fill="black"/>
<path d="M49.249 50.4863L56.0116 57.2489L54.3209 58.9396L47.5584 52.177L49.249 50.4863Z" fill="black"/>
<path d="M56.0112 52.1758L58.5472 54.7117L56.8566 56.4023L54.3206 53.8664L56.0112 52.1758Z" fill="black"/>
<path d="M51.7842 47.9502L54.3202 50.4862L52.6295 52.1768L50.0936 49.6409L51.7842 47.9502Z" fill="black"/>
<path d="M54.3205 45.4131L61.0831 52.1757L59.3924 53.8663L52.6299 47.1037L54.3205 45.4131Z" fill="black"/>
<path d="M56.0109 21.7461L49.2483 28.5087L47.5576 26.818L54.3202 20.0554L56.0109 21.7461Z" fill="black"/>
<path d="M58.5468 24.2812L51.7843 31.0438L50.0936 29.3532L56.8562 22.5906L58.5468 24.2812Z" fill="black"/>
<path d="M61.0852 26.8193L54.3226 33.5819L52.632 31.8913L59.3946 25.1287L61.0852 26.8193Z" fill="black"/>
</g>
<g clip-path="url(#clip1_825_575)">
<path d="M100 67C115.188 67 127.5 54.6878 127.5 39.5C127.5 24.3122 115.188 12 100 12C84.8122 12 72.5 24.3122 72.5 39.5C72.5 54.6878 84.8122 67 100 67Z" fill="#0052B4"/>
<path d="M100 22.7607L100.891 25.501H103.772L101.441 27.1945L102.331 29.9347L100 28.2411L97.669 29.9347L98.5595 27.1945L96.2285 25.501H99.1097L100 22.7607Z" fill="#FFDA44"/>
<path d="M88.1636 27.6637L90.731 28.9717L92.7683 26.9346L92.3174 29.7802L94.8847 31.0883L92.039 31.539L91.5882 34.3848L90.2801 31.8175L87.4345 32.2684L89.4718 30.2311L88.1636 27.6637Z" fill="#FFDA44"/>
<path d="M83.261 39.5001L86.0012 38.6097V35.7285L87.6946 38.0596L90.4349 37.1691L88.7412 39.5001L90.4349 41.831L87.6946 40.9407L86.0012 43.2717V40.3905L83.261 39.5001Z" fill="#FFDA44"/>
<path d="M88.1636 51.3362L89.4717 48.7688L87.4345 46.7316L90.2803 47.1825L91.5881 44.6152L92.039 47.4609L94.8846 47.9117L92.3176 49.2198L92.7683 52.0654L90.731 50.0281L88.1636 51.3362Z" fill="#FFDA44"/>
<path d="M100 56.2392L99.1096 53.4989H96.2285L98.5596 51.8054L97.669 49.0654L100 50.7588L102.331 49.0654L101.441 51.8054L103.772 53.4989H100.89L100 56.2392Z" fill="#FFDA44"/>
<path d="M111.837 51.3362L109.269 50.0282L107.232 52.0655L107.683 49.2197L105.116 47.9117L107.961 47.4609L108.412 44.6152L109.72 47.1825L112.566 46.7316L110.528 48.769L111.837 51.3362Z" fill="#FFDA44"/>
<path d="M116.739 39.5001L113.999 40.3905V43.2717L112.305 40.9406L109.565 41.831L111.259 39.5001L109.565 37.1691L112.305 38.0596L113.999 35.7285V38.6098L116.739 39.5001Z" fill="#FFDA44"/>
<path d="M111.837 27.6636L110.528 30.231L112.566 32.2683L109.72 31.8173L108.412 34.3846L107.961 31.5389L105.116 31.088L107.683 29.7801L107.232 26.9346L109.269 28.9717L111.837 27.6636Z" fill="#FFDA44"/>
</g>
<path d="M30.5262 89.002L34.5162 93.538C34.6189 93.6687 34.6469 93.7807 34.6002 93.874C34.5629 93.958 34.4649 94 34.3062 94H32.6822C32.4862 94 32.3322 93.9253 32.2202 93.776L28.8462 89.618V93.622C28.8462 93.874 28.7202 94 28.4682 94H27.1942C26.9516 94 26.8302 93.874 26.8302 93.622V84.298C26.8302 84.046 26.9516 83.92 27.1942 83.92H28.4682C28.7202 83.92 28.8462 84.046 28.8462 84.298V88.386L32.4162 84.144C32.5282 83.9947 32.6776 83.92 32.8642 83.92H34.3762C34.5349 83.92 34.6329 83.9667 34.6702 84.06C34.7169 84.144 34.6936 84.2513 34.6002 84.382L30.5262 89.002ZM39.1015 86.37C40.3521 86.37 41.3321 86.7387 42.0415 87.476C42.7601 88.204 43.1195 89.142 43.1195 90.29C43.1195 91.438 42.7601 92.376 42.0415 93.104C41.3321 93.832 40.3521 94.196 39.1015 94.196C37.8601 94.196 36.8801 93.832 36.1615 93.104C35.4521 92.376 35.0975 91.438 35.0975 90.29C35.0975 89.1327 35.4521 88.19 36.1615 87.462C36.8801 86.734 37.8601 86.37 39.1015 86.37ZM40.5435 88.652C40.1795 88.2133 39.6988 87.994 39.1015 87.994C38.5135 87.994 38.0328 88.2133 37.6595 88.652C37.2955 89.0813 37.1135 89.6273 37.1135 90.29C37.1135 90.9433 37.2955 91.4893 37.6595 91.928C38.0328 92.3667 38.5135 92.586 39.1015 92.586C39.6988 92.586 40.1795 92.3667 40.5435 91.928C40.9168 91.4893 41.1035 90.9433 41.1035 90.29C41.1035 89.6273 40.9168 89.0813 40.5435 88.652ZM45.0774 83.5H46.3234C46.5754 83.5 46.7014 83.6213 46.7014 83.864V91.466C46.7014 91.746 46.7154 91.9653 46.7434 92.124C46.7714 92.2733 46.8414 92.3947 46.9534 92.488C47.0747 92.5813 47.2427 92.628 47.4574 92.628C47.6534 92.628 47.882 92.5627 48.1434 92.432C48.386 92.3667 48.54 92.446 48.6054 92.67L48.8014 93.384C48.876 93.608 48.806 93.762 48.5914 93.846C48.078 94.0887 47.5274 94.21 46.9394 94.21C46.538 94.21 46.188 94.1493 45.8894 94.028C45.5907 93.9067 45.3574 93.7387 45.1894 93.524C45.0214 93.3 44.8954 93.0527 44.8114 92.782C44.7367 92.5113 44.6994 92.2033 44.6994 91.858V83.864C44.6994 83.6213 44.8254 83.5 45.0774 83.5ZM53.3586 86.37C55.2439 86.37 56.1866 87.3547 56.1866 89.324V92.096C56.1866 92.2173 56.2099 92.3293 56.2566 92.432C56.3033 92.5253 56.3733 92.6047 56.4666 92.67C56.5599 92.7353 56.6673 92.782 56.7886 92.81C57.0219 92.8847 57.1339 93.0153 57.1246 93.202V93.86C57.1153 94.0933 57.0079 94.224 56.8026 94.252C56.6906 94.2707 56.5646 94.28 56.4246 94.28C55.9299 94.2613 55.5099 94.1493 55.1646 93.944C54.8193 93.7293 54.5719 93.44 54.4226 93.076C54.1799 93.3747 53.8393 93.6407 53.4006 93.874C52.9619 94.1073 52.4626 94.224 51.9026 94.224C51.1653 94.224 50.5493 94.0187 50.0546 93.608C49.5693 93.188 49.3266 92.5953 49.3266 91.83C49.3266 91.4007 49.4199 91.0273 49.6066 90.71C49.8026 90.3833 50.0639 90.136 50.3906 89.968C50.7173 89.7907 51.0906 89.6507 51.5106 89.548C51.9306 89.436 52.3693 89.38 52.8266 89.38C53.2839 89.3707 53.7413 89.3753 54.1986 89.394C54.1986 89.1607 54.1846 88.9693 54.1566 88.82C54.1379 88.6707 54.0913 88.5167 54.0166 88.358C53.9419 88.1993 53.8206 88.0827 53.6526 88.008C53.4846 87.924 53.2653 87.882 52.9946 87.882C52.3319 87.882 51.5619 88.1153 50.6846 88.582C50.4606 88.694 50.2879 88.6473 50.1666 88.442L49.8446 87.896C49.7046 87.672 49.7979 87.476 50.1246 87.308C51.2913 86.6827 52.3693 86.37 53.3586 86.37ZM54.1846 91.494V90.542C52.2713 90.3833 51.3146 90.7613 51.3146 91.676C51.3146 91.844 51.3519 91.998 51.4266 92.138C51.5106 92.278 51.6459 92.3993 51.8326 92.502C52.0193 92.5953 52.2479 92.642 52.5186 92.642C52.9106 92.642 53.2839 92.5207 53.6386 92.278C54.0026 92.026 54.1846 91.7647 54.1846 91.494ZM61.4969 86.37C61.9355 86.37 62.3462 86.4633 62.7289 86.65C63.1209 86.8367 63.4382 87.0887 63.6809 87.406L63.7649 86.832C63.8582 86.664 64.0029 86.58 64.1989 86.58H65.3609C65.6129 86.58 65.7389 86.7013 65.7389 86.944V94.546C65.7202 96.982 64.5255 98.2 62.1549 98.2C60.9602 98.2 59.7842 97.9247 58.6269 97.374C58.4029 97.29 58.3282 97.1313 58.4029 96.898L58.6549 96.17C58.7389 95.9367 58.8975 95.862 59.1309 95.946C59.9989 96.3847 60.8389 96.604 61.6509 96.604C62.4255 96.604 62.9622 96.4313 63.2609 96.086C63.5595 95.7407 63.7135 95.2087 63.7229 94.49V93.244C63.1909 93.8787 62.4582 94.196 61.5249 94.196C60.5075 94.196 59.6582 93.8413 58.9769 93.132C58.2955 92.4227 57.9549 91.452 57.9549 90.22C57.9549 89.604 58.0529 89.0487 58.2489 88.554C58.4449 88.05 58.7062 87.644 59.0329 87.336C59.3595 87.028 59.7329 86.79 60.1529 86.622C60.5729 86.454 61.0209 86.37 61.4969 86.37ZM61.8469 87.994C61.3242 87.994 60.8855 88.204 60.5309 88.624C60.1762 89.0347 59.9989 89.5853 59.9989 90.276C59.9989 91.032 60.1715 91.606 60.5169 91.998C60.8715 92.39 61.3149 92.586 61.8469 92.586C62.2855 92.586 62.6915 92.4367 63.0649 92.138C63.4382 91.83 63.6575 91.438 63.7229 90.962V89.884C63.6575 89.296 63.4475 88.834 63.0929 88.498C62.7475 88.162 62.3322 87.994 61.8469 87.994ZM71.1581 86.37C72.2034 86.37 73.0434 86.6733 73.6781 87.28C74.3127 87.8773 74.6301 88.6987 74.6301 89.744C74.6301 90.0147 74.6067 90.2853 74.5601 90.556C74.5134 90.7613 74.3734 90.864 74.1401 90.864H69.2121C69.3241 91.3587 69.5574 91.7647 69.9121 92.082C70.2667 92.3993 70.7474 92.558 71.3541 92.558C72.0261 92.558 72.5861 92.376 73.0341 92.012C73.2581 91.9187 73.4261 91.9653 73.5381 92.152L73.9161 92.866C74.0467 93.0807 74.0187 93.2487 73.8321 93.37C73.1694 93.9207 72.2967 94.196 71.2141 94.196C70.4021 94.196 69.6974 94.0513 69.1001 93.762C68.5027 93.4633 68.0314 93.02 67.6861 92.432C67.3501 91.8347 67.1821 91.1207 67.1821 90.29C67.1727 89.7767 67.2474 89.2913 67.4061 88.834C67.5647 88.3767 67.7981 87.9613 68.1061 87.588C68.4234 87.2147 68.8434 86.9207 69.3661 86.706C69.8887 86.482 70.4861 86.37 71.1581 86.37ZM71.1441 87.938C70.6401 87.938 70.2201 88.0873 69.8841 88.386C69.5481 88.6847 69.3381 89.058 69.2541 89.506H72.8101C72.8007 89.03 72.6514 88.652 72.3621 88.372C72.0727 88.0827 71.6667 87.938 71.1441 87.938ZM80.3603 86.37C81.359 86.37 82.0917 86.6593 82.5583 87.238C83.0343 87.8073 83.2723 88.6707 83.2723 89.828V93.622C83.2723 93.874 83.151 94 82.9083 94H81.6483C81.3963 94 81.2703 93.874 81.2703 93.622V90.08C81.2703 88.68 80.827 87.98 79.9403 87.98C79.455 87.98 79.049 88.1387 78.7223 88.456C78.3957 88.764 78.1763 89.2167 78.0643 89.814V93.622C78.0643 93.874 77.943 94 77.7003 94H76.4403C76.1977 94 76.0763 93.874 76.0763 93.622V86.944C76.0763 86.7013 76.1977 86.58 76.4403 86.58H77.6023C77.817 86.58 77.9617 86.678 78.0363 86.874L78.0783 87.42C78.3677 87.0747 78.713 86.8133 79.1143 86.636C79.5157 86.4587 79.931 86.37 80.3603 86.37ZM89.4262 83.92H97.6722C97.9149 83.92 98.0362 84.046 98.0362 84.298V85.082C98.0362 85.334 97.9149 85.46 97.6722 85.46H94.5642V93.622C94.5642 93.874 94.4382 94 94.1862 94H92.9122C92.6695 94 92.5482 93.874 92.5482 93.622V85.46H89.4262C89.1835 85.46 89.0622 85.334 89.0622 85.082V84.298C89.0622 84.046 89.1835 83.92 89.4262 83.92ZM101.236 86.37C102.282 86.37 103.122 86.6733 103.756 87.28C104.391 87.8773 104.708 88.6987 104.708 89.744C104.708 90.0147 104.685 90.2853 104.638 90.556C104.592 90.7613 104.452 90.864 104.218 90.864H99.2902C99.4022 91.3587 99.6355 91.7647 99.9902 92.082C100.345 92.3993 100.826 92.558 101.432 92.558C102.104 92.558 102.664 92.376 103.112 92.012C103.336 91.9187 103.504 91.9653 103.616 92.152L103.994 92.866C104.125 93.0807 104.097 93.2487 103.91 93.37C103.248 93.9207 102.375 94.196 101.292 94.196C100.48 94.196 99.7755 94.0513 99.1782 93.762C98.5809 93.4633 98.1095 93.02 97.7642 92.432C97.4282 91.8347 97.2602 91.1207 97.2602 90.29C97.2509 89.7767 97.3255 89.2913 97.4842 88.834C97.6429 88.3767 97.8762 87.9613 98.1842 87.588C98.5015 87.2147 98.9215 86.9207 99.4442 86.706C99.9669 86.482 100.564 86.37 101.236 86.37ZM101.222 87.938C100.718 87.938 100.298 88.0873 99.9622 88.386C99.6262 88.6847 99.4162 89.058 99.3322 89.506H102.888C102.879 89.03 102.73 88.652 102.44 88.372C102.151 88.0827 101.745 87.938 101.222 87.938ZM110.396 86.37C110.704 86.37 110.989 86.412 111.25 86.496C111.474 86.552 111.563 86.7013 111.516 86.944L111.376 87.742C111.33 87.9753 111.204 88.0687 110.998 88.022C110.83 87.966 110.639 87.938 110.424 87.938C110.014 87.938 109.622 88.0547 109.248 88.288C108.884 88.512 108.595 88.8153 108.38 89.198C108.166 89.5713 108.058 89.968 108.058 90.388V93.622C108.058 93.874 107.932 94 107.68 94H106.434C106.182 94 106.056 93.874 106.056 93.622V86.944C106.056 86.7013 106.182 86.58 106.434 86.58H107.414C107.638 86.58 107.778 86.6827 107.834 86.888L107.918 87.854C108.198 87.3687 108.558 87 108.996 86.748C109.435 86.496 109.902 86.37 110.396 86.37ZM113.013 83.5H114.273C114.525 83.5 114.651 83.6213 114.651 83.864V87.364C114.819 87.1587 115.029 86.9813 115.281 86.832C115.533 86.6827 115.799 86.5707 116.079 86.496C116.359 86.412 116.634 86.37 116.905 86.37C117.894 86.37 118.72 86.7107 119.383 87.392C120.045 88.064 120.377 89.0067 120.377 90.22C120.377 90.8547 120.279 91.4287 120.083 91.942C119.896 92.4553 119.635 92.8753 119.299 93.202C118.972 93.5193 118.594 93.7667 118.165 93.944C117.745 94.112 117.292 94.196 116.807 94.196C116.321 94.196 115.864 94.098 115.435 93.902C115.005 93.706 114.66 93.4447 114.399 93.118L114.385 93.65C114.347 93.8833 114.212 94 113.979 94H113.013C112.77 94 112.649 93.874 112.649 93.622V83.864C112.649 83.6213 112.77 83.5 113.013 83.5ZM116.541 88.022C116.177 88.022 115.845 88.1153 115.547 88.302C115.248 88.4887 115.015 88.7313 114.847 89.03C114.688 89.3193 114.609 89.6273 114.609 89.954V90.878C114.609 91.1487 114.693 91.4147 114.861 91.676C115.029 91.9373 115.257 92.152 115.547 92.32C115.845 92.4787 116.158 92.558 116.485 92.558C117.017 92.558 117.455 92.3713 117.801 91.998C118.155 91.6153 118.333 91.0413 118.333 90.276C118.333 89.8187 118.253 89.4173 118.095 89.072C117.945 88.7267 117.735 88.4653 117.465 88.288C117.194 88.1107 116.886 88.022 116.541 88.022ZM125.573 86.37C127.459 86.37 128.401 87.3547 128.401 89.324V92.096C128.401 92.2173 128.425 92.3293 128.471 92.432C128.518 92.5253 128.588 92.6047 128.681 92.67C128.775 92.7353 128.882 92.782 129.003 92.81C129.237 92.8847 129.349 93.0153 129.339 93.202V93.86C129.33 94.0933 129.223 94.224 129.017 94.252C128.905 94.2707 128.779 94.28 128.639 94.28C128.145 94.2613 127.725 94.1493 127.379 93.944C127.034 93.7293 126.787 93.44 126.637 93.076C126.395 93.3747 126.054 93.6407 125.615 93.874C125.177 94.1073 124.677 94.224 124.117 94.224C123.38 94.224 122.764 94.0187 122.269 93.608C121.784 93.188 121.541 92.5953 121.541 91.83C121.541 91.4007 121.635 91.0273 121.821 90.71C122.017 90.3833 122.279 90.136 122.605 89.968C122.932 89.7907 123.305 89.6507 123.725 89.548C124.145 89.436 124.584 89.38 125.041 89.38C125.499 89.3707 125.956 89.3753 126.413 89.394C126.413 89.1607 126.399 88.9693 126.371 88.82C126.353 88.6707 126.306 88.5167 126.231 88.358C126.157 88.1993 126.035 88.0827 125.867 88.008C125.699 87.924 125.48 87.882 125.209 87.882C124.547 87.882 123.777 88.1153 122.899 88.582C122.675 88.694 122.503 88.6473 122.381 88.442L122.059 87.896C121.919 87.672 122.013 87.476 122.339 87.308C123.506 86.6827 124.584 86.37 125.573 86.37ZM126.399 91.494V90.542C124.486 90.3833 123.529 90.7613 123.529 91.676C123.529 91.844 123.567 91.998 123.641 92.138C123.725 92.278 123.861 92.3993 124.047 92.502C124.234 92.5953 124.463 92.642 124.733 92.642C125.125 92.642 125.499 92.5207 125.853 92.278C126.217 92.026 126.399 91.7647 126.399 91.494ZM130.786 83.766H132.102C132.344 83.766 132.466 83.892 132.466 84.144V84.984C132.466 85.236 132.344 85.362 132.102 85.362H130.786C130.534 85.362 130.408 85.236 130.408 84.984V84.144C130.408 83.892 130.534 83.766 130.786 83.766ZM130.814 86.58H132.074C132.316 86.58 132.438 86.7013 132.438 86.944V93.622C132.438 93.874 132.316 94 132.074 94H130.814C130.562 94 130.436 93.874 130.436 93.622V86.944C130.436 86.7013 130.562 86.58 130.814 86.58ZM134.559 83.5H135.819C136.071 83.5 136.197 83.6213 136.197 83.864V88.806L138.311 86.79C138.451 86.65 138.619 86.58 138.815 86.58H140.229C140.388 86.58 140.486 86.6267 140.523 86.72C140.57 86.804 140.537 86.9067 140.425 87.028L137.611 89.73L140.901 93.552C141.004 93.6733 141.032 93.7807 140.985 93.874C140.939 93.9673 140.836 94.014 140.677 94.014H139.109C138.904 94.014 138.741 93.93 138.619 93.762L136.183 90.906V93.622C136.183 93.874 136.062 94 135.819 94H134.559C134.317 94 134.195 93.874 134.195 93.622V83.864C134.195 83.6213 134.317 83.5 134.559 83.5ZM26.5189 100.5H27.2049C27.3635 100.5 27.4429 100.579 27.4429 100.738V110.762C27.4429 110.921 27.3635 111 27.2049 111H26.6589C26.5095 111 26.4255 110.925 26.4069 110.776V109.768C26.1175 110.207 25.7349 110.557 25.2589 110.818C24.7922 111.07 24.2975 111.196 23.7749 111.196C23.3269 111.196 22.9022 111.112 22.5009 110.944C22.0995 110.776 21.7402 110.533 21.4229 110.216C21.1149 109.899 20.8675 109.488 20.6809 108.984C20.4942 108.471 20.4009 107.892 20.4009 107.248C20.4009 106.623 20.4942 106.058 20.6809 105.554C20.8769 105.05 21.1335 104.644 21.4509 104.336C21.7775 104.019 22.1415 103.781 22.5429 103.622C22.9442 103.454 23.3595 103.37 23.7889 103.37C24.2742 103.37 24.7362 103.496 25.1749 103.748C25.6229 103.991 25.9915 104.327 26.2809 104.756V100.738C26.2809 100.579 26.3602 100.5 26.5189 100.5ZM23.9709 104.364C23.3175 104.364 22.7529 104.621 22.2769 105.134C21.8102 105.647 21.5769 106.361 21.5769 107.276C21.5769 108.237 21.8055 108.97 22.2629 109.474C22.7202 109.969 23.2755 110.216 23.9289 110.216C24.4609 110.216 24.9509 110.034 25.3989 109.67C25.8562 109.297 26.1549 108.821 26.2949 108.242V106.464C26.1455 105.829 25.8562 105.321 25.4269 104.938C24.9975 104.555 24.5122 104.364 23.9709 104.364ZM32.8612 103.37C34.5878 103.37 35.4512 104.392 35.4512 106.436V109.348C35.4512 109.609 35.5352 109.838 35.7032 110.034C35.8712 110.221 36.1045 110.328 36.4032 110.356C36.5525 110.393 36.6272 110.477 36.6272 110.608V111C36.6178 111.159 36.5525 111.243 36.4312 111.252C36.3565 111.261 36.2818 111.266 36.2072 111.266C35.6938 111.238 35.2878 111.084 34.9892 110.804C34.6905 110.524 34.4992 110.202 34.4152 109.838C34.3312 109.959 34.2145 110.09 34.0652 110.23C33.9158 110.37 33.7245 110.524 33.4912 110.692C33.2578 110.851 32.9732 110.981 32.6372 111.084C32.3012 111.187 31.9512 111.238 31.5872 111.238C30.8312 111.238 30.2292 111.023 29.7812 110.594C29.3332 110.155 29.1092 109.591 29.1092 108.9C29.1092 108.452 29.2118 108.06 29.4172 107.724C29.6318 107.388 29.9118 107.136 30.2572 106.968C30.6118 106.8 31.0132 106.669 31.4612 106.576C31.9185 106.473 32.3852 106.431 32.8612 106.45C33.3465 106.459 33.8272 106.483 34.3032 106.52C34.3032 106.249 34.2938 106.021 34.2752 105.834C34.2565 105.647 34.2145 105.451 34.1492 105.246C34.0838 105.031 33.9952 104.863 33.8832 104.742C33.7712 104.611 33.6125 104.504 33.4072 104.42C33.2112 104.327 32.9732 104.28 32.6932 104.28C31.9558 104.28 31.0972 104.574 30.1172 105.162C29.9772 105.246 29.8652 105.218 29.7812 105.078L29.5992 104.77C29.5058 104.63 29.5525 104.509 29.7392 104.406C30.8778 103.715 31.9185 103.37 32.8612 103.37ZM34.3032 108.578V107.276C33.9392 107.229 33.5845 107.201 33.2392 107.192C32.8938 107.183 32.5345 107.201 32.1612 107.248C31.7972 107.295 31.4798 107.374 31.2092 107.486C30.9385 107.598 30.7145 107.771 30.5372 108.004C30.3598 108.228 30.2712 108.503 30.2712 108.83C30.2712 109.222 30.4158 109.563 30.7052 109.852C30.9945 110.141 31.4052 110.286 31.9372 110.286C32.4878 110.286 33.0198 110.09 33.5332 109.698C34.0465 109.306 34.3032 108.933 34.3032 108.578ZM41.536 103.37C41.9 103.37 42.2314 103.435 42.53 103.566C42.6794 103.603 42.7307 103.701 42.684 103.86L42.586 104.308C42.5487 104.457 42.46 104.513 42.32 104.476C42.096 104.373 41.8394 104.322 41.55 104.322C41.1487 104.322 40.7707 104.429 40.416 104.644C40.0707 104.859 39.786 105.125 39.562 105.442C39.3474 105.75 39.1794 106.067 39.058 106.394C38.9367 106.711 38.876 106.996 38.876 107.248V110.762C38.876 110.921 38.792 111 38.624 111H37.952C37.7934 111 37.714 110.921 37.714 110.762V103.818C37.714 103.659 37.7934 103.58 37.952 103.58H38.498C38.6474 103.58 38.736 103.65 38.764 103.79L38.806 105.316C39.114 104.681 39.5014 104.201 39.968 103.874C40.444 103.538 40.9667 103.37 41.536 103.37ZM44.1727 101.074H44.9707C45.1387 101.074 45.2227 101.153 45.2227 101.312V101.83C45.2227 101.989 45.1387 102.068 44.9707 102.068H44.1727C44.0141 102.068 43.9347 101.989 43.9347 101.83V101.312C43.9347 101.153 44.0141 101.074 44.1727 101.074ZM44.2427 103.58H44.9147C45.0734 103.58 45.1527 103.659 45.1527 103.818V110.762C45.1527 110.921 45.0734 111 44.9147 111H44.2427C44.0747 111 43.9907 110.921 43.9907 110.762V103.818C43.9907 103.659 44.0747 103.58 44.2427 103.58ZM57.637 100.92H58.491C58.5937 100.92 58.659 100.953 58.687 101.018C58.715 101.074 58.6964 101.139 58.631 101.214L54.025 106.044L58.477 110.706C58.5424 110.781 58.561 110.851 58.533 110.916C58.505 110.972 58.4397 111 58.337 111H57.427C57.3057 111 57.2077 110.953 57.133 110.86L52.891 106.254V110.762C52.891 110.921 52.807 111 52.639 111H51.967C51.799 111 51.715 110.921 51.715 110.762V101.158C51.715 100.999 51.799 100.92 51.967 100.92H52.639C52.807 100.92 52.891 100.999 52.891 101.158V105.82L57.343 101.06C57.4177 100.967 57.5157 100.92 57.637 100.92ZM62.926 103.37C64.0273 103.37 64.9186 103.739 65.6 104.476C66.2813 105.213 66.622 106.151 66.622 107.29C66.622 108.419 66.2813 109.353 65.6 110.09C64.9186 110.827 64.0273 111.196 62.926 111.196C61.8246 111.196 60.9333 110.827 60.252 110.09C59.5706 109.353 59.23 108.419 59.23 107.29C59.23 106.151 59.5706 105.213 60.252 104.476C60.9333 103.739 61.8246 103.37 62.926 103.37ZM64.746 105.176C64.27 104.616 63.6633 104.336 62.926 104.336C62.1886 104.336 61.582 104.616 61.106 105.176C60.6393 105.727 60.406 106.427 60.406 107.276C60.406 107.836 60.5086 108.34 60.714 108.788C60.9286 109.236 61.2273 109.586 61.61 109.838C62.002 110.09 62.4406 110.216 62.926 110.216C63.6633 110.216 64.27 109.941 64.746 109.39C65.222 108.83 65.46 108.125 65.46 107.276C65.46 106.427 65.222 105.727 64.746 105.176ZM72.1337 103.37C72.4977 103.37 72.829 103.435 73.1277 103.566C73.277 103.603 73.3284 103.701 73.2817 103.86L73.1837 104.308C73.1464 104.457 73.0577 104.513 72.9177 104.476C72.6937 104.373 72.437 104.322 72.1477 104.322C71.7464 104.322 71.3684 104.429 71.0137 104.644C70.6684 104.859 70.3837 105.125 70.1597 105.442C69.945 105.75 69.777 106.067 69.6557 106.394C69.5344 106.711 69.4737 106.996 69.4737 107.248V110.762C69.4737 110.921 69.3897 111 69.2217 111H68.5497C68.391 111 68.3117 110.921 68.3117 110.762V103.818C68.3117 103.659 68.391 103.58 68.5497 103.58H69.0957C69.245 103.58 69.3337 103.65 69.3617 103.79L69.4037 105.316C69.7117 104.681 70.099 104.201 70.5657 103.874C71.0417 103.538 71.5644 103.37 72.1337 103.37ZM77.5119 103.37C78.5105 103.37 79.3039 103.65 79.8919 104.21C80.4799 104.77 80.7785 105.549 80.7879 106.548C80.7879 106.819 80.7646 107.113 80.7179 107.43C80.6899 107.57 80.6012 107.64 80.4519 107.64H75.0199C75.0572 107.976 75.1319 108.293 75.2439 108.592C75.3559 108.881 75.5099 109.152 75.7059 109.404C75.9112 109.647 76.1725 109.838 76.4899 109.978C76.8072 110.118 77.1712 110.188 77.5819 110.188C78.4779 110.188 79.2059 109.889 79.7659 109.292C79.8965 109.208 80.0085 109.227 80.1019 109.348L80.3399 109.726C80.4332 109.857 80.4239 109.969 80.3119 110.062C79.6025 110.818 78.6692 111.196 77.5119 111.196C76.7839 111.196 76.1445 111.042 75.5939 110.734C75.0432 110.426 74.6139 109.978 74.3059 109.39C73.9979 108.802 73.8392 108.102 73.8299 107.29C73.8299 106.767 73.9045 106.273 74.0539 105.806C74.2125 105.339 74.4412 104.924 74.7399 104.56C75.0479 104.196 75.4399 103.907 75.9159 103.692C76.3919 103.477 76.9239 103.37 77.5119 103.37ZM77.4979 104.322C76.8072 104.322 76.2379 104.56 75.7899 105.036C75.3419 105.503 75.0899 106.086 75.0339 106.786H79.6959C79.7332 106.291 79.6772 105.862 79.5279 105.498C79.3879 105.134 79.1452 104.849 78.7999 104.644C78.4545 104.429 78.0205 104.322 77.4979 104.322ZM85.9901 103.37C87.7168 103.37 88.5801 104.392 88.5801 106.436V109.348C88.5801 109.609 88.6641 109.838 88.8321 110.034C89.0001 110.221 89.2334 110.328 89.5321 110.356C89.6814 110.393 89.7561 110.477 89.7561 110.608V111C89.7468 111.159 89.6814 111.243 89.5601 111.252C89.4854 111.261 89.4108 111.266 89.3361 111.266C88.8228 111.238 88.4168 111.084 88.1181 110.804C87.8194 110.524 87.6281 110.202 87.5441 109.838C87.4601 109.959 87.3434 110.09 87.1941 110.23C87.0448 110.37 86.8534 110.524 86.6201 110.692C86.3868 110.851 86.1021 110.981 85.7661 111.084C85.4301 111.187 85.0801 111.238 84.7161 111.238C83.9601 111.238 83.3581 111.023 82.9101 110.594C82.4621 110.155 82.2381 109.591 82.2381 108.9C82.2381 108.452 82.3408 108.06 82.5461 107.724C82.7608 107.388 83.0408 107.136 83.3861 106.968C83.7408 106.8 84.1421 106.669 84.5901 106.576C85.0474 106.473 85.5141 106.431 85.9901 106.45C86.4754 106.459 86.9561 106.483 87.4321 106.52C87.4321 106.249 87.4228 106.021 87.4041 105.834C87.3854 105.647 87.3434 105.451 87.2781 105.246C87.2128 105.031 87.1241 104.863 87.0121 104.742C86.9001 104.611 86.7414 104.504 86.5361 104.42C86.3401 104.327 86.1021 104.28 85.8221 104.28C85.0848 104.28 84.2261 104.574 83.2461 105.162C83.1061 105.246 82.9941 105.218 82.9101 105.078L82.7281 104.77C82.6348 104.63 82.6814 104.509 82.8681 104.406C84.0068 103.715 85.0474 103.37 85.9901 103.37ZM87.4321 108.578V107.276C87.0681 107.229 86.7134 107.201 86.3681 107.192C86.0228 107.183 85.6634 107.201 85.2901 107.248C84.9261 107.295 84.6088 107.374 84.3381 107.486C84.0674 107.598 83.8434 107.771 83.6661 108.004C83.4888 108.228 83.4001 108.503 83.4001 108.83C83.4001 109.222 83.5448 109.563 83.8341 109.852C84.1234 110.141 84.5341 110.286 85.0661 110.286C85.6168 110.286 86.1488 110.09 86.6621 109.698C87.1754 109.306 87.4321 108.933 87.4321 108.578ZM98.278 100.724C98.9127 100.724 99.426 100.915 99.818 101.298C100.219 101.681 100.42 102.18 100.42 102.796C100.42 103.085 100.369 103.361 100.266 103.622C100.163 103.883 100.009 104.126 99.804 104.35C99.5987 104.574 99.4027 104.765 99.216 104.924C99.0294 105.083 98.796 105.265 98.516 105.47L100.896 108.144C101.223 107.575 101.437 106.926 101.54 106.198C101.568 106.039 101.657 105.965 101.806 105.974L102.338 105.988C102.506 105.997 102.581 106.086 102.562 106.254C102.413 107.243 102.091 108.13 101.596 108.914L103.22 110.706C103.295 110.781 103.318 110.851 103.29 110.916C103.262 110.972 103.197 111 103.094 111H102.324C102.212 111 102.114 110.958 102.03 110.874L100.924 109.656C100.504 110.16 100.028 110.543 99.496 110.804C98.9734 111.065 98.4414 111.196 97.9 111.196C97.06 111.196 96.374 110.925 95.842 110.384C95.3194 109.843 95.058 109.18 95.058 108.396C95.058 107.761 95.2354 107.192 95.59 106.688C95.9447 106.184 96.43 105.703 97.046 105.246C96.8314 104.966 96.6587 104.723 96.528 104.518C96.3974 104.313 96.2807 104.07 96.178 103.79C96.0754 103.51 96.024 103.235 96.024 102.964C96.024 102.348 96.234 101.821 96.654 101.382C97.074 100.943 97.6154 100.724 98.278 100.724ZM98.25 101.648C97.886 101.648 97.592 101.774 97.368 102.026C97.1534 102.278 97.046 102.577 97.046 102.922C97.046 103.239 97.116 103.533 97.256 103.804C97.4054 104.065 97.6247 104.378 97.914 104.742C98.1474 104.574 98.2967 104.467 98.362 104.42C98.4274 104.364 98.5534 104.257 98.74 104.098C98.9267 103.939 99.0527 103.809 99.118 103.706C99.1834 103.603 99.2487 103.473 99.314 103.314C99.3887 103.146 99.426 102.978 99.426 102.81C99.426 102.455 99.3187 102.175 99.104 101.97C98.8987 101.755 98.614 101.648 98.25 101.648ZM100.28 108.942L97.634 105.988C97.1394 106.371 96.7567 106.744 96.486 107.108C96.2247 107.472 96.094 107.883 96.094 108.34C96.094 108.9 96.2667 109.357 96.612 109.712C96.9667 110.057 97.4194 110.23 97.97 110.23C98.3434 110.23 98.74 110.123 99.16 109.908C99.58 109.693 99.9534 109.371 100.28 108.942ZM109.02 100.92L114.76 100.934C114.918 100.934 114.998 101.013 114.998 101.172V101.62C114.998 101.788 114.918 101.872 114.76 101.872H109.944V105.4H113.43C113.598 105.4 113.682 105.484 113.682 105.652V106.1C113.682 106.259 113.598 106.338 113.43 106.338H109.944V110.062H114.76C114.918 110.062 114.998 110.141 114.998 110.3V110.748C114.998 110.916 114.918 111 114.76 111H109.02C108.852 111 108.768 110.921 108.768 110.762V101.158C108.768 100.999 108.852 100.92 109.02 100.92ZM120.286 103.37C120.65 103.37 120.981 103.435 121.28 103.566C121.429 103.603 121.481 103.701 121.434 103.86L121.336 104.308C121.299 104.457 121.21 104.513 121.07 104.476C120.846 104.373 120.589 104.322 120.3 104.322C119.899 104.322 119.521 104.429 119.166 104.644C118.821 104.859 118.536 105.125 118.312 105.442C118.097 105.75 117.929 106.067 117.808 106.394C117.687 106.711 117.626 106.996 117.626 107.248V110.762C117.626 110.921 117.542 111 117.374 111H116.702C116.543 111 116.464 110.921 116.464 110.762V103.818C116.464 103.659 116.543 103.58 116.702 103.58H117.248C117.397 103.58 117.486 103.65 117.514 103.79L117.556 105.316C117.864 104.681 118.251 104.201 118.718 103.874C119.194 103.538 119.717 103.37 120.286 103.37ZM125.748 103.37C126.85 103.37 127.741 103.739 128.422 104.476C129.104 105.213 129.444 106.151 129.444 107.29C129.444 108.419 129.104 109.353 128.422 110.09C127.741 110.827 126.85 111.196 125.748 111.196C124.647 111.196 123.756 110.827 123.074 110.09C122.393 109.353 122.052 108.419 122.052 107.29C122.052 106.151 122.393 105.213 123.074 104.476C123.756 103.739 124.647 103.37 125.748 103.37ZM127.568 105.176C127.092 104.616 126.486 104.336 125.748 104.336C125.011 104.336 124.404 104.616 123.928 105.176C123.462 105.727 123.228 106.427 123.228 107.276C123.228 107.836 123.331 108.34 123.536 108.788C123.751 109.236 124.05 109.586 124.432 109.838C124.824 110.09 125.263 110.216 125.748 110.216C126.486 110.216 127.092 109.941 127.568 109.39C128.044 108.83 128.282 108.125 128.282 107.276C128.282 106.427 128.044 105.727 127.568 105.176ZM134.956 103.37C135.385 103.37 135.791 103.449 136.174 103.608C136.566 103.767 136.916 104 137.224 104.308C137.532 104.607 137.775 105.003 137.952 105.498C138.129 105.983 138.218 106.534 138.218 107.15C138.218 108.307 137.915 109.273 137.308 110.048C136.701 110.813 135.889 111.196 134.872 111.196C134.349 111.196 133.855 111.084 133.388 110.86C132.931 110.636 132.581 110.314 132.338 109.894V114.906C132.338 115.065 132.259 115.144 132.1 115.144H131.428C131.26 115.144 131.176 115.065 131.176 114.906V103.818C131.176 103.659 131.26 103.58 131.428 103.58H132.016C132.165 103.58 132.254 103.65 132.282 103.79L132.31 104.812C132.581 104.373 132.959 104.023 133.444 103.762C133.929 103.501 134.433 103.37 134.956 103.37ZM134.774 104.364C134.214 104.364 133.701 104.56 133.234 104.952C132.767 105.335 132.464 105.843 132.324 106.478V108.382C132.501 109.007 132.814 109.474 133.262 109.782C133.71 110.081 134.186 110.23 134.69 110.23C135.427 110.23 136.001 109.941 136.412 109.362C136.832 108.783 137.042 108.06 137.042 107.192C137.042 106.744 136.977 106.338 136.846 105.974C136.725 105.601 136.557 105.302 136.342 105.078C136.137 104.845 135.899 104.667 135.628 104.546C135.357 104.425 135.073 104.364 134.774 104.364ZM143.398 103.37C145.125 103.37 145.988 104.392 145.988 106.436V109.348C145.988 109.609 146.072 109.838 146.24 110.034C146.408 110.221 146.642 110.328 146.94 110.356C147.09 110.393 147.164 110.477 147.164 110.608V111C147.155 111.159 147.09 111.243 146.968 111.252C146.894 111.261 146.819 111.266 146.744 111.266C146.231 111.238 145.825 111.084 145.526 110.804C145.228 110.524 145.036 110.202 144.952 109.838C144.868 109.959 144.752 110.09 144.602 110.23C144.453 110.37 144.262 110.524 144.028 110.692C143.795 110.851 143.51 110.981 143.174 111.084C142.838 111.187 142.488 111.238 142.124 111.238C141.368 111.238 140.766 111.023 140.318 110.594C139.87 110.155 139.646 109.591 139.646 108.9C139.646 108.452 139.749 108.06 139.954 107.724C140.169 107.388 140.449 107.136 140.794 106.968C141.149 106.8 141.55 106.669 141.998 106.576C142.456 106.473 142.922 106.431 143.398 106.45C143.884 106.459 144.364 106.483 144.84 106.52C144.84 106.249 144.831 106.021 144.812 105.834C144.794 105.647 144.752 105.451 144.686 105.246C144.621 105.031 144.532 104.863 144.42 104.742C144.308 104.611 144.15 104.504 143.944 104.42C143.748 104.327 143.51 104.28 143.23 104.28C142.493 104.28 141.634 104.574 140.654 105.162C140.514 105.246 140.402 105.218 140.318 105.078L140.136 104.77C140.043 104.63 140.09 104.509 140.276 104.406C141.415 103.715 142.456 103.37 143.398 103.37ZM144.84 108.578V107.276C144.476 107.229 144.122 107.201 143.776 107.192C143.431 107.183 143.072 107.201 142.698 107.248C142.334 107.295 142.017 107.374 141.746 107.486C141.476 107.598 141.252 107.771 141.074 108.004C140.897 108.228 140.808 108.503 140.808 108.83C140.808 109.222 140.953 109.563 141.242 109.852C141.532 110.141 141.942 110.286 142.474 110.286C143.025 110.286 143.557 110.09 144.07 109.698C144.584 109.306 144.84 108.933 144.84 108.578Z" fill="#7E222F"/>
</g>
<defs>
<filter id="filter0_b_825_575" x="-15" y="-15" width="197" height="159" filterUnits="userSpaceOnUse" color-interpolation-filters="sRGB">
<feFlood flood-opacity="0" result="BackgroundImageFix"/>
<feGaussianBlur in="BackgroundImageFix" stdDeviation="7.5"/>
<feComposite in2="SourceAlpha" operator="in" result="effect1_backgroundBlur_825_575"/>
<feBlend mode="normal" in="SourceGraphic" in2="effect1_backgroundBlur_825_575" result="shape"/>
</filter>
<linearGradient id="paint0_linear_825_575" x1="83.5" y1="0" x2="83.5" y2="129" gradientUnits="userSpaceOnUse">
<stop stop-color="white" stop-opacity="0.8"/>
<stop offset="1" stop-color="white" stop-opacity="0.25"/>
</linearGradient>
<clipPath id="clip0_825_575">
<rect width="55" height="55" fill="white" transform="translate(39.5 12)"/>
</clipPath>
<clipPath id="clip1_825_575">
<rect width="55" height="55" fill="white" transform="translate(72.5 12)"/>
</clipPath>
</defs>
</svg>
