<svg width="168" height="129" viewBox="0 0 168 129" fill="none" xmlns="http://www.w3.org/2000/svg">
<g filter="url(#filter0_b_825_484)">
<rect x="0.640137" width="167" height="129" rx="12" fill="url(#paint0_linear_825_484)"/>
<rect x="1.64014" y="1" width="165" height="127" rx="11" stroke="white" stroke-width="2"/>
<g clip-path="url(#clip0_825_484)">
<path d="M67.6401 67C82.828 67 95.1401 54.6878 95.1401 39.5C95.1401 24.3122 82.828 12 67.6401 12C52.4523 12 40.1401 24.3122 40.1401 39.5C40.1401 54.6878 52.4523 67 67.6401 67Z" fill="#F0F0F0"/>
<path d="M77.2053 39.4997C77.2053 41.8911 72.9228 47.8693 67.6401 47.8693C62.3575 47.8693 58.075 41.8911 58.075 39.4997C58.075 34.2169 62.3575 29.9346 67.6401 29.9346C72.9228 29.9346 77.2053 34.2169 77.2053 39.4997Z" fill="#D80027"/>
<path d="M77.2053 39.5C77.2053 44.7828 72.9228 49.0652 67.6401 49.0652C62.3575 49.0652 58.075 44.7828 58.075 39.5" fill="#0052B4"/>
<path d="M77.778 47.9551L80.314 45.4191L82.0047 47.1098L79.4687 49.6457L77.778 47.9551Z" fill="black"/>
<path d="M73.5502 52.1816L76.0862 49.6457L77.7768 51.3363L75.2409 53.8723L73.5502 52.1816Z" fill="black"/>
<path d="M82.8504 53.0264L85.3863 50.4904L87.077 52.1811L84.541 54.717L82.8504 53.0264Z" fill="black"/>
<path d="M78.6226 57.2539L81.1586 54.718L82.8492 56.4086L80.3133 58.9446L78.6226 57.2539Z" fill="black"/>
<path d="M80.3141 50.4912L82.85 47.9553L84.5407 49.6459L82.0047 52.1819L80.3141 50.4912Z" fill="black"/>
<path d="M76.0874 54.7178L78.6234 52.1818L80.314 53.8725L77.7781 56.4084L76.0874 54.7178Z" fill="black"/>
<path d="M82.8615 31.0498L76.099 24.2872L77.7896 22.5966L84.5522 29.3591L82.8615 31.0498Z" fill="black"/>
<path d="M76.0977 29.3594L73.5618 26.8234L75.2523 25.1328L77.7883 27.6688L76.0977 29.3594Z" fill="black"/>
<path d="M80.3243 33.5869L77.7884 31.051L79.479 29.3604L82.0149 31.8963L80.3243 33.5869Z" fill="black"/>
<path d="M81.1691 24.2871L78.6332 21.7512L80.3238 20.0605L82.8598 22.5964L81.1691 24.2871Z" fill="black"/>
<path d="M85.3981 28.5146L82.8621 25.9787L84.5528 24.288L87.0887 26.824L85.3981 28.5146Z" fill="black"/>
<path d="M49.8892 50.4863L56.6517 57.2489L54.9611 58.9396L48.1985 52.177L49.8892 50.4863Z" fill="black"/>
<path d="M56.6514 52.1758L59.1873 54.7117L57.4967 56.4023L54.9608 53.8664L56.6514 52.1758Z" fill="black"/>
<path d="M52.4244 47.9502L54.9603 50.4862L53.2697 52.1768L50.7337 49.6409L52.4244 47.9502Z" fill="black"/>
<path d="M54.9607 45.4131L61.7232 52.1757L60.0326 53.8663L53.27 47.1037L54.9607 45.4131Z" fill="black"/>
<path d="M56.651 21.7461L49.8884 28.5087L48.1978 26.818L54.9603 20.0554L56.651 21.7461Z" fill="black"/>
<path d="M59.187 24.2812L52.4244 31.0438L50.7337 29.3532L57.4963 22.5906L59.187 24.2812Z" fill="black"/>
<path d="M61.7253 26.8193L54.9628 33.5819L53.2722 31.8913L60.0348 25.1287L61.7253 26.8193Z" fill="black"/>
</g>
<g clip-path="url(#clip1_825_484)">
<path d="M100.64 67C115.828 67 128.14 54.6878 128.14 39.5C128.14 24.3122 115.828 12 100.64 12C85.4523 12 73.1401 24.3122 73.1401 39.5C73.1401 54.6878 85.4523 67 100.64 67Z" fill="#0052B4"/>
<path d="M100.64 22.7607L101.531 25.501H104.412L102.081 27.1945L102.971 29.9347L100.64 28.2411L98.3092 29.9347L99.1996 27.1945L96.8687 25.501H99.7498L100.64 22.7607Z" fill="#FFDA44"/>
<path d="M88.8037 27.6637L91.3711 28.9717L93.4084 26.9346L92.9575 29.7802L95.5248 31.0883L92.6791 31.539L92.2284 34.3848L90.9203 31.8175L88.0747 32.2684L90.1119 30.2311L88.8037 27.6637Z" fill="#FFDA44"/>
<path d="M83.9011 39.5001L86.6413 38.6097V35.7285L88.3347 38.0596L91.0751 37.1691L89.3814 39.5001L91.0751 41.831L88.3347 40.9407L86.6413 43.2717V40.3905L83.9011 39.5001Z" fill="#FFDA44"/>
<path d="M88.8037 51.3362L90.1118 48.7688L88.0747 46.7316L90.9204 47.1825L92.2283 44.6152L92.6791 47.4609L95.5247 47.9117L92.9578 49.2198L93.4084 52.0654L91.3711 50.0281L88.8037 51.3362Z" fill="#FFDA44"/>
<path d="M100.64 56.2392L99.7497 53.4989H96.8687L99.1997 51.8054L98.3092 49.0654L100.64 50.7588L102.971 49.0654L102.081 51.8054L104.412 53.4989H101.531L100.64 56.2392Z" fill="#FFDA44"/>
<path d="M112.477 51.3362L109.909 50.0282L107.872 52.0655L108.323 49.2197L105.756 47.9117L108.601 47.4609L109.052 44.6152L110.36 47.1825L113.206 46.7316L111.168 48.769L112.477 51.3362Z" fill="#FFDA44"/>
<path d="M117.379 39.5001L114.639 40.3905V43.2717L112.946 40.9406L110.206 41.831L111.899 39.5001L110.206 37.1691L112.946 38.0596L114.639 35.7285V38.6098L117.379 39.5001Z" fill="#FFDA44"/>
<path d="M112.477 27.6636L111.169 30.231L113.206 32.2683L110.36 31.8173L109.052 34.3846L108.601 31.5389L105.756 31.088L108.323 29.7801L107.872 26.9346L109.909 28.9717L112.477 27.6636Z" fill="#FFDA44"/>
</g>
<path d="M16.6166 83.92H20.8866C21.6053 83.92 22.2213 84.158 22.7346 84.634C23.2479 85.11 23.5046 85.7213 23.5046 86.468C23.5046 86.6547 23.4859 86.832 23.4486 87C23.4206 87.168 23.3739 87.3313 23.3086 87.49C23.2433 87.6487 23.1593 87.798 23.0566 87.938C22.9633 88.0687 22.8466 88.19 22.7066 88.302C22.5759 88.4047 22.4266 88.4933 22.2586 88.568C22.8746 88.7267 23.3366 89.0487 23.6446 89.534C23.9526 90.01 24.1066 90.5607 24.1066 91.186C24.1066 91.718 23.9573 92.208 23.6586 92.656C23.3693 93.0947 23.0146 93.4307 22.5946 93.664C22.1839 93.888 21.7733 94 21.3626 94H16.6166C16.3739 94 16.2526 93.874 16.2526 93.622V84.298C16.2526 84.046 16.3739 83.92 16.6166 83.92ZM20.2146 85.46H18.2686V88.092H20.1446C20.2566 88.092 20.3779 88.0733 20.5086 88.036C20.6393 87.9893 20.7746 87.924 20.9146 87.84C21.0639 87.7467 21.1806 87.6113 21.2646 87.434C21.3579 87.2473 21.4046 87.028 21.4046 86.776C21.4046 86.4867 21.3393 86.2393 21.2086 86.034C21.0873 85.8193 20.9379 85.67 20.7606 85.586C20.5926 85.502 20.4106 85.46 20.2146 85.46ZM20.6626 89.632H18.2686V92.474H20.6346C20.9706 92.474 21.2833 92.3433 21.5726 92.082C21.8619 91.8113 22.0066 91.4427 22.0066 90.976C22.0066 90.4907 21.8713 90.1453 21.6006 89.94C21.3393 89.7347 21.0266 89.632 20.6626 89.632ZM29.1898 86.37C30.2351 86.37 31.0751 86.6733 31.7098 87.28C32.3445 87.8773 32.6618 88.6987 32.6618 89.744C32.6618 90.0147 32.6385 90.2853 32.5918 90.556C32.5451 90.7613 32.4051 90.864 32.1718 90.864H27.2438C27.3558 91.3587 27.5891 91.7647 27.9438 92.082C28.2985 92.3993 28.7791 92.558 29.3858 92.558C30.0578 92.558 30.6178 92.376 31.0658 92.012C31.2898 91.9187 31.4578 91.9653 31.5698 92.152L31.9478 92.866C32.0785 93.0807 32.0505 93.2487 31.8638 93.37C31.2011 93.9207 30.3285 94.196 29.2458 94.196C28.4338 94.196 27.7291 94.0513 27.1318 93.762C26.5345 93.4633 26.0631 93.02 25.7178 92.432C25.3818 91.8347 25.2138 91.1207 25.2138 90.29C25.2045 89.7767 25.2791 89.2913 25.4378 88.834C25.5965 88.3767 25.8298 87.9613 26.1378 87.588C26.4551 87.2147 26.8751 86.9207 27.3978 86.706C27.9205 86.482 28.5178 86.37 29.1898 86.37ZM29.1758 87.938C28.6718 87.938 28.2518 88.0873 27.9158 88.386C27.5798 88.6847 27.3698 89.058 27.2858 89.506H30.8418C30.8325 89.03 30.6831 88.652 30.3938 88.372C30.1045 88.0827 29.6985 87.938 29.1758 87.938ZM37.1594 86.356C38.0554 86.356 39.0028 86.5707 40.0014 87C40.2161 87.0933 40.2768 87.2567 40.1834 87.49L39.9314 88.148C39.8381 88.3627 39.6794 88.4373 39.4554 88.372C38.4474 88.064 37.6774 87.91 37.1454 87.91C36.8094 87.91 36.5108 87.9753 36.2494 88.106C35.9881 88.2273 35.8574 88.4187 35.8574 88.68C35.8574 88.8387 35.9228 88.974 36.0534 89.086C36.1841 89.1887 36.3568 89.268 36.5714 89.324C36.7954 89.3707 37.0428 89.422 37.3134 89.478C37.5934 89.534 37.8781 89.5853 38.1674 89.632C38.4661 89.6787 38.7508 89.758 39.0214 89.87C39.3014 89.9727 39.5488 90.0987 39.7634 90.248C39.9874 90.3973 40.1648 90.6027 40.2954 90.864C40.4261 91.1253 40.4914 91.4333 40.4914 91.788C40.4914 92.5347 40.1928 93.1227 39.5954 93.552C39.0074 93.9813 38.2421 94.196 37.2994 94.196C36.3008 94.196 35.1901 93.972 33.9674 93.524C33.7341 93.4307 33.6688 93.2673 33.7714 93.034L34.0794 92.334C34.1821 92.1193 34.3454 92.054 34.5694 92.138C35.6428 92.5113 36.5341 92.698 37.2434 92.698C37.5794 92.698 37.8548 92.6327 38.0694 92.502C38.2934 92.3713 38.4054 92.1753 38.4054 91.914C38.4054 91.7553 38.3401 91.6247 38.2094 91.522C38.0788 91.41 37.9061 91.3307 37.6914 91.284C37.4768 91.2373 37.2294 91.186 36.9494 91.13C36.6694 91.074 36.3848 91.0273 36.0954 90.99C35.8154 90.9433 35.5354 90.8687 35.2554 90.766C34.9848 90.654 34.7374 90.5233 34.5134 90.374C34.2988 90.2247 34.1261 90.0147 33.9954 89.744C33.8648 89.4733 33.7994 89.1607 33.7994 88.806C33.7994 88.3767 33.8881 88.0033 34.0654 87.686C34.2521 87.3593 34.5041 87.1027 34.8214 86.916C35.1481 86.7293 35.5028 86.5893 35.8854 86.496C36.2774 86.4027 36.7021 86.356 37.1594 86.356ZM42.769 83.92H44.029C44.281 83.92 44.407 84.0413 44.407 84.284V86.58H45.835C46.087 86.58 46.213 86.706 46.213 86.958V87.644C46.213 87.8867 46.087 88.008 45.835 88.008H44.407L44.393 91.214C44.393 92.1287 44.7944 92.586 45.597 92.586C45.821 92.586 46.1057 92.5113 46.451 92.362C46.703 92.2873 46.8524 92.362 46.899 92.586L47.067 93.356C47.123 93.5893 47.0484 93.7433 46.843 93.818C46.2177 94.0887 45.6064 94.224 45.009 94.224C44.2157 94.224 43.581 94.0233 43.105 93.622C42.6384 93.2207 42.405 92.5673 42.405 91.662V88.008H41.593C41.3504 88.008 41.229 87.8867 41.229 87.644V86.958C41.229 86.706 41.3504 86.58 41.593 86.58H42.405V84.284C42.405 84.0413 42.5264 83.92 42.769 83.92ZM57.3775 83.738C58.6748 83.738 59.7948 84.2047 60.7375 85.138C60.9242 85.306 60.9288 85.4787 60.7515 85.656L60.1775 86.286C60.0188 86.4447 59.8462 86.454 59.6595 86.314C59.0062 85.7073 58.2735 85.404 57.4615 85.404C56.5935 85.404 55.8842 85.726 55.3335 86.37C54.7828 87.0047 54.5075 87.868 54.5075 88.96C54.5075 90.0707 54.7875 90.9433 55.3475 91.578C55.9075 92.2127 56.6122 92.53 57.4615 92.53C58.2548 92.53 58.9875 92.1987 59.6595 91.536C59.8462 91.3773 60.0188 91.3913 60.1775 91.578L60.7655 92.264C60.9335 92.4507 60.9288 92.6233 60.7515 92.782C59.7995 93.7247 58.6748 94.196 57.3775 94.196C56.3602 94.196 55.4688 93.958 54.7035 93.482C53.9382 93.006 53.3595 92.376 52.9675 91.592C52.5848 90.808 52.3935 89.9307 52.3935 88.96C52.3935 87.9987 52.5848 87.126 52.9675 86.342C53.3502 85.558 53.9242 84.928 54.6895 84.452C55.4642 83.976 56.3602 83.738 57.3775 83.738ZM65.9848 86.37C67.2354 86.37 68.2154 86.7387 68.9248 87.476C69.6434 88.204 70.0028 89.142 70.0028 90.29C70.0028 91.438 69.6434 92.376 68.9248 93.104C68.2154 93.832 67.2354 94.196 65.9848 94.196C64.7434 94.196 63.7634 93.832 63.0448 93.104C62.3354 92.376 61.9808 91.438 61.9808 90.29C61.9808 89.1327 62.3354 88.19 63.0448 87.462C63.7634 86.734 64.7434 86.37 65.9848 86.37ZM67.4268 88.652C67.0628 88.2133 66.5821 87.994 65.9848 87.994C65.3968 87.994 64.9161 88.2133 64.5428 88.652C64.1788 89.0813 63.9968 89.6273 63.9968 90.29C63.9968 90.9433 64.1788 91.4893 64.5428 91.928C64.9161 92.3667 65.3968 92.586 65.9848 92.586C66.5821 92.586 67.0628 92.3667 67.4268 91.928C67.8001 91.4893 67.9868 90.9433 67.9868 90.29C67.9868 89.6273 67.8001 89.0813 67.4268 88.652ZM71.9607 83.5H73.2067C73.4587 83.5 73.5847 83.6213 73.5847 83.864V91.466C73.5847 91.746 73.5987 91.9653 73.6267 92.124C73.6547 92.2733 73.7247 92.3947 73.8367 92.488C73.958 92.5813 74.126 92.628 74.3407 92.628C74.5367 92.628 74.7654 92.5627 75.0267 92.432C75.2694 92.3667 75.4234 92.446 75.4887 92.67L75.6847 93.384C75.7594 93.608 75.6894 93.762 75.4747 93.846C74.9614 94.0887 74.4107 94.21 73.8227 94.21C73.4214 94.21 73.0714 94.1493 72.7727 94.028C72.474 93.9067 72.2407 93.7387 72.0727 93.524C71.9047 93.3 71.7787 93.0527 71.6947 92.782C71.62 92.5113 71.5827 92.2033 71.5827 91.858V83.864C71.5827 83.6213 71.7087 83.5 71.9607 83.5ZM76.9099 83.5H78.1559C78.4079 83.5 78.5339 83.6213 78.5339 83.864V91.466C78.5339 91.746 78.5479 91.9653 78.5759 92.124C78.6039 92.2733 78.6739 92.3947 78.7859 92.488C78.9072 92.5813 79.0752 92.628 79.2899 92.628C79.4859 92.628 79.7146 92.5627 79.9759 92.432C80.2186 92.3667 80.3726 92.446 80.4379 92.67L80.6339 93.384C80.7086 93.608 80.6386 93.762 80.4239 93.846C79.9106 94.0887 79.3599 94.21 78.7719 94.21C78.3706 94.21 78.0206 94.1493 77.7219 94.028C77.4232 93.9067 77.1899 93.7387 77.0219 93.524C76.8539 93.3 76.7279 93.0527 76.6439 92.782C76.5692 92.5113 76.5319 92.2033 76.5319 91.858V83.864C76.5319 83.6213 76.6579 83.5 76.9099 83.5ZM85.1911 86.37C87.0765 86.37 88.0191 87.3547 88.0191 89.324V92.096C88.0191 92.2173 88.0425 92.3293 88.0891 92.432C88.1358 92.5253 88.2058 92.6047 88.2991 92.67C88.3925 92.7353 88.4998 92.782 88.6211 92.81C88.8545 92.8847 88.9665 93.0153 88.9571 93.202V93.86C88.9478 94.0933 88.8405 94.224 88.6351 94.252C88.5231 94.2707 88.3971 94.28 88.2571 94.28C87.7625 94.2613 87.3425 94.1493 86.9971 93.944C86.6518 93.7293 86.4045 93.44 86.2551 93.076C86.0125 93.3747 85.6718 93.6407 85.2331 93.874C84.7945 94.1073 84.2951 94.224 83.7351 94.224C82.9978 94.224 82.3818 94.0187 81.8871 93.608C81.4018 93.188 81.1591 92.5953 81.1591 91.83C81.1591 91.4007 81.2525 91.0273 81.4391 90.71C81.6351 90.3833 81.8965 90.136 82.2231 89.968C82.5498 89.7907 82.9231 89.6507 83.3431 89.548C83.7631 89.436 84.2018 89.38 84.6591 89.38C85.1165 89.3707 85.5738 89.3753 86.0311 89.394C86.0311 89.1607 86.0171 88.9693 85.9891 88.82C85.9705 88.6707 85.9238 88.5167 85.8491 88.358C85.7745 88.1993 85.6531 88.0827 85.4851 88.008C85.3171 87.924 85.0978 87.882 84.8271 87.882C84.1645 87.882 83.3945 88.1153 82.5171 88.582C82.2931 88.694 82.1205 88.6473 81.9991 88.442L81.6771 87.896C81.5371 87.672 81.6305 87.476 81.9571 87.308C83.1238 86.6827 84.2018 86.37 85.1911 86.37ZM86.0171 91.494V90.542C84.1038 90.3833 83.1471 90.7613 83.1471 91.676C83.1471 91.844 83.1845 91.998 83.2591 92.138C83.3431 92.278 83.4785 92.3993 83.6651 92.502C83.8518 92.5953 84.0805 92.642 84.3511 92.642C84.7431 92.642 85.1165 92.5207 85.4711 92.278C85.8351 92.026 86.0171 91.7647 86.0171 91.494ZM93.3294 86.37C93.7681 86.37 94.1787 86.4633 94.5614 86.65C94.9534 86.8367 95.2707 87.0887 95.5134 87.406L95.5974 86.832C95.6907 86.664 95.8354 86.58 96.0314 86.58H97.1934C97.4454 86.58 97.5714 86.7013 97.5714 86.944V94.546C97.5527 96.982 96.3581 98.2 93.9874 98.2C92.7927 98.2 91.6167 97.9247 90.4594 97.374C90.2354 97.29 90.1607 97.1313 90.2354 96.898L90.4874 96.17C90.5714 95.9367 90.7301 95.862 90.9634 95.946C91.8314 96.3847 92.6714 96.604 93.4834 96.604C94.2581 96.604 94.7947 96.4313 95.0934 96.086C95.3921 95.7407 95.5461 95.2087 95.5554 94.49V93.244C95.0234 93.8787 94.2907 94.196 93.3574 94.196C92.3401 94.196 91.4907 93.8413 90.8094 93.132C90.1281 92.4227 89.7874 91.452 89.7874 90.22C89.7874 89.604 89.8854 89.0487 90.0814 88.554C90.2774 88.05 90.5387 87.644 90.8654 87.336C91.1921 87.028 91.5654 86.79 91.9854 86.622C92.4054 86.454 92.8534 86.37 93.3294 86.37ZM93.6794 87.994C93.1567 87.994 92.7181 88.204 92.3634 88.624C92.0087 89.0347 91.8314 89.5853 91.8314 90.276C91.8314 91.032 92.0041 91.606 92.3494 91.998C92.7041 92.39 93.1474 92.586 93.6794 92.586C94.1181 92.586 94.5241 92.4367 94.8974 92.138C95.2707 91.83 95.4901 91.438 95.5554 90.962V89.884C95.4901 89.296 95.2801 88.834 94.9254 88.498C94.5801 88.162 94.1647 87.994 93.6794 87.994ZM102.991 86.37C104.036 86.37 104.876 86.6733 105.511 87.28C106.145 87.8773 106.463 88.6987 106.463 89.744C106.463 90.0147 106.439 90.2853 106.393 90.556C106.346 90.7613 106.206 90.864 105.973 90.864H101.045C101.157 91.3587 101.39 91.7647 101.745 92.082C102.099 92.3993 102.58 92.558 103.187 92.558C103.859 92.558 104.419 92.376 104.867 92.012C105.091 91.9187 105.259 91.9653 105.371 92.152L105.749 92.866C105.879 93.0807 105.851 93.2487 105.665 93.37C105.002 93.9207 104.129 94.196 103.047 94.196C102.235 94.196 101.53 94.0513 100.933 93.762C100.335 93.4633 99.8639 93.02 99.5186 92.432C99.1826 91.8347 99.0146 91.1207 99.0146 90.29C99.0053 89.7767 99.0799 89.2913 99.2386 88.834C99.3973 88.3767 99.6306 87.9613 99.9386 87.588C100.256 87.2147 100.676 86.9207 101.199 86.706C101.721 86.482 102.319 86.37 102.991 86.37ZM102.977 87.938C102.473 87.938 102.053 88.0873 101.717 88.386C101.381 88.6847 101.171 89.058 101.087 89.506H104.643C104.633 89.03 104.484 88.652 104.195 88.372C103.905 88.0827 103.499 87.938 102.977 87.938ZM112.193 86.37C113.192 86.37 113.924 86.6593 114.391 87.238C114.867 87.8073 115.105 88.6707 115.105 89.828V93.622C115.105 93.874 114.984 94 114.741 94H113.481C113.229 94 113.103 93.874 113.103 93.622V90.08C113.103 88.68 112.66 87.98 111.773 87.98C111.288 87.98 110.882 88.1387 110.555 88.456C110.228 88.764 110.009 89.2167 109.897 89.814V93.622C109.897 93.874 109.776 94 109.533 94H108.273C108.03 94 107.909 93.874 107.909 93.622V86.944C107.909 86.7013 108.03 86.58 108.273 86.58H109.435C109.65 86.58 109.794 86.678 109.869 86.874L109.911 87.42C110.2 87.0747 110.546 86.8133 110.947 86.636C111.348 86.4587 111.764 86.37 112.193 86.37ZM124.787 83.304C125.617 83.304 126.355 83.5653 126.999 84.088C127.129 84.1907 127.139 84.3073 127.027 84.438L126.789 84.746C126.705 84.858 126.593 84.872 126.453 84.788C126.341 84.6947 126.205 84.6107 126.047 84.536C125.888 84.452 125.711 84.382 125.515 84.326C125.319 84.27 125.127 84.242 124.941 84.242C124.67 84.242 124.432 84.3027 124.227 84.424C124.021 84.5453 123.863 84.704 123.751 84.9C123.639 85.0867 123.555 85.2827 123.499 85.488C123.452 85.684 123.429 85.88 123.429 86.076V86.622H125.151C125.319 86.622 125.403 86.7013 125.403 86.86V87.266C125.403 87.4247 125.319 87.504 125.151 87.504H123.429V93.762C123.429 93.9207 123.349 94 123.191 94H122.505C122.337 94 122.253 93.9207 122.253 93.762V87.504H121.077C120.909 87.504 120.825 87.4247 120.825 87.266V86.86C120.825 86.7013 120.909 86.622 121.077 86.622H122.253V86.076C122.253 85.2827 122.467 84.6247 122.897 84.102C123.335 83.57 123.965 83.304 124.787 83.304ZM130.285 86.37C130.649 86.37 130.98 86.4353 131.279 86.566C131.428 86.6033 131.479 86.7013 131.433 86.86L131.335 87.308C131.297 87.4573 131.209 87.5133 131.069 87.476C130.845 87.3733 130.588 87.322 130.299 87.322C129.897 87.322 129.519 87.4293 129.165 87.644C128.819 87.8587 128.535 88.1247 128.311 88.442C128.096 88.75 127.928 89.0673 127.807 89.394C127.685 89.7113 127.625 89.996 127.625 90.248V93.762C127.625 93.9207 127.541 94 127.373 94H126.701C126.542 94 126.463 93.9207 126.463 93.762V86.818C126.463 86.6593 126.542 86.58 126.701 86.58H127.247C127.396 86.58 127.485 86.65 127.513 86.79L127.555 88.316C127.863 87.6813 128.25 87.2007 128.717 86.874C129.193 86.538 129.715 86.37 130.285 86.37ZM135.747 86.37C136.848 86.37 137.739 86.7387 138.421 87.476C139.102 88.2133 139.443 89.1513 139.443 90.29C139.443 91.4193 139.102 92.3527 138.421 93.09C137.739 93.8273 136.848 94.196 135.747 94.196C134.645 94.196 133.754 93.8273 133.073 93.09C132.391 92.3527 132.051 91.4193 132.051 90.29C132.051 89.1513 132.391 88.2133 133.073 87.476C133.754 86.7387 134.645 86.37 135.747 86.37ZM137.567 88.176C137.091 87.616 136.484 87.336 135.747 87.336C135.009 87.336 134.403 87.616 133.927 88.176C133.46 88.7267 133.227 89.4267 133.227 90.276C133.227 90.836 133.329 91.34 133.535 91.788C133.749 92.236 134.048 92.586 134.431 92.838C134.823 93.09 135.261 93.216 135.747 93.216C136.484 93.216 137.091 92.9407 137.567 92.39C138.043 91.83 138.281 91.1253 138.281 90.276C138.281 89.4267 138.043 88.7267 137.567 88.176ZM149.672 86.342C150.008 86.342 150.302 86.384 150.554 86.468C150.816 86.5427 151.026 86.664 151.184 86.832C151.352 86.9907 151.492 87.1727 151.604 87.378C151.716 87.574 151.8 87.812 151.856 88.092C151.912 88.3627 151.95 88.6287 151.968 88.89C151.987 89.142 151.996 89.436 151.996 89.772V93.762C151.996 93.9207 151.917 94 151.758 94H151.086C150.918 94 150.834 93.9207 150.834 93.762V89.898C150.834 89.8793 150.834 89.8467 150.834 89.8C150.834 89.576 150.834 89.408 150.834 89.296C150.834 89.184 150.825 89.0253 150.806 88.82C150.788 88.6147 150.76 88.456 150.722 88.344C150.694 88.232 150.643 88.1013 150.568 87.952C150.503 87.8027 150.419 87.6907 150.316 87.616C150.223 87.532 150.097 87.462 149.938 87.406C149.78 87.35 149.602 87.322 149.406 87.322C148.51 87.322 147.764 88.0033 147.166 89.366V93.762C147.166 93.9207 147.087 94 146.928 94H146.256C146.088 94 146.004 93.9207 146.004 93.762V89.898C146.004 89.6273 145.995 89.3893 145.976 89.184C145.967 88.9693 145.934 88.7407 145.878 88.498C145.822 88.246 145.743 88.0407 145.64 87.882C145.547 87.7233 145.407 87.588 145.22 87.476C145.043 87.364 144.824 87.308 144.562 87.308C144.264 87.308 143.993 87.3687 143.75 87.49C143.508 87.6113 143.298 87.7887 143.12 88.022C142.943 88.2553 142.798 88.4793 142.686 88.694C142.574 88.8993 142.458 89.1467 142.336 89.436V93.762C142.336 93.9207 142.257 94 142.098 94H141.426C141.258 94 141.174 93.9207 141.174 93.762V86.818C141.174 86.6593 141.258 86.58 141.426 86.58H142.056C142.196 86.58 142.285 86.6453 142.322 86.776L142.336 87.868C142.98 86.8693 143.82 86.37 144.856 86.37C145.435 86.37 145.883 86.524 146.2 86.832C146.518 87.14 146.76 87.5553 146.928 88.078C147.283 87.4807 147.703 87.042 148.188 86.762C148.674 86.482 149.168 86.342 149.672 86.342ZM38.3709 100.92H39.2249C39.3276 100.92 39.3929 100.953 39.4209 101.018C39.4489 101.074 39.4302 101.139 39.3649 101.214L34.7589 106.044L39.2109 110.706C39.2762 110.781 39.2949 110.851 39.2669 110.916C39.2389 110.972 39.1736 111 39.0709 111H38.1609C38.0396 111 37.9416 110.953 37.8669 110.86L33.6249 106.254V110.762C33.6249 110.921 33.5409 111 33.3729 111H32.7009C32.5329 111 32.4489 110.921 32.4489 110.762V101.158C32.4489 100.999 32.5329 100.92 32.7009 100.92H33.3729C33.5409 100.92 33.6249 100.999 33.6249 101.158V105.82L38.0769 101.06C38.1516 100.967 38.2496 100.92 38.3709 100.92ZM43.6598 103.37C44.7612 103.37 45.6525 103.739 46.3338 104.476C47.0152 105.213 47.3558 106.151 47.3558 107.29C47.3558 108.419 47.0152 109.353 46.3338 110.09C45.6525 110.827 44.7612 111.196 43.6598 111.196C42.5585 111.196 41.6672 110.827 40.9858 110.09C40.3045 109.353 39.9638 108.419 39.9638 107.29C39.9638 106.151 40.3045 105.213 40.9858 104.476C41.6672 103.739 42.5585 103.37 43.6598 103.37ZM45.4798 105.176C45.0038 104.616 44.3972 104.336 43.6598 104.336C42.9225 104.336 42.3158 104.616 41.8398 105.176C41.3732 105.727 41.1398 106.427 41.1398 107.276C41.1398 107.836 41.2425 108.34 41.4478 108.788C41.6625 109.236 41.9612 109.586 42.3438 109.838C42.7358 110.09 43.1745 110.216 43.6598 110.216C44.3972 110.216 45.0038 109.941 45.4798 109.39C45.9558 108.83 46.1938 108.125 46.1938 107.276C46.1938 106.427 45.9558 105.727 45.4798 105.176ZM52.8676 103.37C53.2316 103.37 53.5629 103.435 53.8616 103.566C54.0109 103.603 54.0622 103.701 54.0156 103.86L53.9176 104.308C53.8802 104.457 53.7916 104.513 53.6516 104.476C53.4276 104.373 53.1709 104.322 52.8816 104.322C52.4802 104.322 52.1022 104.429 51.7476 104.644C51.4022 104.859 51.1176 105.125 50.8936 105.442C50.6789 105.75 50.5109 106.067 50.3896 106.394C50.2682 106.711 50.2076 106.996 50.2076 107.248V110.762C50.2076 110.921 50.1236 111 49.9556 111H49.2836C49.1249 111 49.0456 110.921 49.0456 110.762V103.818C49.0456 103.659 49.1249 103.58 49.2836 103.58H49.8296C49.9789 103.58 50.0676 103.65 50.0956 103.79L50.1376 105.316C50.4456 104.681 50.8329 104.201 51.2996 103.874C51.7756 103.538 52.2982 103.37 52.8676 103.37ZM58.2458 103.37C59.2444 103.37 60.0378 103.65 60.6258 104.21C61.2138 104.77 61.5124 105.549 61.5218 106.548C61.5218 106.819 61.4984 107.113 61.4518 107.43C61.4238 107.57 61.3351 107.64 61.1858 107.64H55.7538C55.7911 107.976 55.8658 108.293 55.9778 108.592C56.0898 108.881 56.2438 109.152 56.4398 109.404C56.6451 109.647 56.9064 109.838 57.2238 109.978C57.5411 110.118 57.9051 110.188 58.3158 110.188C59.2118 110.188 59.9398 109.889 60.4998 109.292C60.6304 109.208 60.7424 109.227 60.8358 109.348L61.0738 109.726C61.1671 109.857 61.1578 109.969 61.0458 110.062C60.3364 110.818 59.4031 111.196 58.2458 111.196C57.5178 111.196 56.8784 111.042 56.3278 110.734C55.7771 110.426 55.3478 109.978 55.0398 109.39C54.7318 108.802 54.5731 108.102 54.5638 107.29C54.5638 106.767 54.6384 106.273 54.7878 105.806C54.9464 105.339 55.1751 104.924 55.4738 104.56C55.7818 104.196 56.1738 103.907 56.6498 103.692C57.1258 103.477 57.6578 103.37 58.2458 103.37ZM58.2318 104.322C57.5411 104.322 56.9718 104.56 56.5238 105.036C56.0758 105.503 55.8238 106.086 55.7678 106.786H60.4298C60.4671 106.291 60.4111 105.862 60.2618 105.498C60.1218 105.134 59.8791 104.849 59.5338 104.644C59.1884 104.429 58.7544 104.322 58.2318 104.322ZM66.724 103.37C68.4506 103.37 69.314 104.392 69.314 106.436V109.348C69.314 109.609 69.398 109.838 69.566 110.034C69.734 110.221 69.9673 110.328 70.266 110.356C70.4153 110.393 70.49 110.477 70.49 110.608V111C70.4806 111.159 70.4153 111.243 70.294 111.252C70.2193 111.261 70.1446 111.266 70.07 111.266C69.5566 111.238 69.1506 111.084 68.852 110.804C68.5533 110.524 68.362 110.202 68.278 109.838C68.194 109.959 68.0773 110.09 67.928 110.23C67.7786 110.37 67.5873 110.524 67.354 110.692C67.1206 110.851 66.836 110.981 66.5 111.084C66.164 111.187 65.814 111.238 65.45 111.238C64.694 111.238 64.092 111.023 63.644 110.594C63.196 110.155 62.972 109.591 62.972 108.9C62.972 108.452 63.0746 108.06 63.28 107.724C63.4946 107.388 63.7746 107.136 64.12 106.968C64.4746 106.8 64.876 106.669 65.324 106.576C65.7813 106.473 66.248 106.431 66.724 106.45C67.2093 106.459 67.69 106.483 68.166 106.52C68.166 106.249 68.1566 106.021 68.138 105.834C68.1193 105.647 68.0773 105.451 68.012 105.246C67.9466 105.031 67.858 104.863 67.746 104.742C67.634 104.611 67.4753 104.504 67.27 104.42C67.074 104.327 66.836 104.28 66.556 104.28C65.8186 104.28 64.96 104.574 63.98 105.162C63.84 105.246 63.728 105.218 63.644 105.078L63.462 104.77C63.3686 104.63 63.4153 104.509 63.602 104.406C64.7406 103.715 65.7813 103.37 66.724 103.37ZM68.166 108.578V107.276C67.802 107.229 67.4473 107.201 67.102 107.192C66.7566 107.183 66.3973 107.201 66.024 107.248C65.66 107.295 65.3426 107.374 65.072 107.486C64.8013 107.598 64.5773 107.771 64.4 108.004C64.2226 108.228 64.134 108.503 64.134 108.83C64.134 109.222 64.2786 109.563 64.568 109.852C64.8573 110.141 65.268 110.286 65.8 110.286C66.3506 110.286 66.8826 110.09 67.396 109.698C67.9093 109.306 68.166 108.933 68.166 108.578ZM79.0119 100.724C79.6466 100.724 80.1599 100.915 80.5519 101.298C80.9533 101.681 81.1539 102.18 81.1539 102.796C81.1539 103.085 81.1026 103.361 80.9999 103.622C80.8973 103.883 80.7433 104.126 80.5379 104.35C80.3326 104.574 80.1366 104.765 79.9499 104.924C79.7633 105.083 79.5299 105.265 79.2499 105.47L81.6299 108.144C81.9566 107.575 82.1713 106.926 82.2739 106.198C82.3019 106.039 82.3906 105.965 82.5399 105.974L83.0719 105.988C83.2399 105.997 83.3146 106.086 83.2959 106.254C83.1466 107.243 82.8246 108.13 82.3299 108.914L83.9539 110.706C84.0286 110.781 84.0519 110.851 84.0239 110.916C83.9959 110.972 83.9306 111 83.8279 111H83.0579C82.9459 111 82.8479 110.958 82.7639 110.874L81.6579 109.656C81.2379 110.16 80.7619 110.543 80.2299 110.804C79.7073 111.065 79.1753 111.196 78.6339 111.196C77.7939 111.196 77.1079 110.925 76.5759 110.384C76.0533 109.843 75.7919 109.18 75.7919 108.396C75.7919 107.761 75.9693 107.192 76.3239 106.688C76.6786 106.184 77.1639 105.703 77.7799 105.246C77.5653 104.966 77.3926 104.723 77.2619 104.518C77.1313 104.313 77.0146 104.07 76.9119 103.79C76.8093 103.51 76.7579 103.235 76.7579 102.964C76.7579 102.348 76.9679 101.821 77.3879 101.382C77.8079 100.943 78.3493 100.724 79.0119 100.724ZM78.9839 101.648C78.6199 101.648 78.3259 101.774 78.1019 102.026C77.8873 102.278 77.7799 102.577 77.7799 102.922C77.7799 103.239 77.8499 103.533 77.9899 103.804C78.1393 104.065 78.3586 104.378 78.6479 104.742C78.8813 104.574 79.0306 104.467 79.0959 104.42C79.1613 104.364 79.2873 104.257 79.4739 104.098C79.6606 103.939 79.7866 103.809 79.8519 103.706C79.9173 103.603 79.9826 103.473 80.0479 103.314C80.1226 103.146 80.1599 102.978 80.1599 102.81C80.1599 102.455 80.0526 102.175 79.8379 101.97C79.6326 101.755 79.3479 101.648 78.9839 101.648ZM81.0139 108.942L78.3679 105.988C77.8733 106.371 77.4906 106.744 77.2199 107.108C76.9586 107.472 76.8279 107.883 76.8279 108.34C76.8279 108.9 77.0006 109.357 77.3459 109.712C77.7006 110.057 78.1533 110.23 78.7039 110.23C79.0773 110.23 79.4739 110.123 79.8939 109.908C80.3139 109.693 80.6873 109.371 81.0139 108.942ZM89.7536 100.92L95.4936 100.934C95.6523 100.934 95.7316 101.013 95.7316 101.172V101.62C95.7316 101.788 95.6523 101.872 95.4936 101.872H90.6776V105.4H94.1636C94.3316 105.4 94.4156 105.484 94.4156 105.652V106.1C94.4156 106.259 94.3316 106.338 94.1636 106.338H90.6776V110.062H95.4936C95.6523 110.062 95.7316 110.141 95.7316 110.3V110.748C95.7316 110.916 95.6523 111 95.4936 111H89.7536C89.5856 111 89.5016 110.921 89.5016 110.762V101.158C89.5016 100.999 89.5856 100.92 89.7536 100.92ZM102.658 103.58H103.33C103.498 103.58 103.582 103.659 103.582 103.818V109.138C103.582 109.829 103.885 110.193 104.492 110.23C104.632 110.23 104.744 110.225 104.828 110.216C104.949 110.207 105.01 110.281 105.01 110.44L104.996 110.902C104.996 110.977 104.982 111.033 104.954 111.07C104.935 111.117 104.903 111.145 104.856 111.154C104.697 111.182 104.548 111.196 104.408 111.196C103.923 111.196 103.521 111.079 103.204 110.846C102.896 110.603 102.705 110.244 102.63 109.768C102.611 109.712 102.593 109.656 102.574 109.6C101.911 110.673 101.025 111.21 99.9139 111.21C98.9433 111.21 98.2433 110.921 97.8139 110.342C97.3846 109.754 97.1699 108.905 97.1699 107.794V103.818C97.1699 103.659 97.2539 103.58 97.4219 103.58H98.0939C98.2526 103.58 98.3319 103.659 98.3319 103.818V107.682C98.3319 108.513 98.4626 109.147 98.7239 109.586C98.9946 110.015 99.4519 110.23 100.096 110.23C100.675 110.23 101.16 110.043 101.552 109.67C101.944 109.287 102.233 108.816 102.42 108.256V103.818C102.42 103.659 102.499 103.58 102.658 103.58ZM109.729 103.37C110.093 103.37 110.424 103.435 110.723 103.566C110.872 103.603 110.924 103.701 110.877 103.86L110.779 104.308C110.742 104.457 110.653 104.513 110.513 104.476C110.289 104.373 110.032 104.322 109.743 104.322C109.342 104.322 108.964 104.429 108.609 104.644C108.264 104.859 107.979 105.125 107.755 105.442C107.54 105.75 107.372 106.067 107.251 106.394C107.13 106.711 107.069 106.996 107.069 107.248V110.762C107.069 110.921 106.985 111 106.817 111H106.145C105.986 111 105.907 110.921 105.907 110.762V103.818C105.907 103.659 105.986 103.58 106.145 103.58H106.691C106.84 103.58 106.929 103.65 106.957 103.79L106.999 105.316C107.307 104.681 107.694 104.201 108.161 103.874C108.637 103.538 109.16 103.37 109.729 103.37ZM115.191 103.37C116.292 103.37 117.184 103.739 117.865 104.476C118.546 105.213 118.887 106.151 118.887 107.29C118.887 108.419 118.546 109.353 117.865 110.09C117.184 110.827 116.292 111.196 115.191 111.196C114.09 111.196 113.198 110.827 112.517 110.09C111.836 109.353 111.495 108.419 111.495 107.29C111.495 106.151 111.836 105.213 112.517 104.476C113.198 103.739 114.09 103.37 115.191 103.37ZM117.011 105.176C116.535 104.616 115.928 104.336 115.191 104.336C114.454 104.336 113.847 104.616 113.371 105.176C112.904 105.727 112.671 106.427 112.671 107.276C112.671 107.836 112.774 108.34 112.979 108.788C113.194 109.236 113.492 109.586 113.875 109.838C114.267 110.09 114.706 110.216 115.191 110.216C115.928 110.216 116.535 109.941 117.011 109.39C117.487 108.83 117.725 108.125 117.725 107.276C117.725 106.427 117.487 105.727 117.011 105.176ZM124.399 103.37C124.828 103.37 125.234 103.449 125.617 103.608C126.009 103.767 126.359 104 126.667 104.308C126.975 104.607 127.217 105.003 127.395 105.498C127.572 105.983 127.661 106.534 127.661 107.15C127.661 108.307 127.357 109.273 126.751 110.048C126.144 110.813 125.332 111.196 124.315 111.196C123.792 111.196 123.297 111.084 122.831 110.86C122.373 110.636 122.023 110.314 121.781 109.894V114.906C121.781 115.065 121.701 115.144 121.543 115.144H120.871C120.703 115.144 120.619 115.065 120.619 114.906V103.818C120.619 103.659 120.703 103.58 120.871 103.58H121.459C121.608 103.58 121.697 103.65 121.725 103.79L121.753 104.812C122.023 104.373 122.401 104.023 122.887 103.762C123.372 103.501 123.876 103.37 124.399 103.37ZM124.217 104.364C123.657 104.364 123.143 104.56 122.677 104.952C122.21 105.335 121.907 105.843 121.767 106.478V108.382C121.944 109.007 122.257 109.474 122.705 109.782C123.153 110.081 123.629 110.23 124.133 110.23C124.87 110.23 125.444 109.941 125.855 109.362C126.275 108.783 126.485 108.06 126.485 107.192C126.485 106.744 126.419 106.338 126.289 105.974C126.167 105.601 125.999 105.302 125.785 105.078C125.579 104.845 125.341 104.667 125.071 104.546C124.8 104.425 124.515 104.364 124.217 104.364ZM132.771 103.37C133.77 103.37 134.563 103.65 135.151 104.21C135.739 104.77 136.038 105.549 136.047 106.548C136.047 106.819 136.024 107.113 135.977 107.43C135.949 107.57 135.86 107.64 135.711 107.64H130.279C130.316 107.976 130.391 108.293 130.503 108.592C130.615 108.881 130.769 109.152 130.965 109.404C131.17 109.647 131.432 109.838 131.749 109.978C132.066 110.118 132.43 110.188 132.841 110.188C133.737 110.188 134.465 109.889 135.025 109.292C135.156 109.208 135.268 109.227 135.361 109.348L135.599 109.726C135.692 109.857 135.683 109.969 135.571 110.062C134.862 110.818 133.928 111.196 132.771 111.196C132.043 111.196 131.404 111.042 130.853 110.734C130.302 110.426 129.873 109.978 129.565 109.39C129.257 108.802 129.098 108.102 129.089 107.29C129.089 106.767 129.164 106.273 129.313 105.806C129.472 105.339 129.7 104.924 129.999 104.56C130.307 104.196 130.699 103.907 131.175 103.692C131.651 103.477 132.183 103.37 132.771 103.37ZM132.757 104.322C132.066 104.322 131.497 104.56 131.049 105.036C130.601 105.503 130.349 106.086 130.293 106.786H134.955C134.992 106.291 134.936 105.862 134.787 105.498C134.647 105.134 134.404 104.849 134.059 104.644C133.714 104.429 133.28 104.322 132.757 104.322Z" fill="#7E222F"/>
</g>
<defs>
<filter id="filter0_b_825_484" x="-14.3599" y="-15" width="197" height="159" filterUnits="userSpaceOnUse" color-interpolation-filters="sRGB">
<feFlood flood-opacity="0" result="BackgroundImageFix"/>
<feGaussianBlur in="BackgroundImageFix" stdDeviation="7.5"/>
<feComposite in2="SourceAlpha" operator="in" result="effect1_backgroundBlur_825_484"/>
<feBlend mode="normal" in="SourceGraphic" in2="effect1_backgroundBlur_825_484" result="shape"/>
</filter>
<linearGradient id="paint0_linear_825_484" x1="84.1401" y1="0" x2="84.1401" y2="129" gradientUnits="userSpaceOnUse">
<stop stop-color="white" stop-opacity="0.8"/>
<stop offset="1" stop-color="white" stop-opacity="0.25"/>
</linearGradient>
<clipPath id="clip0_825_484">
<rect width="55" height="55" fill="white" transform="translate(40.1401 12)"/>
</clipPath>
<clipPath id="clip1_825_484">
<rect width="55" height="55" fill="white" transform="translate(73.1401 12)"/>
</clipPath>
</defs>
</svg>
