<svg width="94" height="41" viewBox="0 0 94 41" fill="none" xmlns="http://www.w3.org/2000/svg">
<path d="M0.1875 0.914062H13.8594C14.862 1.00521 15.6458 1.16927 16.2109 1.40625C16.6302 1.58854 17.013 1.77083 17.3594 1.95312C19.9844 3.46615 22.026 6.25521 23.4844 10.3203C23.7396 10.9766 23.9948 11.8424 24.25 12.918C24.4505 13.5924 24.6602 14.7865 24.8789 16.5C25.0065 17.4297 25.0977 18.5964 25.1523 20V21.8594C25.0977 23.1901 25.0065 24.4023 24.8789 25.4961C24.6602 27.1003 24.4232 28.3672 24.168 29.2969C23.7305 30.9375 23.2565 32.3138 22.7461 33.4258C22.3086 34.4102 21.7253 35.4492 20.9961 36.543L20.2852 37.4453C20.1576 37.6276 19.7839 38.0195 19.1641 38.6211C18.4167 39.2773 17.7969 39.724 17.3047 39.9609C16.9219 40.1979 16.4023 40.4258 15.7461 40.6445C14.944 40.8633 14.3607 40.9727 13.9961 40.9727C13.9961 40.9909 13.9505 41 13.8594 41H0.1875C0.1875 40.9818 0.315104 40.9453 0.570312 40.8906C0.588542 40.8724 0.716146 40.8086 0.953125 40.6992C1.26302 40.5534 1.60938 40.2891 1.99219 39.9062C2.375 39.4141 2.60286 38.931 2.67578 38.457C2.73047 38.2018 2.75781 38.0378 2.75781 37.9648V3.94922C2.75781 3.58464 2.63021 3.11979 2.375 2.55469C2.19271 2.26302 2.02865 2.04427 1.88281 1.89844C1.5 1.51562 1.08984 1.24219 0.652344 1.07812C0.360677 0.986979 0.205729 0.941406 0.1875 0.941406V0.914062ZM7.84375 1.84375V40.1523L7.87109 40.1797C7.88932 40.1797 7.90755 40.1797 7.92578 40.1797C8.50911 40.1797 9.52083 40.1797 10.9609 40.1797C11.9271 40.1797 12.6745 40.0521 13.2031 39.7969C14.6615 39.1406 15.9831 37.7188 17.168 35.5312C17.5143 34.8568 17.8516 34.0911 18.1797 33.2344C19.5286 29.6068 20.2031 25.4961 20.2031 20.9023C20.2031 16.6914 19.6198 12.8451 18.4531 9.36328C17.9062 7.8138 17.3229 6.53776 16.7031 5.53516C16.375 4.93359 15.8008 4.1862 14.9805 3.29297C14.3242 2.72786 13.7773 2.34505 13.3398 2.14453C12.957 1.94401 12.4557 1.80729 11.8359 1.73438C11.7266 1.71615 11.6354 1.70703 11.5625 1.70703H8.9375C8.20833 1.72526 7.84375 1.77083 7.84375 1.84375ZM28.9805 35.9141H29.5547C29.9922 35.987 30.3385 36.1055 30.5938 36.2695C30.7578 36.3424 31.0039 36.5612 31.332 36.9258C31.6419 37.418 31.7969 37.819 31.7969 38.1289C31.8151 38.1289 31.8242 38.1562 31.8242 38.2109V38.7031C31.7695 39.0312 31.6875 39.3229 31.5781 39.5781C31.4688 39.8151 31.2318 40.1068 30.8672 40.4531C30.4479 40.763 30.0286 40.9362 29.6094 40.9727C29.6094 40.9909 29.582 41 29.5273 41H29.0078C28.4245 40.8906 27.987 40.7083 27.6953 40.4531C27.2396 40.0703 26.9844 39.7148 26.9297 39.3867C26.8568 39.2773 26.793 39.0495 26.7383 38.7031V38.2109C26.7747 37.8828 26.8568 37.5911 26.9844 37.3359C27.0938 37.0625 27.3034 36.7891 27.6133 36.5156C27.8867 36.2422 28.3424 36.0417 28.9805 35.9141ZM32.8906 0.914062H43.3086C43.3086 0.932292 43.2083 0.959635 43.0078 0.996094C42.6979 1.10547 42.3424 1.34245 41.9414 1.70703C41.7773 1.90755 41.6497 2.10807 41.5586 2.30859C41.431 2.67318 41.3672 2.96484 41.3672 3.18359V3.64844C41.3672 3.6849 42.3607 7.53125 44.3477 15.1875L48.9961 33.0977C49.0872 33.4258 49.1328 33.6081 49.1328 33.6445H49.1602V33.5898C52.332 21.8503 53.918 15.9622 53.918 15.9258C54.4831 13.9023 55.3125 10.8216 56.4062 6.68359C56.8984 4.95182 57.1445 4.04036 57.1445 3.94922C57.1628 3.82161 57.1719 3.73047 57.1719 3.67578V3.10156C57.1719 2.9375 57.1081 2.67318 56.9805 2.30859C56.8529 2.03516 56.6523 1.77083 56.3789 1.51562C55.9779 1.20573 55.6406 1.03255 55.3672 0.996094L55.2578 0.914062H60.9727C60.9544 0.932292 60.8086 0.977865 60.5352 1.05078C60.043 1.21484 59.569 1.46094 59.1133 1.78906C58.7122 2.13542 58.457 2.39062 58.3477 2.55469C57.8555 3.15625 57.5182 3.8763 57.3359 4.71484C57.2266 5.11589 55.6315 11.0586 52.5508 22.543L50.582 29.8711C49.6341 33.2799 48.7682 36.5247 47.9844 39.6055L47.6289 41H45.9062C43.4818 31.7031 41.6589 24.6758 40.4375 19.918C39.7995 17.4935 38.4141 12.1432 36.2812 3.86719C36.1354 3.46615 35.8984 3.04688 35.5703 2.60938C35.1875 2.17188 34.832 1.83464 34.5039 1.59766C34.0664 1.34245 33.6198 1.14193 33.1641 0.996094C32.9818 0.959635 32.8906 0.932292 32.8906 0.914062ZM64.418 35.9141H64.9922C65.4297 35.987 65.776 36.1055 66.0312 36.2695C66.1953 36.3424 66.4414 36.5612 66.7695 36.9258C67.0794 37.418 67.2344 37.819 67.2344 38.1289C67.2526 38.1289 67.2617 38.1562 67.2617 38.2109V38.7031C67.207 39.0312 67.125 39.3229 67.0156 39.5781C66.9062 39.8151 66.6693 40.1068 66.3047 40.4531C65.8854 40.763 65.4661 40.9362 65.0469 40.9727C65.0469 40.9909 65.0195 41 64.9648 41H64.4453C63.862 40.8906 63.4245 40.7083 63.1328 40.4531C62.6771 40.0703 62.4219 39.7148 62.3672 39.3867C62.2943 39.2773 62.2305 39.0495 62.1758 38.7031V38.2109C62.2122 37.8828 62.2943 37.5911 62.4219 37.3359C62.5312 37.0625 62.7409 36.7891 63.0508 36.5156C63.3242 36.2422 63.7799 36.0417 64.418 35.9141ZM68.3281 0.914062H74.9453C74.9818 0.932292 75.0729 1.1237 75.2188 1.48828C79.5755 11.569 81.9089 16.9831 82.2188 17.7305C82.2552 17.8216 83.6406 21.0391 86.375 27.3828C89 33.4714 90.3672 36.6523 90.4766 36.9258C90.6771 37.3451 90.7773 37.582 90.7773 37.6367H90.832V3.94922C90.7773 3.49349 90.6862 3.11068 90.5586 2.80078C90.4492 2.54557 90.2852 2.28125 90.0664 2.00781C89.7383 1.67969 89.4831 1.47005 89.3008 1.37891C89.0273 1.19661 88.7266 1.0599 88.3984 0.96875C88.2891 0.950521 88.2344 0.932292 88.2344 0.914062H93.7852C93.7852 0.932292 93.6576 0.96875 93.4023 1.02344C93.0742 1.15104 92.7188 1.36068 92.3359 1.65234C91.8438 2.08984 91.5065 2.63672 91.3242 3.29297C91.2695 3.54818 91.2331 3.80339 91.2148 4.05859V41H87.168C87.1315 40.9818 87.0404 40.7904 86.8945 40.4258L79.9492 24.293L72.457 6.875C71.7096 5.17969 71.3359 4.30469 71.3359 4.25H71.3086V37.9102C71.3086 38.1836 71.3906 38.5664 71.5547 39.0586C71.6823 39.4232 71.9375 39.7969 72.3203 40.1797C72.3568 40.1797 72.4388 40.2435 72.5664 40.3711C73.1133 40.7357 73.5508 40.9362 73.8789 40.9727V41H68.3281C68.3281 40.9818 68.4648 40.9453 68.7383 40.8906C68.7383 40.8542 68.8112 40.8177 68.957 40.7812C69.194 40.6719 69.4674 40.4987 69.7773 40.2617C70.2695 39.8242 70.6068 39.2773 70.7891 38.6211C70.8438 38.3659 70.8893 38.1107 70.9258 37.8555V4.05859C70.8529 3.40234 70.7253 2.92839 70.543 2.63672C70.4154 2.34505 70.2331 2.08073 69.9961 1.84375C69.6497 1.4974 69.276 1.2513 68.875 1.10547C68.6198 0.996094 68.4375 0.941406 68.3281 0.941406V0.914062Z" fill="white"/>
</svg>
