<svg width="88" height="45" viewBox="0 0 88 45" fill="none" xmlns="http://www.w3.org/2000/svg">
<path d="M0 0.046875H15.3251C16.4487 0.14951 17.3274 0.333174 17.9612 0.597865C18.4312 0.803136 18.8597 1.00661 19.2487 1.21188C22.1909 2.90806 24.4795 6.03395 26.1144 10.5913C26.4007 11.326 26.6852 12.2983 26.9733 13.5029C27.1984 14.2592 27.4325 15.5989 27.6792 17.5183C27.8214 18.5609 27.9241 19.8681 27.9853 21.4419V23.527C27.9241 25.0179 27.8214 26.3774 27.6792 27.6036C27.4343 29.4024 27.1678 30.8213 26.8815 31.8639C26.3917 33.7023 25.8587 35.2454 25.2879 36.4933C24.7982 37.5971 24.1427 38.7621 23.3271 39.9883L22.5294 41.0002C22.3853 41.2055 21.9676 41.6449 21.2726 42.3183C20.4353 43.0547 19.7402 43.5553 19.1874 43.82C18.7589 44.0865 18.1755 44.3422 17.4408 44.5871C16.5405 44.832 15.8869 44.9544 15.4782 44.9544C15.4782 44.9742 15.4259 44.985 15.3251 44.985H0C0 44.9652 0.142249 44.9238 0.428548 44.8626C0.448355 44.8428 0.592405 44.7707 0.857096 44.6483C1.20462 44.4844 1.59355 44.1891 2.0221 43.7588C2.45065 43.206 2.70634 42.6658 2.78916 42.1346C2.85039 41.8483 2.881 41.6647 2.881 41.5836V3.44825C2.881 3.03951 2.73875 2.51913 2.45245 1.88531C2.24718 1.5594 2.06351 1.31271 1.90146 1.14886C1.47111 0.720308 1.01195 0.414202 0.52038 0.230538C0.194467 0.127903 0.0198068 0.0774856 0 0.0774856V0.046875ZM8.58177 1.08763V44.0307L8.61238 44.0613H12.0768C13.1589 44.0613 13.998 43.919 14.5904 43.6327C16.2254 42.8963 17.7055 41.3027 19.0344 38.8503C19.4215 38.094 19.8014 37.2369 20.1688 36.2754C21.6813 32.2096 22.4376 27.6018 22.4376 22.452C22.4376 17.7308 21.7839 13.4201 20.4749 9.51635C19.8627 7.77875 19.2072 6.34905 18.514 5.22547C18.1467 4.55023 17.5021 3.71294 16.5837 2.7118C15.8473 2.07798 15.2351 1.64943 14.7453 1.42435C14.3167 1.19927 13.7532 1.04622 13.0599 0.965193C12.9375 0.945386 12.8348 0.934582 12.7538 0.934582H9.81159C8.99411 0.954389 8.58537 1.00661 8.58537 1.08763" fill="#E74058"/>
<path d="M27.1048 0H38.7836C38.7836 0.0216075 38.672 0.052218 38.4469 0.0918317C38.0994 0.214274 37.7015 0.480766 37.2513 0.889508C37.0676 1.11459 36.9236 1.33966 36.8228 1.56294C36.6805 1.97168 36.6085 2.29939 36.6085 2.54428V3.06466C36.6085 3.10607 37.7213 7.41676 39.9486 16.0003L45.1596 36.0773C45.2623 36.4446 45.3127 36.6499 45.3127 36.6895H45.3433V36.6283C48.8995 23.4693 50.6767 16.8682 50.6767 16.8268C51.3106 14.558 52.2397 11.1062 53.4659 6.46604C54.0169 4.52496 54.2942 3.50401 54.2942 3.40138C54.314 3.25913 54.3248 3.15649 54.3248 3.09527V2.45245C54.3248 2.26878 54.2528 1.97168 54.1105 1.56294C53.9683 1.25683 53.7432 0.959732 53.4371 0.673433C52.9869 0.325913 52.6088 0.131445 52.3027 0.0918317L52.1803 0H58.5869C58.5671 0.0216075 58.4032 0.0720249 58.0971 0.153053C57.5461 0.336716 57.0131 0.612212 56.5036 0.981339C56.0534 1.37027 55.7671 1.65477 55.6447 1.84024C55.0937 2.51547 54.7137 3.32215 54.5103 4.26207C54.3878 4.71223 52.5998 11.3727 49.1462 24.2472L46.9387 32.4616C45.8763 36.2825 44.9058 39.9216 44.027 43.3734L43.6291 44.9363H41.6988C38.9799 34.5143 36.938 26.6366 35.5677 21.3032C34.8529 18.586 33.2989 12.5882 30.9077 3.31134C30.7439 2.86299 30.4792 2.39123 30.1118 1.90146C29.6833 1.41169 29.2836 1.03356 28.9162 0.767065C28.4265 0.480766 27.9241 0.255688 27.4145 0.0936324C27.2092 0.052218 27.1084 0.0216075 27.1084 0.00180062" fill="#E74058"/>
<path d="M59.4637 0H66.8805C66.9219 0.0216075 67.0228 0.235882 67.1866 0.644623C72.0699 11.9453 74.6862 18.0134 75.0337 18.8507C75.0751 18.9534 76.6273 22.56 79.6937 29.6707C82.636 36.4968 84.1683 40.062 84.2907 40.3682C84.5158 40.8381 84.6274 41.1046 84.6274 41.1658H84.6887V3.40318C84.6274 2.8918 84.5248 2.46325 84.3826 2.11573C84.2601 1.82943 84.0765 1.53413 83.8316 1.22622C83.4642 0.858897 83.1779 0.623015 82.9727 0.522181C82.6666 0.31871 82.3281 0.165657 81.9607 0.0630218C81.8383 0.0432149 81.7771 0.0234081 81.7771 0.00180062H88C88 0.0234081 87.8578 0.0630218 87.5715 0.124243C87.2041 0.266492 86.8044 0.502374 86.3759 0.830087C85.8249 1.31986 85.4449 1.93387 85.2415 2.66852C85.1802 2.95482 85.1388 3.24112 85.119 3.52742V44.9381H80.5832C80.5418 44.9183 80.4392 44.7041 80.2771 44.2935L72.4913 26.2099L64.0931 6.68571C63.2559 4.78605 62.8363 3.80472 62.8363 3.74349H62.8057V41.4755C62.8057 41.7816 62.8975 42.212 63.0812 42.763C63.2234 43.1717 63.5097 43.5913 63.9401 44.0198C63.9815 44.0198 64.0733 44.0918 64.2156 44.2341C64.8278 44.6428 65.3194 44.8679 65.6867 44.9075V44.9381H59.4637C59.4637 44.9183 59.6168 44.8769 59.9229 44.8157C59.9229 44.7743 60.0039 44.7347 60.1678 44.6933C60.4325 44.5708 60.7404 44.3763 61.0879 44.1116C61.6389 43.6201 62.017 43.0079 62.2223 42.2732C62.2835 41.9869 62.3339 41.7006 62.3754 41.4143V3.52562C62.2943 2.78916 62.1503 2.25978 61.9468 1.93207C61.8028 1.60616 61.5993 1.30905 61.3346 1.04256C60.9457 0.655427 60.5279 0.378131 60.0778 0.214274C59.7915 0.0918318 59.588 0.0306106 59.4655 0.0306106V0L59.4637 0Z" fill="#E74058"/>
<path d="M31.4857 21.7754H31.7072C31.8746 21.8042 32.0079 21.8492 32.1069 21.9122C32.1699 21.941 32.2654 22.0239 32.3914 22.1643C32.5103 22.3534 32.5697 22.5082 32.5697 22.6271C32.5769 22.6271 32.5805 22.6379 32.5805 22.6595V22.8486C32.5589 22.9746 32.5283 23.088 32.485 23.1853C32.4436 23.2771 32.3518 23.3887 32.2113 23.522C32.0493 23.6408 31.889 23.7075 31.727 23.7219C31.727 23.7291 31.7162 23.7327 31.6946 23.7327H31.4947C31.2696 23.6913 31.1022 23.621 30.9905 23.522C30.8159 23.3743 30.7168 23.2375 30.6952 23.1115C30.6664 23.07 30.643 22.9818 30.6214 22.8486V22.6595C30.6358 22.5335 30.6664 22.4218 30.715 22.3228C30.7564 22.2183 30.8375 22.1121 30.9581 22.0077C31.0626 21.9032 31.239 21.8258 31.4839 21.7754" fill="#E74058"/>
<path d="M55.9309 21.7266H56.1524C56.3199 21.7554 56.4531 21.8004 56.5522 21.8634C56.6152 21.8922 56.7106 21.975 56.8367 22.1155C56.9555 22.3046 57.0149 22.4594 57.0149 22.5783C57.0221 22.5783 57.0257 22.5891 57.0257 22.6107V22.7997C57.0041 22.9258 56.9735 23.0374 56.9303 23.1365C56.8889 23.2283 56.797 23.3399 56.6566 23.4732C56.4945 23.592 56.3343 23.6586 56.1722 23.673C56.1722 23.6802 56.1614 23.6838 56.1398 23.6838H55.94C55.7149 23.6424 55.5474 23.5722 55.4358 23.4732C55.2611 23.3255 55.1621 23.1887 55.1405 23.0626C55.1117 23.0212 55.0883 22.933 55.0667 22.7997V22.6107C55.0811 22.4846 55.1117 22.373 55.1621 22.274C55.2035 22.1695 55.2845 22.0633 55.4034 21.9588C55.5096 21.8544 55.6843 21.777 55.9291 21.7266" fill="#E74058"/>
</svg>
