<svg width="296" height="150" viewBox="0 0 296 150" fill="none" xmlns="http://www.w3.org/2000/svg">
<path d="M0.164551 0.155273H51.6597C55.4352 0.495837 58.3878 1.10527 60.5175 1.98356C62.0967 2.66469 63.5367 3.33984 64.8436 4.02096C74.73 9.64922 82.42 20.0215 87.9138 35.1437C88.8758 37.5814 89.8318 40.8078 90.7999 44.8049C91.5562 47.3143 92.3427 51.7595 93.1716 58.1287C93.6496 61.5881 93.9945 65.9258 94.2002 71.1478V78.0666C93.9945 83.0137 93.6496 87.5247 93.1716 91.5935C92.3488 97.5623 91.4533 102.27 90.4913 105.73C88.8456 111.83 87.0547 116.951 85.1367 121.091C83.491 124.754 81.2886 128.619 78.5478 132.688L75.8674 136.046C75.3834 136.727 73.9797 138.185 71.6442 140.419C68.8308 142.863 66.4953 144.524 64.6378 145.402C63.1978 146.287 61.2375 147.135 58.7689 147.948C55.7437 148.76 53.5474 149.167 52.174 149.167C52.174 149.232 51.9985 149.268 51.6597 149.268H0.164551C0.164551 149.202 0.642534 149.065 1.60455 148.862C1.67111 148.796 2.15514 148.557 3.04455 148.151C4.21228 147.607 5.51917 146.627 6.95917 145.199C8.39918 143.365 9.25834 141.573 9.53665 139.81C9.74237 138.86 9.84523 138.251 9.84523 137.982V11.4417C9.84523 10.0854 9.36724 8.35866 8.40523 6.25554C7.71548 5.1741 7.09833 4.35555 6.5538 3.81185C5.10775 2.38985 3.56489 1.37413 1.91312 0.764702C0.817997 0.424139 0.231105 0.256845 0.164551 0.256845V0.155273ZM29.0009 3.6087V146.102L29.1037 146.203H40.7447C44.381 146.203 47.2005 145.731 49.1911 144.781C54.6849 142.337 59.6584 137.05 64.1236 128.912C65.4244 126.403 66.701 123.559 67.9353 120.368C73.0177 106.877 75.5589 91.5875 75.5589 74.4996C75.5589 58.8337 73.3626 44.5301 68.9639 31.5767C66.9068 25.811 64.7044 21.067 62.375 17.3388C61.1407 15.0982 58.9747 12.3199 55.8889 8.99796C53.4143 6.89484 51.3572 5.47284 49.7115 4.72599C48.2715 3.97914 46.3777 3.47128 44.0483 3.20242C43.6368 3.13669 43.292 3.10085 43.0197 3.10085H33.1333C30.3864 3.16657 29.013 3.33984 29.013 3.6087" fill="white"/>
<path d="M91.2415 0H130.484C130.484 0.0716975 130.109 0.173269 129.353 0.304714C128.185 0.711 126.848 1.59527 125.336 2.95155C124.718 3.6984 124.234 4.44525 123.896 5.18612C123.418 6.5424 123.176 7.62981 123.176 8.44238V10.1691C123.176 10.3065 126.915 24.6102 134.399 53.092L151.909 119.711C152.254 120.93 152.423 121.611 152.423 121.742H152.526V121.539C164.476 77.8754 170.448 55.9718 170.448 55.8344C172.577 48.3062 175.699 36.8525 179.82 21.4555C181.671 15.0147 182.603 11.6269 182.603 11.2864C182.669 10.8144 182.706 10.4738 182.706 10.2707V8.13767C182.706 7.52824 182.464 6.5424 181.986 5.18612C181.508 4.1704 180.751 3.18456 179.723 2.23457C178.21 1.08144 176.94 0.43616 175.911 0.304714L175.5 0H197.027C196.96 0.0716975 196.41 0.238992 195.381 0.507857C193.53 1.11729 191.739 2.03143 190.027 3.25626C188.514 4.54682 187.552 5.49083 187.141 6.10624C185.289 8.34678 184.013 11.0235 183.329 14.1423C182.917 15.636 176.909 37.7368 165.305 80.4565L157.887 107.714C154.317 120.392 151.056 132.467 148.103 143.921L146.766 149.107H140.28C131.144 114.525 124.283 88.3851 119.678 70.6878C117.276 61.6718 112.055 41.7698 104.02 10.9876C103.469 9.49992 102.58 7.93452 101.346 6.30938C99.9057 4.68424 98.5625 3.42953 97.3282 2.54526C95.6825 1.59527 93.9944 0.84842 92.2821 0.310689C91.5924 0.173269 91.2536 0.0716975 91.2536 0.00597479" fill="white"/>
<path d="M199.974 0H224.895C225.034 0.0716975 225.373 0.782698 225.924 2.13898C242.333 39.6368 251.124 59.7718 252.292 62.5501C252.431 62.8907 257.646 74.8582 267.95 98.4526C277.837 121.103 282.985 132.933 283.397 133.949C284.153 135.508 284.528 136.393 284.528 136.596H284.734V11.2924C284.528 9.59552 284.183 8.17352 283.705 7.02038C283.294 6.07039 282.677 5.09052 281.854 4.06883C280.62 2.84998 279.658 2.06728 278.968 1.73269C277.939 1.05754 276.802 0.549681 275.568 0.209118C275.156 0.143395 274.95 0.0776723 274.95 0.00597479H295.861C295.861 0.0776723 295.383 0.209118 294.421 0.412261C293.186 0.884269 291.843 1.66697 290.403 2.75438C288.552 4.37952 287.275 6.41693 286.591 8.85464C286.386 9.80463 286.247 10.7546 286.18 11.7046V149.113H270.939C270.8 149.047 270.455 148.336 269.91 146.974L243.748 86.9691L215.529 22.1844C212.716 15.881 211.306 12.6247 211.306 12.4216H211.203V137.623C211.203 138.639 211.512 140.067 212.129 141.895C212.607 143.252 213.569 144.644 215.015 146.066C215.154 146.066 215.463 146.305 215.941 146.777C217.998 148.133 219.65 148.88 220.884 149.011V149.113H199.974C199.974 149.047 200.488 148.91 201.517 148.707C201.517 148.569 201.789 148.438 202.339 148.3C203.229 147.894 204.263 147.249 205.431 146.37C207.283 144.739 208.553 142.708 209.243 140.27C209.449 139.32 209.618 138.37 209.757 137.42V11.6986C209.485 9.25495 209.001 7.49836 208.317 6.41095C207.833 5.32951 207.149 4.34367 206.26 3.4594C204.953 2.17482 203.549 1.25471 202.037 0.711C201.075 0.304714 200.391 0.101571 199.98 0.101571V0L199.974 0Z" fill="white"/>
<path d="M105.962 72.2532H106.706C107.269 72.3488 107.717 72.4981 108.049 72.7073C108.261 72.8029 108.582 73.0777 109.005 73.5437C109.405 74.1711 109.604 74.6849 109.604 75.0793C109.629 75.0793 109.641 75.1151 109.641 75.1868V75.8141C109.568 76.2324 109.465 76.6088 109.32 76.9314C109.181 77.2361 108.872 77.6066 108.4 78.0487C107.856 78.4431 107.317 78.6641 106.773 78.7119C106.773 78.7358 106.737 78.7478 106.664 78.7478H105.992C105.236 78.6104 104.673 78.3773 104.298 78.0487C103.711 77.5588 103.379 77.1047 103.306 76.6865C103.209 76.5491 103.13 76.2563 103.058 75.8141V75.1868C103.106 74.7686 103.209 74.3981 103.372 74.0695C103.512 73.723 103.784 73.3705 104.189 73.0239C104.54 72.6774 105.133 72.4205 105.956 72.2532" fill="white"/>
<path d="M188.103 72.0918H188.847C189.41 72.1874 189.858 72.3368 190.19 72.5459C190.402 72.6415 190.723 72.9163 191.146 73.3823C191.546 74.0097 191.745 74.5235 191.745 74.9179C191.769 74.9179 191.782 74.9537 191.782 75.0254V75.6528C191.709 76.071 191.606 76.4414 191.461 76.7701C191.322 77.0748 191.013 77.4452 190.541 77.8873C189.997 78.2817 189.458 78.5027 188.914 78.5505C188.914 78.5744 188.877 78.5864 188.805 78.5864H188.133C187.377 78.449 186.814 78.216 186.439 77.8873C185.852 77.3974 185.519 76.9433 185.447 76.5251C185.35 76.3877 185.271 76.0949 185.199 75.6528V75.0254C185.247 74.6072 185.35 74.2367 185.519 73.9081C185.659 73.5616 185.931 73.2091 186.33 72.8625C186.687 72.516 187.274 72.2591 188.097 72.0918" fill="white"/>
</svg>
