<svg width="16" height="27" viewBox="0 0 16 27" fill="none" xmlns="http://www.w3.org/2000/svg">
<path d="M4.49218 26.8789V14.9047C4.49218 14.6146 4.49218 14.6146 4.19953 14.6146H0.103271V9.85217C0.186175 9.8476 0.269079 9.83931 0.347422 9.8389C1.63989 9.8389 2.93235 9.8389 4.22482 9.8389C4.49177 9.8389 4.49177 9.8389 4.49218 9.56366C4.49218 8.38229 4.48182 7.20091 4.50047 6.01953C4.51913 4.79463 4.80266 3.63481 5.48537 2.60059C6.42757 1.17258 7.81081 0.441785 9.45396 0.134212C10.455 -0.0535641 11.4652 -0.00921074 12.4729 0.0214636C13.253 0.0455056 14.0319 0.11473 14.8116 0.155767C14.9728 0.164058 15.0189 0.224163 15.0189 0.382923C15.0131 1.66793 15.0131 2.95293 15.0189 4.23794C15.0189 4.41079 14.9675 4.45929 14.7963 4.45929C13.7803 4.45929 12.7651 4.46634 11.7491 4.48913C11.5112 4.49452 11.2691 4.55463 11.0387 4.62261C10.3904 4.81246 9.99035 5.24895 9.86102 5.91135C9.8079 6.18944 9.78015 6.47178 9.77811 6.75489C9.76858 7.70828 9.77811 8.66167 9.77024 9.61506C9.76817 9.80698 9.83656 9.84263 10.0098 9.8418C11.5166 9.836 13.0234 9.83849 14.5281 9.83849H14.8236C14.7938 10.0764 14.7685 10.292 14.7407 10.5067C14.5654 11.7917 14.3846 13.0796 14.2176 14.3675C14.1931 14.5574 14.1347 14.6191 13.9378 14.6162C12.6942 14.6075 11.4507 14.6121 10.2051 14.6121C9.77355 14.6121 9.77355 14.6121 9.77355 15.0328V26.58C9.77355 26.8789 9.77355 26.8789 9.47179 26.8789H4.49218Z" fill="#C83244"/>
</svg>
