<svg width="93" height="128" viewBox="0 0 93 128" fill="none" xmlns="http://www.w3.org/2000/svg">
<g filter="url(#filter0_b_825_552)">
<rect width="93" height="128" rx="12" fill="url(#paint0_linear_825_552)"/>
<rect x="1" y="1" width="91" height="126" rx="11" stroke="white" stroke-width="2"/>
<path d="M54.1612 23.3977V64.3386H56.7866V33.4888C56.7866 33.4888 63.4512 44.0355 64.3603 49.6134C64.3603 49.6134 65.2689 54.968 61.6341 59.0954C61.0179 59.7949 60.2956 60.4539 59.8456 61.318C59.3791 62.2145 59.2825 63.3249 59.3117 64.3386V68.7451C59.3117 68.7451 59.5643 70.6417 58.1505 70.6417H51.0316V17.9318L49.9209 16.0908L48.2544 18.7684V70.4747L34.5776 70.6376C34.1865 70.6423 33.8049 70.4494 33.5847 70.0924C33.4828 69.9271 33.4101 69.7213 33.4101 69.4703V68.1184H30.6838V69.3326C30.8606 72.5659 32.7302 73.5093 33.9912 73.5978C36.364 73.7649 59.0092 73.5978 59.0092 73.5978C59.0092 73.5978 61.8872 73.3187 61.9376 70.1956L61.9843 63.6737C61.9865 63.356 62.1011 63.0529 62.3049 62.8283C63.0463 62.011 64.8979 59.8353 65.7746 57.5899C66.8854 54.7452 68.4 51.6309 65.8755 44.8815C63.3509 38.1322 57.8623 29.2611 54.1617 23.3977H54.1612Z" fill="#670076"/>
<path d="M44.4164 25.1826L41.6902 29.8119V64.3946H44.4164V25.1826Z" fill="#670076"/>
<path d="M47.9004 13.0231L47.0609 12.3459C46.3126 11.7421 45.2591 11.9502 44.7464 12.8032L35.9335 27.4692V61.0475H32.7021C32.7021 61.0475 28.0568 57.8681 28.259 50.5612C28.259 50.5612 29.1172 43.7005 33.4594 37.7878V32.0428C33.4594 32.0428 26.4419 43.0315 25.8862 48.7209C25.3502 54.212 26.2248 59.0793 31.5064 63.8746C31.8779 64.2123 32.3465 64.3946 32.8278 64.3946H38.6099L38.6603 28.3064L47.9004 13.0231Z" fill="#670076"/>
<path d="M17.6581 92.4719L20.4481 92.4819C20.9148 92.4819 21.3148 92.6419 21.6481 92.9619C21.9881 93.2752 22.1581 93.7185 22.1581 94.2919C22.1581 94.6585 22.0814 94.9719 21.9281 95.2319C21.7748 95.4919 21.5648 95.6885 21.2981 95.8219C21.7381 95.9152 22.0714 96.1252 22.2981 96.4519C22.5314 96.7785 22.6481 97.1785 22.6481 97.6519C22.6481 97.9585 22.5848 98.2452 22.4581 98.5119C22.3314 98.7719 22.1714 98.9852 21.9781 99.1519C21.7848 99.3119 21.5781 99.4385 21.3581 99.5319C21.1448 99.6252 20.9414 99.6719 20.7481 99.6719H17.6581C17.5381 99.6719 17.4781 99.6152 17.4781 99.5019V92.6419C17.4781 92.5285 17.5381 92.4719 17.6581 92.4719ZM20.2181 93.1519H18.3181V95.6419H20.1181C20.1914 95.6419 20.2681 95.6352 20.3481 95.6219C20.4281 95.6019 20.5248 95.5652 20.6381 95.5119C20.7581 95.4585 20.8648 95.3919 20.9581 95.3119C21.0514 95.2252 21.1314 95.1052 21.1981 94.9519C21.2648 94.7919 21.2981 94.6085 21.2981 94.4019C21.2981 94.1152 21.2414 93.8752 21.1281 93.6819C21.0148 93.4819 20.8814 93.3452 20.7281 93.2719C20.5748 93.1919 20.4048 93.1519 20.2181 93.1519ZM20.5481 96.3119H18.3181V99.0019H20.4981C20.7914 99.0019 21.0781 98.8752 21.3581 98.6219C21.6448 98.3619 21.7881 98.0152 21.7881 97.5819C21.7881 97.3285 21.7481 97.1152 21.6681 96.9419C21.5881 96.7619 21.4814 96.6285 21.3481 96.5419C21.2148 96.4552 21.0848 96.3952 20.9581 96.3619C20.8314 96.3285 20.6948 96.3119 20.5481 96.3119ZM26.256 94.2219C26.9693 94.2219 27.536 94.4219 27.956 94.8219C28.376 95.2219 28.5893 95.7785 28.596 96.4919C28.596 96.6852 28.5793 96.8952 28.546 97.1219C28.526 97.2219 28.4626 97.2719 28.356 97.2719H24.476C24.5026 97.5119 24.556 97.7385 24.636 97.9519C24.716 98.1585 24.826 98.3519 24.966 98.5319C25.1126 98.7052 25.2993 98.8419 25.526 98.9419C25.7526 99.0419 26.0126 99.0919 26.306 99.0919C26.946 99.0919 27.466 98.8785 27.866 98.4519C27.9593 98.3919 28.0393 98.4052 28.106 98.4919L28.276 98.7619C28.3426 98.8552 28.336 98.9352 28.256 99.0019C27.7493 99.5419 27.0826 99.8119 26.256 99.8119C25.736 99.8119 25.2793 99.7019 24.886 99.4819C24.4926 99.2619 24.186 98.9419 23.966 98.5219C23.746 98.1019 23.6326 97.6019 23.626 97.0219C23.626 96.6485 23.6793 96.2952 23.786 95.9619C23.8993 95.6285 24.0626 95.3319 24.276 95.0719C24.496 94.8119 24.776 94.6052 25.116 94.4519C25.456 94.2985 25.836 94.2219 26.256 94.2219ZM26.246 94.9019C25.7526 94.9019 25.346 95.0719 25.026 95.4119C24.706 95.7452 24.526 96.1619 24.486 96.6619H27.816C27.8426 96.3085 27.8026 96.0019 27.696 95.7419C27.596 95.4819 27.4226 95.2785 27.176 95.1319C26.9293 94.9785 26.6193 94.9019 26.246 94.9019ZM32.4925 94.2219C32.7525 94.2219 32.9892 94.2685 33.2025 94.3619C33.3092 94.3885 33.3459 94.4585 33.3125 94.5719L33.2425 94.8919C33.2159 94.9985 33.1525 95.0385 33.0525 95.0119C32.8925 94.9385 32.7092 94.9019 32.5025 94.9019C32.2159 94.9019 31.9459 94.9785 31.6925 95.1319C31.4459 95.2852 31.2425 95.4752 31.0825 95.7019C30.9292 95.9219 30.8092 96.1485 30.7225 96.3819C30.6359 96.6085 30.5925 96.8119 30.5925 96.9919V99.5019C30.5925 99.6152 30.5325 99.6719 30.4125 99.6719H29.9325C29.8192 99.6719 29.7625 99.6152 29.7625 99.5019V94.5419C29.7625 94.4285 29.8192 94.3719 29.9325 94.3719H30.3225C30.4292 94.3719 30.4925 94.4219 30.5125 94.5219L30.5425 95.6119C30.7625 95.1585 31.0392 94.8152 31.3725 94.5819C31.7125 94.3419 32.0859 94.2219 32.4925 94.2219ZM36.0959 94.2219C36.7092 94.2219 37.3759 94.3885 38.0959 94.7219C38.1959 94.7685 38.2226 94.8452 38.1759 94.9519L38.0659 95.2219C38.0192 95.3219 37.9426 95.3552 37.8359 95.3219C37.1159 95.0419 36.5359 94.9019 36.0959 94.9019C35.7626 94.9019 35.4659 94.9752 35.2059 95.1219C34.9526 95.2619 34.8259 95.4719 34.8259 95.7519C34.8259 95.9185 34.8759 96.0619 34.9759 96.1819C35.0826 96.2952 35.2159 96.3819 35.3759 96.4419C35.5426 96.4952 35.7326 96.5485 35.9459 96.6019C36.1592 96.6485 36.3759 96.6885 36.5959 96.7219C36.8159 96.7552 37.0326 96.8085 37.2459 96.8819C37.4592 96.9485 37.6492 97.0319 37.8159 97.1319C37.9826 97.2252 38.1159 97.3652 38.2159 97.5519C38.3159 97.7319 38.3659 97.9452 38.3659 98.1919C38.3659 98.6652 38.1859 99.0552 37.8259 99.3619C37.4659 99.6619 36.9659 99.8119 36.3259 99.8119C35.6726 99.8119 34.9059 99.6319 34.0259 99.2719C33.9192 99.2319 33.8892 99.1552 33.9359 99.0419L34.0659 98.7619C34.1126 98.6619 34.1892 98.6319 34.2959 98.6719C35.1159 98.9919 35.7826 99.1519 36.2959 99.1519C36.6692 99.1519 36.9626 99.0719 37.1759 98.9119C37.3959 98.7519 37.5059 98.5252 37.5059 98.2319C37.5059 98.0719 37.4559 97.9352 37.3559 97.8219C37.2559 97.7085 37.1226 97.6252 36.9559 97.5719C36.7892 97.5185 36.5992 97.4685 36.3859 97.4219C36.1792 97.3752 35.9659 97.3352 35.7459 97.3019C35.5259 97.2685 35.3092 97.2152 35.0959 97.1419C34.8826 97.0685 34.6926 96.9819 34.5259 96.8819C34.3659 96.7819 34.2359 96.6385 34.1359 96.4519C34.0359 96.2652 33.9859 96.0452 33.9859 95.7919C33.9859 95.4385 34.0892 95.1419 34.2959 94.9019C34.5092 94.6552 34.7692 94.4819 35.0759 94.3819C35.3826 94.2752 35.7226 94.2219 36.0959 94.2219ZM41.92 94.2219C42.6334 94.2219 43.2 94.4219 43.62 94.8219C44.04 95.2219 44.2534 95.7785 44.26 96.4919C44.26 96.6852 44.2434 96.8952 44.21 97.1219C44.19 97.2219 44.1267 97.2719 44.02 97.2719H40.14C40.1667 97.5119 40.22 97.7385 40.3 97.9519C40.38 98.1585 40.49 98.3519 40.63 98.5319C40.7767 98.7052 40.9634 98.8419 41.19 98.9419C41.4167 99.0419 41.6767 99.0919 41.97 99.0919C42.61 99.0919 43.13 98.8785 43.53 98.4519C43.6234 98.3919 43.7034 98.4052 43.77 98.4919L43.94 98.7619C44.0067 98.8552 44 98.9352 43.92 99.0019C43.4134 99.5419 42.7467 99.8119 41.92 99.8119C41.4 99.8119 40.9434 99.7019 40.55 99.4819C40.1567 99.2619 39.85 98.9419 39.63 98.5219C39.41 98.1019 39.2967 97.6019 39.29 97.0219C39.29 96.6485 39.3434 96.2952 39.45 95.9619C39.5634 95.6285 39.7267 95.3319 39.94 95.0719C40.16 94.8119 40.44 94.6052 40.78 94.4519C41.12 94.2985 41.5 94.2219 41.92 94.2219ZM41.91 94.9019C41.4167 94.9019 41.01 95.0719 40.69 95.4119C40.37 95.7452 40.19 96.1619 40.15 96.6619H43.48C43.5067 96.3085 43.4667 96.0019 43.36 95.7419C43.26 95.4819 43.0867 95.2785 42.84 95.1319C42.5934 94.9785 42.2834 94.9019 41.91 94.9019ZM48.1566 94.2219C48.4166 94.2219 48.6533 94.2685 48.8666 94.3619C48.9733 94.3885 49.0099 94.4585 48.9766 94.5719L48.9066 94.8919C48.8799 94.9985 48.8166 95.0385 48.7166 95.0119C48.5566 94.9385 48.3733 94.9019 48.1666 94.9019C47.8799 94.9019 47.6099 94.9785 47.3566 95.1319C47.1099 95.2852 46.9066 95.4752 46.7466 95.7019C46.5933 95.9219 46.4733 96.1485 46.3866 96.3819C46.2999 96.6085 46.2566 96.8119 46.2566 96.9919V99.5019C46.2566 99.6152 46.1966 99.6719 46.0766 99.6719H45.5966C45.4833 99.6719 45.4266 99.6152 45.4266 99.5019V94.5419C45.4266 94.4285 45.4833 94.3719 45.5966 94.3719H45.9866C46.0933 94.3719 46.1566 94.4219 46.1766 94.5219L46.2066 95.6119C46.4266 95.1585 46.7033 94.8152 47.0366 94.5819C47.3766 94.3419 47.7499 94.2219 48.1566 94.2219ZM50.47 92.4619H50.95C51.07 92.4619 51.13 92.5219 51.13 92.6419V94.3819H52.45C52.5633 94.3819 52.62 94.4385 52.62 94.5519V94.8419C52.62 94.9619 52.5633 95.0219 52.45 95.0219H51.13V97.9519C51.13 98.3652 51.1966 98.6652 51.33 98.8519C51.47 99.0319 51.7133 99.1219 52.06 99.1219C52.1733 99.1219 52.2866 99.1052 52.4 99.0719C52.52 99.0385 52.6133 99.0052 52.68 98.9719C52.7533 98.9385 52.8566 98.8885 52.99 98.8219C53.1033 98.7819 53.1766 98.8152 53.21 98.9219L53.29 99.2219C53.3233 99.3352 53.2933 99.4119 53.2 99.4519C52.7 99.6985 52.2566 99.8219 51.87 99.8219C51.3366 99.8219 50.94 99.6852 50.68 99.4119C50.4266 99.1319 50.3 98.6985 50.3 98.1119V95.0219H49.43C49.31 95.0219 49.25 94.9619 49.25 94.8419V94.5519C49.25 94.4385 49.31 94.3819 49.43 94.3819H50.3V92.6419C50.3 92.5219 50.3566 92.4619 50.47 92.4619ZM54.1025 92.5819H54.6725C54.7925 92.5819 54.8525 92.6385 54.8525 92.7519V93.1219C54.8525 93.2352 54.7925 93.2919 54.6725 93.2919H54.1025C53.9891 93.2919 53.9325 93.2352 53.9325 93.1219V92.7519C53.9325 92.6385 53.9891 92.5819 54.1025 92.5819ZM54.1525 94.3719H54.6325C54.7458 94.3719 54.8025 94.4285 54.8025 94.5419V99.5019C54.8025 99.6152 54.7458 99.6719 54.6325 99.6719H54.1525C54.0325 99.6719 53.9725 99.6152 53.9725 99.5019V94.5419C53.9725 94.4285 54.0325 94.3719 54.1525 94.3719ZM59.979 92.5819H60.429C60.5424 92.5819 60.599 92.6385 60.599 92.7519V93.1219C60.599 93.2352 60.5424 93.2919 60.429 93.2919H59.859C59.7457 93.2919 59.6857 93.2352 59.679 93.1219C59.659 93.1219 59.6357 93.1119 59.609 93.0919C59.4824 92.9852 59.319 92.8952 59.119 92.8219C58.9257 92.7419 58.729 92.7019 58.529 92.7019C58.3357 92.7019 58.1657 92.7452 58.019 92.8319C57.8724 92.9185 57.759 93.0319 57.679 93.1719C57.599 93.3052 57.539 93.4452 57.499 93.5919C57.4657 93.7319 57.449 93.8719 57.449 94.0119V94.4019H58.679C58.799 94.4019 58.859 94.4585 58.859 94.5719V94.8619C58.859 94.9752 58.799 95.0319 58.679 95.0319H57.449V99.5019C57.449 99.6152 57.3924 99.6719 57.279 99.6719H56.789C56.669 99.6719 56.609 99.6152 56.609 99.5019V95.0319H55.769C55.649 95.0319 55.589 94.9752 55.589 94.8619V94.5719C55.589 94.4585 55.649 94.4019 55.769 94.4019H56.609V94.0119C56.609 93.4452 56.7624 92.9752 57.069 92.6019C57.3824 92.2219 57.8324 92.0319 58.419 92.0319C58.999 92.0319 59.519 92.2152 59.979 92.5819ZM59.899 94.3719H60.379C60.499 94.3719 60.559 94.4285 60.559 94.5419V99.5019C60.559 99.6152 60.499 99.6719 60.379 99.6719H59.899C59.7857 99.6719 59.729 99.6152 59.729 99.5019V94.5419C59.729 94.4285 59.7857 94.3719 59.899 94.3719ZM62.1307 92.1719H62.6107C62.7241 92.1719 62.7807 92.2285 62.7807 92.3419V96.1919L64.7907 94.4919C64.8774 94.4119 64.9707 94.3719 65.0707 94.3719H65.6207C65.7007 94.3719 65.7474 94.3952 65.7607 94.4419C65.7807 94.4819 65.7641 94.5285 65.7107 94.5819L63.3607 96.6119L66.1207 99.4619C66.1674 99.5219 66.1807 99.5719 66.1607 99.6119C66.1407 99.6519 66.0941 99.6719 66.0207 99.6719H65.4007C65.3007 99.6719 65.2141 99.6285 65.1407 99.5419L62.7807 97.1319V99.5019C62.7807 99.6152 62.7241 99.6719 62.6107 99.6719H62.1307C62.0107 99.6719 61.9507 99.6152 61.9507 99.5019V92.3419C61.9507 92.2285 62.0107 92.1719 62.1307 92.1719ZM69.47 94.2219C70.7034 94.2219 71.32 94.9519 71.32 96.4119V98.4919C71.32 98.6785 71.38 98.8419 71.5 98.9819C71.62 99.1152 71.7867 99.1919 72 99.2119C72.1067 99.2385 72.16 99.2985 72.16 99.3919V99.6719C72.1534 99.7852 72.1067 99.8452 72.02 99.8519C71.9667 99.8585 71.9134 99.8619 71.86 99.8619C71.4934 99.8419 71.2034 99.7319 70.99 99.5319C70.7767 99.3319 70.64 99.1019 70.58 98.8419C70.52 98.9285 70.4367 99.0219 70.33 99.1219C70.2234 99.2219 70.0867 99.3319 69.92 99.4519C69.7534 99.5652 69.55 99.6585 69.31 99.7319C69.07 99.8052 68.82 99.8419 68.56 99.8419C68.02 99.8419 67.59 99.6885 67.27 99.3819C66.95 99.0685 66.79 98.6652 66.79 98.1719C66.79 97.8519 66.8634 97.5719 67.01 97.3319C67.1634 97.0919 67.3634 96.9119 67.61 96.7919C67.8634 96.6719 68.15 96.5785 68.47 96.5119C68.7967 96.4385 69.13 96.4085 69.47 96.4219C69.8167 96.4285 70.16 96.4452 70.5 96.4719C70.5 96.2785 70.4934 96.1152 70.48 95.9819C70.4667 95.8485 70.4367 95.7085 70.39 95.5619C70.3434 95.4085 70.28 95.2885 70.2 95.2019C70.12 95.1085 70.0067 95.0319 69.86 94.9719C69.72 94.9052 69.55 94.8719 69.35 94.8719C68.8234 94.8719 68.21 95.0819 67.51 95.5019C67.41 95.5619 67.33 95.5419 67.27 95.4419L67.14 95.2219C67.0734 95.1219 67.1067 95.0352 67.24 94.9619C68.0534 94.4685 68.7967 94.2219 69.47 94.2219ZM70.5 97.9419V97.0119C70.24 96.9785 69.9867 96.9585 69.74 96.9519C69.4934 96.9452 69.2367 96.9585 68.97 96.9919C68.71 97.0252 68.4834 97.0819 68.29 97.1619C68.0967 97.2419 67.9367 97.3652 67.81 97.5319C67.6834 97.6919 67.62 97.8885 67.62 98.1219C67.62 98.4019 67.7234 98.6452 67.93 98.8519C68.1367 99.0585 68.43 99.1619 68.81 99.1619C69.2034 99.1619 69.5834 99.0219 69.95 98.7419C70.3167 98.4619 70.5 98.1952 70.5 97.9419ZM73.4094 92.4619H73.8894C74.0094 92.4619 74.0694 92.5219 74.0694 92.6419V94.3819H75.3894C75.5027 94.3819 75.5594 94.4385 75.5594 94.5519V94.8419C75.5594 94.9619 75.5027 95.0219 75.3894 95.0219H74.0694V97.9519C74.0694 98.3652 74.1361 98.6652 74.2694 98.8519C74.4094 99.0319 74.6527 99.1219 74.9994 99.1219C75.1127 99.1219 75.2261 99.1052 75.3394 99.0719C75.4594 99.0385 75.5527 99.0052 75.6194 98.9719C75.6927 98.9385 75.7961 98.8885 75.9294 98.8219C76.0427 98.7819 76.1161 98.8152 76.1494 98.9219L76.2294 99.2219C76.2627 99.3352 76.2327 99.4119 76.1394 99.4519C75.6394 99.6985 75.1961 99.8219 74.8094 99.8219C74.2761 99.8219 73.8794 99.6852 73.6194 99.4119C73.3661 99.1319 73.2394 98.6985 73.2394 98.1119V95.0219H72.3694C72.2494 95.0219 72.1894 94.9619 72.1894 94.8419V94.5519C72.1894 94.4385 72.2494 94.3819 72.3694 94.3819H73.2394V92.6419C73.2394 92.5219 73.2961 92.4619 73.4094 92.4619ZM32.2746 111.672H31.3646C31.1913 111.672 31.1046 111.582 31.1046 111.402V104.742C31.1046 104.562 31.1913 104.472 31.3646 104.472H32.2746C32.4546 104.472 32.5446 104.562 32.5446 104.742V107.472H35.4446V104.742C35.4446 104.562 35.5313 104.472 35.7046 104.472H36.6146C36.7946 104.472 36.8846 104.562 36.8846 104.742V111.402C36.8846 111.582 36.7946 111.672 36.6146 111.672H35.7046C35.5313 111.672 35.4446 111.582 35.4446 111.402V108.562H32.5446V111.402C32.5446 111.582 32.4546 111.672 32.2746 111.672ZM40.4959 104.472H41.5359C41.6892 104.472 41.7925 104.542 41.8459 104.682L44.3559 111.362C44.3892 111.455 44.3859 111.532 44.3459 111.592C44.3125 111.645 44.2459 111.672 44.1459 111.672H43.1959C43.0425 111.672 42.9392 111.602 42.8859 111.462L42.3259 109.882H39.7159L39.1459 111.462C39.0925 111.602 38.9925 111.672 38.8459 111.672H37.8959C37.7959 111.672 37.7259 111.645 37.6859 111.592C37.6459 111.532 37.6425 111.455 37.6759 111.362L40.1859 104.682C40.2392 104.542 40.3425 104.472 40.4959 104.472ZM41.0159 106.262L40.0959 108.792H41.9359L41.0159 106.262ZM45.4173 104.472H46.3273C46.5073 104.472 46.5973 104.562 46.5973 104.742V110.572H49.4573C49.6307 110.572 49.7173 110.662 49.7173 110.842V111.402C49.7173 111.582 49.6307 111.672 49.4573 111.672H45.4173C45.244 111.672 45.1573 111.582 45.1573 111.402V104.742C45.1573 104.562 45.244 104.472 45.4173 104.472ZM53.0056 104.472H54.0456C54.199 104.472 54.3023 104.542 54.3556 104.682L56.8656 111.362C56.899 111.455 56.8956 111.532 56.8556 111.592C56.8223 111.645 56.7556 111.672 56.6556 111.672H55.7056C55.5523 111.672 55.449 111.602 55.3956 111.462L54.8356 109.882H52.2256L51.6556 111.462C51.6023 111.602 51.5023 111.672 51.3556 111.672H50.4056C50.3056 111.672 50.2356 111.645 50.1956 111.592C50.1556 111.532 50.1523 111.455 50.1856 111.362L52.6956 104.682C52.749 104.542 52.8523 104.472 53.0056 104.472ZM53.5256 106.262L52.6056 108.792H54.4456L53.5256 106.262ZM57.9271 104.472H58.8371C59.0171 104.472 59.1071 104.562 59.1071 104.742V110.572H61.9671C62.1404 110.572 62.2271 110.662 62.2271 110.842V111.402C62.2271 111.582 62.1404 111.672 61.9671 111.672H57.9271C57.7538 111.672 57.6671 111.582 57.6671 111.402V104.742C57.6671 104.562 57.7538 104.472 57.9271 104.472Z" fill="#670076"/>
</g>
<defs>
<filter id="filter0_b_825_552" x="-15" y="-15" width="123" height="158" filterUnits="userSpaceOnUse" color-interpolation-filters="sRGB">
<feFlood flood-opacity="0" result="BackgroundImageFix"/>
<feGaussianBlur in="BackgroundImageFix" stdDeviation="7.5"/>
<feComposite in2="SourceAlpha" operator="in" result="effect1_backgroundBlur_825_552"/>
<feBlend mode="normal" in="SourceGraphic" in2="effect1_backgroundBlur_825_552" result="shape"/>
</filter>
<linearGradient id="paint0_linear_825_552" x1="46.5" y1="0" x2="46.5" y2="128" gradientUnits="userSpaceOnUse">
<stop stop-color="white" stop-opacity="0.8"/>
<stop offset="1" stop-color="white" stop-opacity="0.25"/>
</linearGradient>
</defs>
</svg>
