<svg width="92" height="128" viewBox="0 0 92 128" fill="none" xmlns="http://www.w3.org/2000/svg">
<g filter="url(#filter0_b_825_454)">
<rect width="91.6401" height="128" rx="12" fill="url(#paint0_linear_825_454)"/>
<rect x="1" y="1" width="89.6401" height="126" rx="11" stroke="white" stroke-width="2"/>
<path d="M53.4813 23.3977V64.3386H56.1067V33.4888C56.1067 33.4888 62.7713 44.0355 63.6804 49.6134C63.6804 49.6134 64.5889 54.968 60.9541 59.0954C60.338 59.7949 59.6157 60.4539 59.1657 61.318C58.6992 62.2145 58.6026 63.3249 58.6318 64.3386V68.7451C58.6318 68.7451 58.8844 70.6417 57.4706 70.6417H50.3517V17.9318L49.2409 16.0908L47.5745 18.7684V70.4747L33.8977 70.6376C33.5066 70.6423 33.125 70.4494 32.9047 70.0924C32.8028 69.9271 32.7301 69.7213 32.7301 69.4703V68.1184H30.0039V69.3326C30.1806 72.5659 32.0503 73.5093 33.3113 73.5978C35.6841 73.7649 58.3293 73.5978 58.3293 73.5978C58.3293 73.5978 61.2073 73.3187 61.2577 70.1956L61.3044 63.6737C61.3065 63.356 61.4212 63.0529 61.625 62.8283C62.3663 62.011 64.218 59.8353 65.0947 57.5899C66.2055 54.7452 67.7201 51.6309 65.1955 44.8815C62.671 38.1322 57.1824 29.2611 53.4818 23.3977H53.4813Z" fill="#670076"/>
<path d="M43.7365 25.1826L41.0103 29.8119V64.3946H43.7365V25.1826Z" fill="#670076"/>
<path d="M47.2205 13.0231L46.3809 12.3459C45.6326 11.7421 44.5792 11.9502 44.0665 12.8032L35.2536 27.4692V61.0475H32.0221C32.0221 61.0475 27.3769 57.8681 27.5791 50.5612C27.5791 50.5612 28.4372 43.7005 32.7795 37.7878V32.0428C32.7795 32.0428 25.7619 43.0315 25.2063 48.7209C24.6703 54.212 25.5449 59.0793 30.8265 63.8746C31.198 64.2123 31.6666 64.3946 32.1479 64.3946H37.93L37.9804 28.3064L47.2205 13.0231Z" fill="#670076"/>
<path d="M21.8636 102.051C22.489 102.051 23.0816 102.191 23.6416 102.471C24.211 102.742 24.7103 103.125 25.1396 103.619C25.2516 103.731 25.247 103.843 25.1256 103.955L24.7896 104.291C24.687 104.403 24.575 104.403 24.4536 104.291C23.735 103.47 22.8856 103.059 21.9056 103.059C21.243 103.059 20.6456 103.232 20.1136 103.577C19.591 103.923 19.1803 104.417 18.8816 105.061C18.5923 105.705 18.4476 106.447 18.4476 107.287C18.4476 108.557 18.7696 109.579 19.4136 110.353C20.067 111.119 20.8976 111.501 21.9056 111.501C22.8763 111.501 23.7256 111.077 24.4536 110.227C24.575 110.115 24.6916 110.115 24.8036 110.227L25.1396 110.591C25.2516 110.713 25.2516 110.829 25.1396 110.941C24.7103 111.445 24.211 111.833 23.6416 112.103C23.0816 112.374 22.489 112.509 21.8636 112.509C21.1823 112.509 20.5476 112.374 19.9596 112.103C19.381 111.833 18.891 111.469 18.4896 111.011C18.0976 110.545 17.7896 109.989 17.5656 109.345C17.3416 108.701 17.2296 108.015 17.2296 107.287C17.2296 106.55 17.337 105.864 17.5516 105.229C17.7756 104.585 18.0836 104.03 18.4756 103.563C18.877 103.097 19.367 102.728 19.9456 102.457C20.5336 102.187 21.173 102.051 21.8636 102.051ZM30.2629 104.683C31.2615 104.683 32.0549 104.963 32.6429 105.523C33.2309 106.083 33.5295 106.863 33.5389 107.861C33.5389 108.132 33.5155 108.426 33.4689 108.743C33.4409 108.883 33.3522 108.953 33.2029 108.953H27.7709C27.8082 109.289 27.8829 109.607 27.9949 109.905C28.1069 110.195 28.2609 110.465 28.4569 110.717C28.6622 110.96 28.9235 111.151 29.2409 111.291C29.5582 111.431 29.9222 111.501 30.3329 111.501C31.2289 111.501 31.9569 111.203 32.5169 110.605C32.6475 110.521 32.7595 110.54 32.8529 110.661L33.0909 111.039C33.1842 111.17 33.1749 111.282 33.0629 111.375C32.3535 112.131 31.4202 112.509 30.2629 112.509C29.5349 112.509 28.8955 112.355 28.3449 112.047C27.7942 111.739 27.3649 111.291 27.0569 110.703C26.7489 110.115 26.5902 109.415 26.5809 108.603C26.5809 108.081 26.6555 107.586 26.8049 107.119C26.9635 106.653 27.1922 106.237 27.4909 105.873C27.7989 105.509 28.1909 105.22 28.6669 105.005C29.1429 104.791 29.6749 104.683 30.2629 104.683ZM30.2489 105.635C29.5582 105.635 28.9889 105.873 28.5409 106.349C28.0929 106.816 27.8409 107.399 27.7849 108.099H32.4469C32.4842 107.605 32.4282 107.175 32.2789 106.811C32.1389 106.447 31.8962 106.163 31.5509 105.957C31.2055 105.743 30.7715 105.635 30.2489 105.635ZM38.994 104.683C39.358 104.683 39.6894 104.749 39.988 104.879C40.1374 104.917 40.1887 105.015 40.142 105.173L40.044 105.621C40.0067 105.771 39.918 105.827 39.778 105.789C39.554 105.687 39.2974 105.635 39.008 105.635C38.6067 105.635 38.2287 105.743 37.874 105.957C37.5287 106.172 37.244 106.438 37.02 106.755C36.8054 107.063 36.6374 107.381 36.516 107.707C36.3947 108.025 36.334 108.309 36.334 108.561V112.075C36.334 112.234 36.25 112.313 36.082 112.313H35.41C35.2514 112.313 35.172 112.234 35.172 112.075V105.131C35.172 104.973 35.2514 104.893 35.41 104.893H35.956C36.1054 104.893 36.194 104.963 36.222 105.103L36.264 106.629C36.572 105.995 36.9594 105.514 37.426 105.187C37.902 104.851 38.4247 104.683 38.994 104.683ZM42.2328 102.219H42.9048C43.0728 102.219 43.1568 102.303 43.1568 102.471V104.907H45.0048C45.1634 104.907 45.2428 104.987 45.2428 105.145V105.551C45.2428 105.719 45.1634 105.803 45.0048 105.803H43.1568V109.905C43.1568 110.484 43.2501 110.904 43.4368 111.165C43.6328 111.417 43.9734 111.543 44.4588 111.543C44.6174 111.543 44.7761 111.52 44.9348 111.473C45.1028 111.427 45.2334 111.38 45.3268 111.333C45.4294 111.287 45.5741 111.217 45.7608 111.123C45.9194 111.067 46.0221 111.114 46.0688 111.263L46.1808 111.683C46.2274 111.842 46.1854 111.949 46.0548 112.005C45.3548 112.351 44.7341 112.523 44.1928 112.523C43.4461 112.523 42.8908 112.332 42.5267 111.949C42.1721 111.557 41.9948 110.951 41.9948 110.129V105.803H40.7768C40.6088 105.803 40.5248 105.719 40.5248 105.551V105.145C40.5248 104.987 40.6088 104.907 40.7768 104.907H41.9948V102.471C41.9948 102.303 42.0741 102.219 42.2328 102.219ZM47.3183 102.387H48.1163C48.2843 102.387 48.3683 102.467 48.3683 102.625V103.143C48.3683 103.302 48.2843 103.381 48.1163 103.381H47.3183C47.1596 103.381 47.0802 103.302 47.0802 103.143V102.625C47.0802 102.467 47.1596 102.387 47.3183 102.387ZM47.3883 104.893H48.0603C48.2189 104.893 48.2983 104.973 48.2983 105.131V112.075C48.2983 112.234 48.2189 112.313 48.0603 112.313H47.3883C47.2203 112.313 47.1363 112.234 47.1363 112.075V105.131C47.1363 104.973 47.2203 104.893 47.3883 104.893ZM55.5454 102.387H56.1754C56.3341 102.387 56.4134 102.467 56.4134 102.625V103.143C56.4134 103.302 56.3341 103.381 56.1754 103.381H55.3774C55.2188 103.381 55.1348 103.302 55.1254 103.143C55.0974 103.143 55.0648 103.129 55.0274 103.101C54.8501 102.952 54.6214 102.826 54.3414 102.723C54.0708 102.611 53.7954 102.555 53.5154 102.555C53.2448 102.555 53.0068 102.616 52.8014 102.737C52.5961 102.859 52.4374 103.017 52.3254 103.213C52.2134 103.4 52.1294 103.596 52.0734 103.801C52.0268 103.997 52.0034 104.193 52.0034 104.389V104.935H53.7254C53.8934 104.935 53.9774 105.015 53.9774 105.173V105.579C53.9774 105.738 53.8934 105.817 53.7254 105.817H52.0034V112.075C52.0034 112.234 51.9241 112.313 51.7654 112.313H51.0794C50.9114 112.313 50.8274 112.234 50.8274 112.075V105.817H49.6514C49.4834 105.817 49.3994 105.738 49.3994 105.579V105.173C49.3994 105.015 49.4834 104.935 49.6514 104.935H50.8274V104.389C50.8274 103.596 51.0421 102.938 51.4714 102.415C51.9101 101.883 52.5401 101.617 53.3614 101.617C54.1734 101.617 54.9014 101.874 55.5454 102.387ZM55.4334 104.893H56.1054C56.2734 104.893 56.3574 104.973 56.3574 105.131V112.075C56.3574 112.234 56.2734 112.313 56.1054 112.313H55.4334C55.2748 112.313 55.1954 112.234 55.1954 112.075V105.131C55.1954 104.973 55.2748 104.893 55.4334 104.893ZM61.7218 104.683C62.7205 104.683 63.5138 104.963 64.1018 105.523C64.6898 106.083 64.9885 106.863 64.9978 107.861C64.9978 108.132 64.9745 108.426 64.9278 108.743C64.8998 108.883 64.8112 108.953 64.6618 108.953H59.2298C59.2672 109.289 59.3418 109.607 59.4538 109.905C59.5658 110.195 59.7198 110.465 59.9158 110.717C60.1212 110.96 60.3825 111.151 60.6998 111.291C61.0172 111.431 61.3812 111.501 61.7918 111.501C62.6878 111.501 63.4158 111.203 63.9758 110.605C64.1065 110.521 64.2185 110.54 64.3118 110.661L64.5498 111.039C64.6432 111.17 64.6338 111.282 64.5218 111.375C63.8125 112.131 62.8792 112.509 61.7218 112.509C60.9938 112.509 60.3545 112.355 59.8038 112.047C59.2532 111.739 58.8238 111.291 58.5158 110.703C58.2078 110.115 58.0492 109.415 58.0398 108.603C58.0398 108.081 58.1145 107.586 58.2638 107.119C58.4225 106.653 58.6512 106.237 58.9498 105.873C59.2578 105.509 59.6498 105.22 60.1258 105.005C60.6018 104.791 61.1338 104.683 61.7218 104.683ZM61.7078 105.635C61.0172 105.635 60.4478 105.873 59.9998 106.349C59.5518 106.816 59.2998 107.399 59.2438 108.099H63.9058C63.9432 107.605 63.8872 107.175 63.7378 106.811C63.5978 106.447 63.3552 106.163 63.0098 105.957C62.6645 105.743 62.2305 105.635 61.7078 105.635ZM72.594 101.813H73.28C73.4387 101.813 73.518 101.893 73.518 102.051V112.075C73.518 112.234 73.4387 112.313 73.28 112.313H72.734C72.5847 112.313 72.5007 112.239 72.482 112.089V111.081C72.1927 111.52 71.81 111.87 71.334 112.131C70.8674 112.383 70.3727 112.509 69.85 112.509C69.402 112.509 68.9774 112.425 68.576 112.257C68.1747 112.089 67.8154 111.847 67.498 111.529C67.19 111.212 66.9427 110.801 66.756 110.297C66.5694 109.784 66.476 109.205 66.476 108.561C66.476 107.936 66.5694 107.371 66.756 106.867C66.952 106.363 67.2087 105.957 67.526 105.649C67.8527 105.332 68.2167 105.094 68.618 104.935C69.0194 104.767 69.4347 104.683 69.864 104.683C70.3494 104.683 70.8114 104.809 71.25 105.061C71.698 105.304 72.0667 105.64 72.356 106.069V102.051C72.356 101.893 72.4354 101.813 72.594 101.813ZM70.046 105.677C69.3927 105.677 68.828 105.934 68.352 106.447C67.8854 106.961 67.652 107.675 67.652 108.589C67.652 109.551 67.8807 110.283 68.338 110.787C68.7954 111.282 69.3507 111.529 70.004 111.529C70.536 111.529 71.026 111.347 71.474 110.983C71.9314 110.61 72.23 110.134 72.37 109.555V107.777C72.2207 107.143 71.9314 106.634 71.502 106.251C71.0727 105.869 70.5874 105.677 70.046 105.677Z" fill="#670076"/>
<path d="M12 79.6729H17.0189L16.3644 80.6981V86.3634L20.3735 85.5196V80.9386L19.9099 79.6729H24.5469L24.0016 81.0592V92.9323L24.5469 94.4394H19.8557L20.3735 92.7518V88.2315L16.3644 88.8948V92.6311L16.9097 94.4394H12.2727L12.7088 93.6554V81.0592L12 79.6729Z" fill="#670076"/>
<path d="M40.5877 94.4384L40.205 93.8369L35.0226 79.6719H30.5481L31.0926 80.9395L26.1278 93.836L25.4733 94.4374H30.6032L30.2204 93.7751L30.7649 91.7873L35.512 91.3036L36.1115 93.7143L35.6737 94.4374H40.586L40.5877 94.4384ZM31.5304 89.1361L33.2197 84.4515L34.5848 88.7741L31.5304 89.1361Z" fill="#670076"/>
<path d="M67.5293 94.4384L67.1465 93.8369L61.9641 79.6719H57.4897L58.0341 80.9395L53.0694 93.836L52.4148 94.4374H57.5447L57.1619 93.7751L57.7064 91.7873L62.4536 91.3036L63.0531 93.7143L62.6153 94.4374H67.5276L67.5293 94.4384ZM58.4719 89.1361L60.1613 84.4515L61.5263 88.7741L58.4719 89.1361Z" fill="#670076"/>
<path d="M41.4867 79.6729H46.233L45.5784 81.1353V91.4861H50.243L52.125 90.4009L51.3474 94.4394H41.4867L42.223 93.4749V81.0896L41.4867 79.6729Z" fill="#670076"/>
<path d="M69.0018 79.6729H73.7481L73.0927 81.1353V91.4861H77.7573L79.6401 90.4009L78.8625 94.4394H69.0018L69.7381 93.4749V81.0896L69.0018 79.6729Z" fill="#670076"/>
</g>
<defs>
<filter id="filter0_b_825_454" x="-15" y="-15" width="121.64" height="158" filterUnits="userSpaceOnUse" color-interpolation-filters="sRGB">
<feFlood flood-opacity="0" result="BackgroundImageFix"/>
<feGaussianBlur in="BackgroundImageFix" stdDeviation="7.5"/>
<feComposite in2="SourceAlpha" operator="in" result="effect1_backgroundBlur_825_454"/>
<feBlend mode="normal" in="SourceGraphic" in2="effect1_backgroundBlur_825_454" result="shape"/>
</filter>
<linearGradient id="paint0_linear_825_454" x1="45.82" y1="0" x2="45.82" y2="128" gradientUnits="userSpaceOnUse">
<stop stop-color="white" stop-opacity="0.8"/>
<stop offset="1" stop-color="white" stop-opacity="0.25"/>
</linearGradient>
</defs>
</svg>
