<svg width="189" height="133" viewBox="0 0 189 133" fill="none" xmlns="http://www.w3.org/2000/svg">
<g filter="url(#filter0_b_825_570)">
<rect width="189" height="133" rx="12" fill="url(#paint0_linear_825_570)"/>
<rect x="1" y="1" width="187" height="131" rx="11" stroke="white" stroke-width="2"/>
<circle cx="94.5" cy="41.5" r="29" fill="white" stroke="#E0E0E0"/>
<circle cx="94.8599" cy="42" r="6.5" fill="#EF2121" stroke="#E0E0E0"/>
<path d="M31.119 87.92H35.389C36.1077 87.92 36.7237 88.158 37.237 88.634C37.7504 89.11 38.007 89.7213 38.007 90.468C38.007 90.6547 37.9884 90.832 37.951 91C37.923 91.168 37.8764 91.3313 37.811 91.49C37.7457 91.6487 37.6617 91.798 37.559 91.938C37.4657 92.0687 37.349 92.19 37.209 92.302C37.0784 92.4047 36.929 92.4933 36.761 92.568C37.377 92.7267 37.839 93.0487 38.147 93.534C38.455 94.01 38.609 94.5607 38.609 95.186C38.609 95.718 38.4597 96.208 38.161 96.656C37.8717 97.0947 37.517 97.4307 37.097 97.664C36.6864 97.888 36.2757 98 35.865 98H31.119C30.8764 98 30.755 97.874 30.755 97.622V88.298C30.755 88.046 30.8764 87.92 31.119 87.92ZM34.717 89.46H32.771V92.092H34.647C34.759 92.092 34.8804 92.0733 35.011 92.036C35.1417 91.9893 35.277 91.924 35.417 91.84C35.5664 91.7467 35.683 91.6113 35.767 91.434C35.8604 91.2473 35.907 91.028 35.907 90.776C35.907 90.4867 35.8417 90.2393 35.711 90.034C35.5897 89.8193 35.4404 89.67 35.263 89.586C35.095 89.502 34.913 89.46 34.717 89.46ZM35.165 93.632H32.771V96.474H35.137C35.473 96.474 35.7857 96.3433 36.075 96.082C36.3644 95.8113 36.509 95.4427 36.509 94.976C36.509 94.4907 36.3737 94.1453 36.103 93.94C35.8417 93.7347 35.529 93.632 35.165 93.632ZM43.7483 90.37C45.6336 90.37 46.5763 91.3547 46.5763 93.324V96.096C46.5763 96.2173 46.5996 96.3293 46.6463 96.432C46.6929 96.5253 46.7629 96.6047 46.8563 96.67C46.9496 96.7353 47.0569 96.782 47.1783 96.81C47.4116 96.8847 47.5236 97.0153 47.5143 97.202V97.86C47.5049 98.0933 47.3976 98.224 47.1923 98.252C47.0803 98.2707 46.9543 98.28 46.8143 98.28C46.3196 98.2613 45.8996 98.1493 45.5543 97.944C45.2089 97.7293 44.9616 97.44 44.8123 97.076C44.5696 97.3747 44.2289 97.6407 43.7903 97.874C43.3516 98.1073 42.8523 98.224 42.2923 98.224C41.5549 98.224 40.9389 98.0187 40.4443 97.608C39.9589 97.188 39.7163 96.5953 39.7163 95.83C39.7163 95.4007 39.8096 95.0273 39.9963 94.71C40.1923 94.3833 40.4536 94.136 40.7803 93.968C41.1069 93.7907 41.4803 93.6507 41.9003 93.548C42.3203 93.436 42.7589 93.38 43.2163 93.38C43.6736 93.3707 44.1309 93.3753 44.5883 93.394C44.5883 93.1607 44.5743 92.9693 44.5463 92.82C44.5276 92.6707 44.4809 92.5167 44.4063 92.358C44.3316 92.1993 44.2103 92.0827 44.0423 92.008C43.8743 91.924 43.6549 91.882 43.3843 91.882C42.7216 91.882 41.9516 92.1153 41.0743 92.582C40.8503 92.694 40.6776 92.6473 40.5563 92.442L40.2343 91.896C40.0943 91.672 40.1876 91.476 40.5143 91.308C41.6809 90.6827 42.7589 90.37 43.7483 90.37ZM44.5743 95.494V94.542C42.6609 94.3833 41.7043 94.7613 41.7043 95.676C41.7043 95.844 41.7416 95.998 41.8163 96.138C41.9003 96.278 42.0356 96.3993 42.2223 96.502C42.4089 96.5953 42.6376 96.642 42.9083 96.642C43.3003 96.642 43.6736 96.5207 44.0283 96.278C44.3923 96.026 44.5743 95.7647 44.5743 95.494ZM48.9745 87.5H50.2345C50.4772 87.5 50.5985 87.6213 50.5985 87.864V91.434C51.2612 90.7247 52.0498 90.37 52.9645 90.37C53.4592 90.37 53.8978 90.4633 54.2805 90.65C54.6632 90.8273 54.9618 91.0793 55.1765 91.406C55.4005 91.7327 55.5685 92.0967 55.6805 92.498C55.7925 92.8993 55.8485 93.3427 55.8485 93.828V97.622C55.8485 97.874 55.7225 98 55.4705 98H54.2105C53.9585 98 53.8325 97.874 53.8325 97.622V94.094C53.8325 93.758 53.8092 93.4687 53.7625 93.226C53.7252 92.9833 53.6552 92.7687 53.5525 92.582C53.4592 92.386 53.3192 92.2413 53.1325 92.148C52.9552 92.0453 52.7405 91.994 52.4885 91.994C51.4898 91.994 50.8598 92.6193 50.5985 93.87V97.622C50.5985 97.874 50.4772 98 50.2345 98H48.9745C48.7318 98 48.6105 97.874 48.6105 97.622V87.864C48.6105 87.6213 48.7318 87.5 48.9745 87.5ZM61.2483 90.37C63.1336 90.37 64.0763 91.3547 64.0763 93.324V96.096C64.0763 96.2173 64.0996 96.3293 64.1463 96.432C64.1929 96.5253 64.2629 96.6047 64.3563 96.67C64.4496 96.7353 64.5569 96.782 64.6783 96.81C64.9116 96.8847 65.0236 97.0153 65.0143 97.202V97.86C65.0049 98.0933 64.8976 98.224 64.6923 98.252C64.5803 98.2707 64.4543 98.28 64.3143 98.28C63.8196 98.2613 63.3996 98.1493 63.0543 97.944C62.7089 97.7293 62.4616 97.44 62.3123 97.076C62.0696 97.3747 61.7289 97.6407 61.2903 97.874C60.8516 98.1073 60.3523 98.224 59.7923 98.224C59.0549 98.224 58.4389 98.0187 57.9443 97.608C57.4589 97.188 57.2163 96.5953 57.2163 95.83C57.2163 95.4007 57.3096 95.0273 57.4963 94.71C57.6923 94.3833 57.9536 94.136 58.2803 93.968C58.6069 93.7907 58.9803 93.6507 59.4003 93.548C59.8203 93.436 60.2589 93.38 60.7163 93.38C61.1736 93.3707 61.6309 93.3753 62.0883 93.394C62.0883 93.1607 62.0743 92.9693 62.0463 92.82C62.0276 92.6707 61.9809 92.5167 61.9063 92.358C61.8316 92.1993 61.7103 92.0827 61.5423 92.008C61.3743 91.924 61.1549 91.882 60.8843 91.882C60.2216 91.882 59.4516 92.1153 58.5743 92.582C58.3503 92.694 58.1776 92.6473 58.0563 92.442L57.7343 91.896C57.5943 91.672 57.6876 91.476 58.0143 91.308C59.1809 90.6827 60.2589 90.37 61.2483 90.37ZM62.0743 95.494V94.542C60.1609 94.3833 59.2043 94.7613 59.2043 95.676C59.2043 95.844 59.2416 95.998 59.3163 96.138C59.4003 96.278 59.5356 96.3993 59.7223 96.502C59.9089 96.5953 60.1376 96.642 60.4083 96.642C60.8003 96.642 61.1736 96.5207 61.5283 96.278C61.8923 96.026 62.0743 95.7647 62.0743 95.494ZM70.3945 90.37C71.3932 90.37 72.1258 90.6593 72.5925 91.238C73.0685 91.8073 73.3065 92.6707 73.3065 93.828V97.622C73.3065 97.874 73.1852 98 72.9425 98H71.6825C71.4305 98 71.3045 97.874 71.3045 97.622V94.08C71.3045 92.68 70.8612 91.98 69.9745 91.98C69.4892 91.98 69.0832 92.1387 68.7565 92.456C68.4298 92.764 68.2105 93.2167 68.0985 93.814V97.622C68.0985 97.874 67.9772 98 67.7345 98H66.4745C66.2318 98 66.1105 97.874 66.1105 97.622V90.944C66.1105 90.7013 66.2318 90.58 66.4745 90.58H67.6365C67.8512 90.58 67.9958 90.678 68.0705 90.874L68.1125 91.42C68.4018 91.0747 68.7472 90.8133 69.1485 90.636C69.5498 90.4587 69.9652 90.37 70.3945 90.37ZM80.1464 87.92H83.5624C84.5144 87.92 85.3404 88.116 86.0404 88.508C86.7497 88.8907 87.3004 89.4647 87.6924 90.23C88.0937 90.9953 88.2944 91.9053 88.2944 92.96C88.2944 94.556 87.8744 95.7973 87.0344 96.684C86.2037 97.5613 85.0464 98 83.5624 98H80.1464C79.9037 98 79.7824 97.874 79.7824 97.622V88.298C79.7824 88.046 79.9037 87.92 80.1464 87.92ZM83.2964 89.46H81.7984V96.46H83.2964C84.2391 96.46 84.9531 96.152 85.4384 95.536C85.9331 94.9107 86.1804 94.052 86.1804 92.96C86.1804 91.8773 85.9471 91.0233 85.4804 90.398C85.0137 89.7727 84.2857 89.46 83.2964 89.46ZM90.0855 87.766H91.4015C91.6442 87.766 91.7655 87.892 91.7655 88.144V88.984C91.7655 89.236 91.6442 89.362 91.4015 89.362H90.0855C89.8335 89.362 89.7075 89.236 89.7075 88.984V88.144C89.7075 87.892 89.8335 87.766 90.0855 87.766ZM90.1135 90.58H91.3735C91.6162 90.58 91.7375 90.7013 91.7375 90.944V97.622C91.7375 97.874 91.6162 98 91.3735 98H90.1135C89.8615 98 89.7355 97.874 89.7355 97.622V90.944C89.7355 90.7013 89.8615 90.58 90.1135 90.58ZM97.7513 90.37C98.2179 90.37 98.6566 90.454 99.0673 90.622C99.4873 90.7807 99.8559 91.014 100.173 91.322C100.5 91.63 100.757 92.0313 100.943 92.526C101.13 93.0113 101.223 93.562 101.223 94.178C101.223 95.354 100.892 96.32 100.229 97.076C99.5666 97.8227 98.7126 98.196 97.6673 98.196C96.6873 98.196 95.9593 97.8973 95.4833 97.3V101.766C95.4833 102.018 95.3619 102.144 95.1193 102.144H93.8593C93.6166 102.144 93.4953 102.018 93.4953 101.766V90.944C93.4953 90.7013 93.6166 90.58 93.8593 90.58H94.9653C95.1799 90.58 95.3199 90.678 95.3853 90.874L95.4413 91.476C95.5533 91.308 95.6933 91.1587 95.8613 91.028C96.0293 90.888 96.2113 90.7713 96.4073 90.678C96.6126 90.5753 96.8273 90.5007 97.0513 90.454C97.2846 90.398 97.5179 90.37 97.7513 90.37ZM97.3873 92.022C96.8926 92.022 96.4633 92.19 96.0993 92.526C95.7353 92.862 95.5206 93.3147 95.4553 93.884V95.032C95.5393 95.5267 95.7633 95.9093 96.1273 96.18C96.5006 96.4413 96.9019 96.572 97.3313 96.572C97.7046 96.572 98.0313 96.4787 98.3113 96.292C98.5913 96.096 98.8059 95.8207 98.9553 95.466C99.1139 95.1113 99.1933 94.7007 99.1933 94.234C99.1933 93.898 99.1419 93.59 99.0393 93.31C98.9459 93.03 98.8153 92.7967 98.6473 92.61C98.4886 92.4233 98.2973 92.2787 98.0733 92.176C97.8586 92.0733 97.6299 92.022 97.3873 92.022ZM106.42 90.37C108.305 90.37 109.248 91.3547 109.248 93.324V96.096C109.248 96.2173 109.271 96.3293 109.318 96.432C109.365 96.5253 109.435 96.6047 109.528 96.67C109.621 96.7353 109.729 96.782 109.85 96.81C110.083 96.8847 110.195 97.0153 110.186 97.202V97.86C110.177 98.0933 110.069 98.224 109.864 98.252C109.752 98.2707 109.626 98.28 109.486 98.28C108.991 98.2613 108.571 98.1493 108.226 97.944C107.881 97.7293 107.633 97.44 107.484 97.076C107.241 97.3747 106.901 97.6407 106.462 97.874C106.023 98.1073 105.524 98.224 104.964 98.224C104.227 98.224 103.611 98.0187 103.116 97.608C102.631 97.188 102.388 96.5953 102.388 95.83C102.388 95.4007 102.481 95.0273 102.668 94.71C102.864 94.3833 103.125 94.136 103.452 93.968C103.779 93.7907 104.152 93.6507 104.572 93.548C104.992 93.436 105.431 93.38 105.888 93.38C106.345 93.3707 106.803 93.3753 107.26 93.394C107.26 93.1607 107.246 92.9693 107.218 92.82C107.199 92.6707 107.153 92.5167 107.078 92.358C107.003 92.1993 106.882 92.0827 106.714 92.008C106.546 91.924 106.327 91.882 106.056 91.882C105.393 91.882 104.623 92.1153 103.746 92.582C103.522 92.694 103.349 92.6473 103.228 92.442L102.906 91.896C102.766 91.672 102.859 91.476 103.186 91.308C104.353 90.6827 105.431 90.37 106.42 90.37ZM107.246 95.494V94.542C105.333 94.3833 104.376 94.7613 104.376 95.676C104.376 95.844 104.413 95.998 104.488 96.138C104.572 96.278 104.707 96.3993 104.894 96.502C105.081 96.5953 105.309 96.642 105.58 96.642C105.972 96.642 106.345 96.5207 106.7 96.278C107.064 96.026 107.246 95.7647 107.246 95.494ZM111.918 87.92H113.178C113.43 87.92 113.556 88.0413 113.556 88.284V90.58H114.984C115.236 90.58 115.362 90.706 115.362 90.958V91.644C115.362 91.8867 115.236 92.008 114.984 92.008H113.556L113.542 95.214C113.542 96.1287 113.943 96.586 114.746 96.586C114.97 96.586 115.255 96.5113 115.6 96.362C115.852 96.2873 116.001 96.362 116.048 96.586L116.216 97.356C116.272 97.5893 116.197 97.7433 115.992 97.818C115.367 98.0887 114.755 98.224 114.158 98.224C113.365 98.224 112.73 98.0233 112.254 97.622C111.787 97.2207 111.554 96.5673 111.554 95.662V92.008H110.742C110.499 92.008 110.378 91.8867 110.378 91.644V90.958C110.378 90.706 110.499 90.58 110.742 90.58H111.554V88.284C111.554 88.0413 111.675 87.92 111.918 87.92ZM120.679 90.37C121.724 90.37 122.564 90.6733 123.199 91.28C123.833 91.8773 124.151 92.6987 124.151 93.744C124.151 94.0147 124.127 94.2853 124.081 94.556C124.034 94.7613 123.894 94.864 123.661 94.864H118.733C118.845 95.3587 119.078 95.7647 119.433 96.082C119.787 96.3993 120.268 96.558 120.875 96.558C121.547 96.558 122.107 96.376 122.555 96.012C122.779 95.9187 122.947 95.9653 123.059 96.152L123.437 96.866C123.567 97.0807 123.539 97.2487 123.353 97.37C122.69 97.9207 121.817 98.196 120.735 98.196C119.923 98.196 119.218 98.0513 118.621 97.762C118.023 97.4633 117.552 97.02 117.207 96.432C116.871 95.8347 116.703 95.1207 116.703 94.29C116.693 93.7767 116.768 93.2913 116.927 92.834C117.085 92.3767 117.319 91.9613 117.627 91.588C117.944 91.2147 118.364 90.9207 118.887 90.706C119.409 90.482 120.007 90.37 120.679 90.37ZM120.665 91.938C120.161 91.938 119.741 92.0873 119.405 92.386C119.069 92.6847 118.859 93.058 118.775 93.506H122.331C122.321 93.03 122.172 92.652 121.883 92.372C121.593 92.0827 121.187 91.938 120.665 91.938ZM129.881 90.37C130.88 90.37 131.612 90.6593 132.079 91.238C132.555 91.8073 132.793 92.6707 132.793 93.828V97.622C132.793 97.874 132.672 98 132.429 98H131.169C130.917 98 130.791 97.874 130.791 97.622V94.08C130.791 92.68 130.348 91.98 129.461 91.98C128.976 91.98 128.57 92.1387 128.243 92.456C127.916 92.764 127.697 93.2167 127.585 93.814V97.622C127.585 97.874 127.464 98 127.221 98H125.961C125.718 98 125.597 97.874 125.597 97.622V90.944C125.597 90.7013 125.718 90.58 125.961 90.58H127.123C127.338 90.58 127.482 90.678 127.557 90.874L127.599 91.42C127.888 91.0747 128.234 90.8133 128.635 90.636C129.036 90.4587 129.452 90.37 129.881 90.37ZM135.012 87.5H136.272C136.524 87.5 136.65 87.6213 136.65 87.864V92.806L138.764 90.79C138.904 90.65 139.072 90.58 139.268 90.58H140.682C140.84 90.58 140.938 90.6267 140.976 90.72C141.022 90.804 140.99 90.9067 140.878 91.028L138.064 93.73L141.354 97.552C141.456 97.6733 141.484 97.7807 141.438 97.874C141.391 97.9673 141.288 98.014 141.13 98.014H139.562C139.356 98.014 139.193 97.93 139.072 97.762L136.636 94.906V97.622C136.636 97.874 136.514 98 136.272 98H135.012C134.769 98 134.648 97.874 134.648 97.622V87.864C134.648 87.6213 134.769 87.5 135.012 87.5ZM146.096 90.37C147.981 90.37 148.924 91.3547 148.924 93.324V96.096C148.924 96.2173 148.947 96.3293 148.994 96.432C149.041 96.5253 149.111 96.6047 149.204 96.67C149.297 96.7353 149.405 96.782 149.526 96.81C149.759 96.8847 149.871 97.0153 149.862 97.202V97.86C149.853 98.0933 149.745 98.224 149.54 98.252C149.428 98.2707 149.302 98.28 149.162 98.28C148.667 98.2613 148.247 98.1493 147.902 97.944C147.557 97.7293 147.309 97.44 147.16 97.076C146.917 97.3747 146.577 97.6407 146.138 97.874C145.699 98.1073 145.2 98.224 144.64 98.224C143.903 98.224 143.287 98.0187 142.792 97.608C142.307 97.188 142.064 96.5953 142.064 95.83C142.064 95.4007 142.157 95.0273 142.344 94.71C142.54 94.3833 142.801 94.136 143.128 93.968C143.455 93.7907 143.828 93.6507 144.248 93.548C144.668 93.436 145.107 93.38 145.564 93.38C146.021 93.3707 146.479 93.3753 146.936 93.394C146.936 93.1607 146.922 92.9693 146.894 92.82C146.875 92.6707 146.829 92.5167 146.754 92.358C146.679 92.1993 146.558 92.0827 146.39 92.008C146.222 91.924 146.003 91.882 145.732 91.882C145.069 91.882 144.299 92.1153 143.422 92.582C143.198 92.694 143.025 92.6473 142.904 92.442L142.582 91.896C142.442 91.672 142.535 91.476 142.862 91.308C144.029 90.6827 145.107 90.37 146.096 90.37ZM146.922 95.494V94.542C145.009 94.3833 144.052 94.7613 144.052 95.676C144.052 95.844 144.089 95.998 144.164 96.138C144.248 96.278 144.383 96.3993 144.57 96.502C144.757 96.5953 144.985 96.642 145.256 96.642C145.648 96.642 146.021 96.5207 146.376 96.278C146.74 96.026 146.922 95.7647 146.922 95.494ZM155.242 90.37C156.241 90.37 156.974 90.6593 157.44 91.238C157.916 91.8073 158.154 92.6707 158.154 93.828V97.622C158.154 97.874 158.033 98 157.79 98H156.53C156.278 98 156.152 97.874 156.152 97.622V94.08C156.152 92.68 155.709 91.98 154.822 91.98C154.337 91.98 153.931 92.1387 153.604 92.456C153.278 92.764 153.058 93.2167 152.946 93.814V97.622C152.946 97.874 152.825 98 152.582 98H151.322C151.08 98 150.958 97.874 150.958 97.622V90.944C150.958 90.7013 151.08 90.58 151.322 90.58H152.484C152.699 90.58 152.844 90.678 152.918 90.874L152.96 91.42C153.25 91.0747 153.595 90.8133 153.996 90.636C154.398 90.4587 154.813 90.37 155.242 90.37ZM60.6517 104.5H61.3377C61.4963 104.5 61.5757 104.579 61.5757 104.738V114.762C61.5757 114.921 61.4963 115 61.3377 115H60.7917C60.6423 115 60.5583 114.925 60.5397 114.776V113.768C60.2503 114.207 59.8677 114.557 59.3917 114.818C58.925 115.07 58.4303 115.196 57.9077 115.196C57.4597 115.196 57.035 115.112 56.6337 114.944C56.2323 114.776 55.873 114.533 55.5557 114.216C55.2477 113.899 55.0003 113.488 54.8137 112.984C54.627 112.471 54.5337 111.892 54.5337 111.248C54.5337 110.623 54.627 110.058 54.8137 109.554C55.0097 109.05 55.2663 108.644 55.5837 108.336C55.9103 108.019 56.2743 107.781 56.6757 107.622C57.077 107.454 57.4923 107.37 57.9217 107.37C58.407 107.37 58.869 107.496 59.3077 107.748C59.7557 107.991 60.1243 108.327 60.4137 108.756V104.738C60.4137 104.579 60.493 104.5 60.6517 104.5ZM58.1037 108.364C57.4503 108.364 56.8857 108.621 56.4097 109.134C55.943 109.647 55.7097 110.361 55.7097 111.276C55.7097 112.237 55.9383 112.97 56.3957 113.474C56.853 113.969 57.4083 114.216 58.0617 114.216C58.5937 114.216 59.0837 114.034 59.5317 113.67C59.989 113.297 60.2877 112.821 60.4277 112.242V110.464C60.2783 109.829 59.989 109.321 59.5597 108.938C59.1303 108.555 58.645 108.364 58.1037 108.364ZM66.994 107.37C68.7207 107.37 69.584 108.392 69.584 110.436V113.348C69.584 113.609 69.668 113.838 69.836 114.034C70.004 114.221 70.2373 114.328 70.536 114.356C70.6853 114.393 70.76 114.477 70.76 114.608V115C70.7507 115.159 70.6853 115.243 70.564 115.252C70.4893 115.261 70.4147 115.266 70.34 115.266C69.8267 115.238 69.4207 115.084 69.122 114.804C68.8233 114.524 68.632 114.202 68.548 113.838C68.464 113.959 68.3473 114.09 68.198 114.23C68.0487 114.37 67.8573 114.524 67.624 114.692C67.3907 114.851 67.106 114.981 66.77 115.084C66.434 115.187 66.084 115.238 65.72 115.238C64.964 115.238 64.362 115.023 63.914 114.594C63.466 114.155 63.242 113.591 63.242 112.9C63.242 112.452 63.3447 112.06 63.55 111.724C63.7647 111.388 64.0447 111.136 64.39 110.968C64.7447 110.8 65.146 110.669 65.594 110.576C66.0513 110.473 66.518 110.431 66.994 110.45C67.4793 110.459 67.96 110.483 68.436 110.52C68.436 110.249 68.4267 110.021 68.408 109.834C68.3893 109.647 68.3473 109.451 68.282 109.246C68.2167 109.031 68.128 108.863 68.016 108.742C67.904 108.611 67.7453 108.504 67.54 108.42C67.344 108.327 67.106 108.28 66.826 108.28C66.0887 108.28 65.23 108.574 64.25 109.162C64.11 109.246 63.998 109.218 63.914 109.078L63.732 108.77C63.6387 108.63 63.6853 108.509 63.872 108.406C65.0107 107.715 66.0513 107.37 66.994 107.37ZM68.436 112.578V111.276C68.072 111.229 67.7173 111.201 67.372 111.192C67.0267 111.183 66.6673 111.201 66.294 111.248C65.93 111.295 65.6127 111.374 65.342 111.486C65.0713 111.598 64.8473 111.771 64.67 112.004C64.4927 112.228 64.404 112.503 64.404 112.83C64.404 113.222 64.5487 113.563 64.838 113.852C65.1273 114.141 65.538 114.286 66.07 114.286C66.6207 114.286 67.1527 114.09 67.666 113.698C68.1793 113.306 68.436 112.933 68.436 112.578ZM75.6689 107.37C76.0329 107.37 76.3642 107.435 76.6629 107.566C76.8122 107.603 76.8635 107.701 76.8169 107.86L76.7189 108.308C76.6815 108.457 76.5929 108.513 76.4529 108.476C76.2289 108.373 75.9722 108.322 75.6829 108.322C75.2815 108.322 74.9035 108.429 74.5489 108.644C74.2035 108.859 73.9189 109.125 73.6949 109.442C73.4802 109.75 73.3122 110.067 73.1909 110.394C73.0695 110.711 73.0089 110.996 73.0089 111.248V114.762C73.0089 114.921 72.9249 115 72.7569 115H72.0849C71.9262 115 71.8469 114.921 71.8469 114.762V107.818C71.8469 107.659 71.9262 107.58 72.0849 107.58H72.6309C72.7802 107.58 72.8689 107.65 72.8969 107.79L72.9389 109.316C73.2469 108.681 73.6342 108.201 74.1009 107.874C74.5769 107.538 75.0995 107.37 75.6689 107.37ZM78.3056 105.074H79.1036C79.2716 105.074 79.3556 105.153 79.3556 105.312V105.83C79.3556 105.989 79.2716 106.068 79.1036 106.068H78.3056C78.1469 106.068 78.0676 105.989 78.0676 105.83V105.312C78.0676 105.153 78.1469 105.074 78.3056 105.074ZM78.3756 107.58H79.0476C79.2062 107.58 79.2856 107.659 79.2856 107.818V114.762C79.2856 114.921 79.2062 115 79.0476 115H78.3756C78.2076 115 78.1236 114.921 78.1236 114.762V107.818C78.1236 107.659 78.2076 107.58 78.3756 107.58ZM90.6918 104.92H91.3778C91.5365 104.92 91.6158 104.999 91.6158 105.158V111.388C91.6158 112.76 91.3405 113.74 90.7898 114.328C90.2485 114.916 89.4598 115.21 88.4238 115.21C87.4532 115.21 86.4358 114.911 85.3718 114.314C85.2318 114.239 85.1992 114.127 85.2738 113.978L85.4698 113.544C85.5352 113.404 85.6425 113.367 85.7918 113.432C86.7345 113.945 87.5745 114.202 88.3118 114.202C89.0678 114.202 89.6092 113.964 89.9358 113.488C90.2718 113.003 90.4398 112.293 90.4398 111.36V105.158C90.4398 104.999 90.5238 104.92 90.6918 104.92ZM96.9201 107.37C97.9188 107.37 98.7121 107.65 99.3001 108.21C99.8881 108.77 100.187 109.549 100.196 110.548C100.196 110.819 100.173 111.113 100.126 111.43C100.098 111.57 100.009 111.64 99.8601 111.64H94.4281C94.4654 111.976 94.5401 112.293 94.6521 112.592C94.7641 112.881 94.9181 113.152 95.1141 113.404C95.3194 113.647 95.5808 113.838 95.8981 113.978C96.2154 114.118 96.5794 114.188 96.9901 114.188C97.8861 114.188 98.6141 113.889 99.1741 113.292C99.3048 113.208 99.4168 113.227 99.5101 113.348L99.7481 113.726C99.8414 113.857 99.8321 113.969 99.7201 114.062C99.0108 114.818 98.0774 115.196 96.9201 115.196C96.1921 115.196 95.5528 115.042 95.0021 114.734C94.4514 114.426 94.0221 113.978 93.7141 113.39C93.4061 112.802 93.2474 112.102 93.2381 111.29C93.2381 110.767 93.3128 110.273 93.4621 109.806C93.6208 109.339 93.8494 108.924 94.1481 108.56C94.4561 108.196 94.8481 107.907 95.3241 107.692C95.8001 107.477 96.3321 107.37 96.9201 107.37ZM96.9061 108.322C96.2154 108.322 95.6461 108.56 95.1981 109.036C94.7501 109.503 94.4981 110.086 94.4421 110.786H99.1041C99.1414 110.291 99.0854 109.862 98.9361 109.498C98.7961 109.134 98.5534 108.849 98.2081 108.644C97.8628 108.429 97.4288 108.322 96.9061 108.322ZM105.692 107.37C106.122 107.37 106.528 107.449 106.91 107.608C107.302 107.767 107.652 108 107.96 108.308C108.268 108.607 108.511 109.003 108.688 109.498C108.866 109.983 108.954 110.534 108.954 111.15C108.954 112.307 108.651 113.273 108.044 114.048C107.438 114.813 106.626 115.196 105.608 115.196C105.086 115.196 104.591 115.084 104.124 114.86C103.667 114.636 103.317 114.314 103.074 113.894V118.906C103.074 119.065 102.995 119.144 102.836 119.144H102.164C101.996 119.144 101.912 119.065 101.912 118.906V107.818C101.912 107.659 101.996 107.58 102.164 107.58H102.752C102.902 107.58 102.99 107.65 103.018 107.79L103.046 108.812C103.317 108.373 103.695 108.023 104.18 107.762C104.666 107.501 105.17 107.37 105.692 107.37ZM105.51 108.364C104.95 108.364 104.437 108.56 103.97 108.952C103.504 109.335 103.2 109.843 103.06 110.478V112.382C103.238 113.007 103.55 113.474 103.998 113.782C104.446 114.081 104.922 114.23 105.426 114.23C106.164 114.23 106.738 113.941 107.148 113.362C107.568 112.783 107.778 112.06 107.778 111.192C107.778 110.744 107.713 110.338 107.582 109.974C107.461 109.601 107.293 109.302 107.078 109.078C106.873 108.845 106.635 108.667 106.364 108.546C106.094 108.425 105.809 108.364 105.51 108.364ZM114.135 107.37C115.861 107.37 116.725 108.392 116.725 110.436V113.348C116.725 113.609 116.809 113.838 116.977 114.034C117.145 114.221 117.378 114.328 117.677 114.356C117.826 114.393 117.901 114.477 117.901 114.608V115C117.891 115.159 117.826 115.243 117.705 115.252C117.63 115.261 117.555 115.266 117.481 115.266C116.967 115.238 116.561 115.084 116.263 114.804C115.964 114.524 115.773 114.202 115.689 113.838C115.605 113.959 115.488 114.09 115.339 114.23C115.189 114.37 114.998 114.524 114.765 114.692C114.531 114.851 114.247 114.981 113.911 115.084C113.575 115.187 113.225 115.238 112.861 115.238C112.105 115.238 111.503 115.023 111.055 114.594C110.607 114.155 110.383 113.591 110.383 112.9C110.383 112.452 110.485 112.06 110.691 111.724C110.905 111.388 111.185 111.136 111.531 110.968C111.885 110.8 112.287 110.669 112.735 110.576C113.192 110.473 113.659 110.431 114.135 110.45C114.62 110.459 115.101 110.483 115.577 110.52C115.577 110.249 115.567 110.021 115.549 109.834C115.53 109.647 115.488 109.451 115.423 109.246C115.357 109.031 115.269 108.863 115.157 108.742C115.045 108.611 114.886 108.504 114.681 108.42C114.485 108.327 114.247 108.28 113.967 108.28C113.229 108.28 112.371 108.574 111.391 109.162C111.251 109.246 111.139 109.218 111.055 109.078L110.873 108.77C110.779 108.63 110.826 108.509 111.013 108.406C112.151 107.715 113.192 107.37 114.135 107.37ZM115.577 112.578V111.276C115.213 111.229 114.858 111.201 114.513 111.192C114.167 111.183 113.808 111.201 113.435 111.248C113.071 111.295 112.753 111.374 112.483 111.486C112.212 111.598 111.988 111.771 111.811 112.004C111.633 112.228 111.545 112.503 111.545 112.83C111.545 113.222 111.689 113.563 111.979 113.852C112.268 114.141 112.679 114.286 113.211 114.286C113.761 114.286 114.293 114.09 114.807 113.698C115.32 113.306 115.577 112.933 115.577 112.578ZM122.893 107.356C123.808 107.356 124.461 107.655 124.853 108.252C125.245 108.84 125.441 109.68 125.441 110.772V114.762C125.441 114.921 125.357 115 125.189 115H124.517C124.359 115 124.279 114.921 124.279 114.762V110.898C124.279 110.515 124.256 110.184 124.209 109.904C124.163 109.615 124.083 109.349 123.971 109.106C123.859 108.854 123.696 108.663 123.481 108.532C123.267 108.401 123.001 108.336 122.683 108.336C122.105 108.336 121.605 108.513 121.185 108.868C120.765 109.213 120.434 109.699 120.191 110.324V114.762C120.191 114.921 120.112 115 119.953 115H119.281C119.113 115 119.029 114.921 119.029 114.762V107.818C119.029 107.659 119.113 107.58 119.281 107.58H119.911C120.051 107.58 120.14 107.645 120.177 107.776L120.191 108.798C120.369 108.555 120.565 108.345 120.779 108.168C120.994 107.981 121.218 107.832 121.451 107.72C121.685 107.599 121.923 107.51 122.165 107.454C122.408 107.389 122.651 107.356 122.893 107.356ZM130.547 107.37C131.051 107.37 131.523 107.496 131.961 107.748C132.4 108 132.759 108.345 133.039 108.784L133.067 107.762C133.114 107.641 133.207 107.58 133.347 107.58H133.977C134.136 107.58 134.215 107.659 134.215 107.818V115.686C134.178 118.029 133.067 119.2 130.883 119.2C129.623 119.2 128.489 118.869 127.481 118.206C127.341 118.141 127.304 118.038 127.369 117.898L127.537 117.478C127.603 117.338 127.71 117.305 127.859 117.38C128.261 117.651 128.709 117.861 129.203 118.01C129.707 118.159 130.193 118.234 130.659 118.234C131.509 118.234 132.115 118.015 132.479 117.576C132.843 117.137 133.035 116.484 133.053 115.616V113.838C132.764 114.258 132.4 114.589 131.961 114.832C131.523 115.075 131.047 115.196 130.533 115.196C130.085 115.196 129.661 115.112 129.259 114.944C128.858 114.776 128.499 114.533 128.181 114.216C127.873 113.899 127.626 113.488 127.439 112.984C127.253 112.471 127.159 111.892 127.159 111.248C127.159 110.623 127.253 110.058 127.439 109.554C127.635 109.05 127.892 108.644 128.209 108.336C128.536 108.019 128.9 107.781 129.301 107.622C129.703 107.454 130.118 107.37 130.547 107.37ZM130.715 108.364C130.071 108.364 129.511 108.621 129.035 109.134C128.569 109.647 128.335 110.361 128.335 111.276C128.335 112.237 128.564 112.97 129.021 113.474C129.479 113.969 130.034 114.216 130.687 114.216C131.219 114.216 131.709 114.034 132.157 113.67C132.615 113.297 132.913 112.821 133.053 112.242V110.464C132.904 109.829 132.615 109.321 132.185 108.938C131.756 108.555 131.266 108.364 130.715 108.364Z" fill="#7E222F"/>
</g>
<defs>
<filter id="filter0_b_825_570" x="-15" y="-15" width="219" height="163" filterUnits="userSpaceOnUse" color-interpolation-filters="sRGB">
<feFlood flood-opacity="0" result="BackgroundImageFix"/>
<feGaussianBlur in="BackgroundImageFix" stdDeviation="7.5"/>
<feComposite in2="SourceAlpha" operator="in" result="effect1_backgroundBlur_825_570"/>
<feBlend mode="normal" in="SourceGraphic" in2="effect1_backgroundBlur_825_570" result="shape"/>
</filter>
<linearGradient id="paint0_linear_825_570" x1="94.5" y1="0" x2="94.5" y2="133" gradientUnits="userSpaceOnUse">
<stop stop-color="white" stop-opacity="0.8"/>
<stop offset="1" stop-color="white" stop-opacity="0.25"/>
</linearGradient>
</defs>
</svg>
