<svg width="183" height="133" viewBox="0 0 183 133" fill="none" xmlns="http://www.w3.org/2000/svg">
<g filter="url(#filter0_b_825_481)">
<rect x="0.640137" width="182" height="133" rx="12" fill="url(#paint0_linear_825_481)"/>
<rect x="1.64014" y="1" width="180" height="131" rx="11" stroke="white" stroke-width="2"/>
<circle cx="91.6401" cy="41.5" r="29" fill="white" stroke="#E0E0E0"/>
<circle cx="92" cy="42" r="6.5" fill="#EF2121" stroke="#E0E0E0"/>
<path d="M17.7387 87.92H19.0127C19.2647 87.92 19.3907 88.046 19.3907 88.298V97.622C19.3907 97.874 19.2647 98 19.0127 98H17.7387C17.496 98 17.3747 97.874 17.3747 97.622V88.298C17.3747 88.046 17.496 87.92 17.7387 87.92ZM25.4321 90.37C26.4308 90.37 27.1634 90.6593 27.6301 91.238C28.1061 91.8073 28.3441 92.6707 28.3441 93.828V97.622C28.3441 97.874 28.2228 98 27.9801 98H26.7201C26.4681 98 26.3421 97.874 26.3421 97.622V94.08C26.3421 92.68 25.8988 91.98 25.0121 91.98C24.5268 91.98 24.1208 92.1387 23.7941 92.456C23.4674 92.764 23.2481 93.2167 23.1361 93.814V97.622C23.1361 97.874 23.0148 98 22.7721 98H21.5121C21.2694 98 21.1481 97.874 21.1481 97.622V90.944C21.1481 90.7013 21.2694 90.58 21.5121 90.58H22.6741C22.8888 90.58 23.0334 90.678 23.1081 90.874L23.1501 91.42C23.4394 91.0747 23.7848 90.8133 24.1861 90.636C24.5874 90.4587 25.0028 90.37 25.4321 90.37ZM33.4749 90.37C33.9136 90.37 34.3242 90.4633 34.7069 90.65C35.0989 90.8367 35.4162 91.0887 35.6589 91.406L35.7429 90.832C35.8362 90.664 35.9809 90.58 36.1769 90.58H37.3389C37.5909 90.58 37.7169 90.7013 37.7169 90.944V98.546C37.6982 100.982 36.5036 102.2 34.1329 102.2C32.9382 102.2 31.7622 101.925 30.6049 101.374C30.3809 101.29 30.3062 101.131 30.3809 100.898L30.6329 100.17C30.7169 99.9367 30.8756 99.862 31.1089 99.946C31.9769 100.385 32.8169 100.604 33.6289 100.604C34.4036 100.604 34.9402 100.431 35.2389 100.086C35.5376 99.7407 35.6916 99.2087 35.7009 98.49V97.244C35.1689 97.8787 34.4362 98.196 33.5029 98.196C32.4856 98.196 31.6362 97.8413 30.9549 97.132C30.2736 96.4227 29.9329 95.452 29.9329 94.22C29.9329 93.604 30.0309 93.0487 30.2269 92.554C30.4229 92.05 30.6842 91.644 31.0109 91.336C31.3376 91.028 31.7109 90.79 32.1309 90.622C32.5509 90.454 32.9989 90.37 33.4749 90.37ZM33.8249 91.994C33.3022 91.994 32.8636 92.204 32.5089 92.624C32.1542 93.0347 31.9769 93.5853 31.9769 94.276C31.9769 95.032 32.1496 95.606 32.4949 95.998C32.8496 96.39 33.2929 96.586 33.8249 96.586C34.2636 96.586 34.6696 96.4367 35.0429 96.138C35.4162 95.83 35.6356 95.438 35.7009 94.962V93.884C35.6356 93.296 35.4256 92.834 35.0709 92.498C34.7256 92.162 34.3102 91.994 33.8249 91.994ZM43.7241 90.37C44.0321 90.37 44.3168 90.412 44.5781 90.496C44.8021 90.552 44.8908 90.7013 44.8441 90.944L44.7041 91.742C44.6574 91.9753 44.5314 92.0687 44.3261 92.022C44.1581 91.966 43.9668 91.938 43.7521 91.938C43.3414 91.938 42.9494 92.0547 42.5761 92.288C42.2121 92.512 41.9228 92.8153 41.7081 93.198C41.4934 93.5713 41.3861 93.968 41.3861 94.388V97.622C41.3861 97.874 41.2601 98 41.0081 98H39.7621C39.5101 98 39.3841 97.874 39.3841 97.622V90.944C39.3841 90.7013 39.5101 90.58 39.7621 90.58H40.7421C40.9661 90.58 41.1061 90.6827 41.1621 90.888L41.2461 91.854C41.5261 91.3687 41.8854 91 42.3241 90.748C42.7628 90.496 43.2294 90.37 43.7241 90.37ZM49.2474 90.37C50.2928 90.37 51.1328 90.6733 51.7674 91.28C52.4021 91.8773 52.7194 92.6987 52.7194 93.744C52.7194 94.0147 52.6961 94.2853 52.6494 94.556C52.6028 94.7613 52.4628 94.864 52.2294 94.864H47.3014C47.4134 95.3587 47.6468 95.7647 48.0014 96.082C48.3561 96.3993 48.8368 96.558 49.4434 96.558C50.1154 96.558 50.6754 96.376 51.1234 96.012C51.3474 95.9187 51.5154 95.9653 51.6274 96.152L52.0054 96.866C52.1361 97.0807 52.1081 97.2487 51.9214 97.37C51.2588 97.9207 50.3861 98.196 49.3034 98.196C48.4914 98.196 47.7868 98.0513 47.1894 97.762C46.5921 97.4633 46.1208 97.02 45.7754 96.432C45.4394 95.8347 45.2714 95.1207 45.2714 94.29C45.2621 93.7767 45.3368 93.2913 45.4954 92.834C45.6541 92.3767 45.8874 91.9613 46.1954 91.588C46.5128 91.2147 46.9328 90.9207 47.4554 90.706C47.9781 90.482 48.5754 90.37 49.2474 90.37ZM49.2334 91.938C48.7294 91.938 48.3094 92.0873 47.9734 92.386C47.6374 92.6847 47.4274 93.058 47.3434 93.506H50.8994C50.8901 93.03 50.7408 92.652 50.4514 92.372C50.1621 92.0827 49.7561 91.938 49.2334 91.938ZM60.017 87.5H61.277C61.5197 87.5 61.641 87.6213 61.641 87.864V97.622C61.641 97.874 61.5197 98 61.277 98H60.311C60.0777 98 59.947 97.8833 59.919 97.65L59.905 97.104C59.6437 97.4307 59.2937 97.6967 58.855 97.902C58.4164 98.098 57.959 98.196 57.483 98.196C56.475 98.196 55.6257 97.8413 54.935 97.132C54.2537 96.4227 53.913 95.452 53.913 94.22C53.913 93.7253 53.9737 93.268 54.095 92.848C54.2257 92.428 54.403 92.0687 54.627 91.77C54.851 91.462 55.1124 91.2053 55.411 91C55.7097 90.7853 56.0317 90.6267 56.377 90.524C56.7224 90.4213 57.0817 90.37 57.455 90.37C57.8657 90.37 58.267 90.4587 58.659 90.636C59.0604 90.8133 59.3917 91.056 59.653 91.364V87.864C59.653 87.6213 59.7744 87.5 60.017 87.5ZM57.805 92.022C57.469 92.022 57.161 92.1107 56.881 92.288C56.601 92.4653 56.377 92.7267 56.209 93.072C56.041 93.4173 55.957 93.8187 55.957 94.276C55.957 95.032 56.1344 95.6013 56.489 95.984C56.8437 96.3667 57.2824 96.558 57.805 96.558C58.2437 96.558 58.6497 96.4133 59.023 96.124C59.3964 95.8253 59.6204 95.438 59.695 94.962V93.884C59.6204 93.3053 59.4104 92.8527 59.065 92.526C58.7197 92.19 58.2997 92.022 57.805 92.022ZM63.7579 87.766H65.0739C65.3165 87.766 65.4379 87.892 65.4379 88.144V88.984C65.4379 89.236 65.3165 89.362 65.0739 89.362H63.7579C63.5059 89.362 63.3799 89.236 63.3799 88.984V88.144C63.3799 87.892 63.5059 87.766 63.7579 87.766ZM63.7859 90.58H65.0459C65.2885 90.58 65.4099 90.7013 65.4099 90.944V97.622C65.4099 97.874 65.2885 98 65.0459 98H63.7859C63.5339 98 63.4079 97.874 63.4079 97.622V90.944C63.4079 90.7013 63.5339 90.58 63.7859 90.58ZM70.8216 90.37C71.867 90.37 72.707 90.6733 73.3416 91.28C73.9763 91.8773 74.2936 92.6987 74.2936 93.744C74.2936 94.0147 74.2703 94.2853 74.2236 94.556C74.177 94.7613 74.037 94.864 73.8036 94.864H68.8756C68.9876 95.3587 69.221 95.7647 69.5756 96.082C69.9303 96.3993 70.411 96.558 71.0176 96.558C71.6896 96.558 72.2496 96.376 72.6976 96.012C72.9216 95.9187 73.0896 95.9653 73.2016 96.152L73.5796 96.866C73.7103 97.0807 73.6823 97.2487 73.4956 97.37C72.833 97.9207 71.9603 98.196 70.8776 98.196C70.0656 98.196 69.361 98.0513 68.7636 97.762C68.1663 97.4633 67.695 97.02 67.3496 96.432C67.0136 95.8347 66.8456 95.1207 66.8456 94.29C66.8363 93.7767 66.911 93.2913 67.0696 92.834C67.2283 92.3767 67.4616 91.9613 67.7696 91.588C68.087 91.2147 68.507 90.9207 69.0296 90.706C69.5523 90.482 70.1496 90.37 70.8216 90.37ZM70.8076 91.938C70.3036 91.938 69.8836 92.0873 69.5476 92.386C69.2116 92.6847 69.0016 93.058 68.9176 93.506H72.4736C72.4643 93.03 72.315 92.652 72.0256 92.372C71.7363 92.0827 71.3303 91.938 70.8076 91.938ZM80.0239 90.37C81.0226 90.37 81.7552 90.6593 82.2219 91.238C82.6979 91.8073 82.9359 92.6707 82.9359 93.828V97.622C82.9359 97.874 82.8146 98 82.5719 98H81.3119C81.0599 98 80.9339 97.874 80.9339 97.622V94.08C80.9339 92.68 80.4906 91.98 79.6039 91.98C79.1186 91.98 78.7126 92.1387 78.3859 92.456C78.0592 92.764 77.8399 93.2167 77.7279 93.814V97.622C77.7279 97.874 77.6066 98 77.3639 98H76.1039C75.8612 98 75.7399 97.874 75.7399 97.622V90.944C75.7399 90.7013 75.8612 90.58 76.1039 90.58H77.2659C77.4806 90.58 77.6252 90.678 77.6999 90.874L77.7419 91.42C78.0312 91.0747 78.3766 90.8133 78.7779 90.636C79.1792 90.4587 79.5946 90.37 80.0239 90.37ZM85.4263 87.92H86.6863C86.9383 87.92 87.0643 88.0413 87.0643 88.284V90.58H88.4923C88.7443 90.58 88.8703 90.706 88.8703 90.958V91.644C88.8703 91.8867 88.7443 92.008 88.4923 92.008H87.0643L87.0503 95.214C87.0503 96.1287 87.4516 96.586 88.2543 96.586C88.4783 96.586 88.7629 96.5113 89.1083 96.362C89.3603 96.2873 89.5096 96.362 89.5563 96.586L89.7243 97.356C89.7803 97.5893 89.7056 97.7433 89.5003 97.818C88.8749 98.0887 88.2636 98.224 87.6663 98.224C86.8729 98.224 86.2383 98.0233 85.7623 97.622C85.2956 97.2207 85.0623 96.5673 85.0623 95.662V92.008H84.2503C84.0076 92.008 83.8863 91.8867 83.8863 91.644V90.958C83.8863 90.706 84.0076 90.58 84.2503 90.58H85.0623V88.284C85.0623 88.0413 85.1836 87.92 85.4263 87.92ZM93.7756 90.356C94.6716 90.356 95.619 90.5707 96.6176 91C96.8323 91.0933 96.893 91.2567 96.7996 91.49L96.5476 92.148C96.4543 92.3627 96.2956 92.4373 96.0716 92.372C95.0636 92.064 94.2936 91.91 93.7616 91.91C93.4256 91.91 93.127 91.9753 92.8656 92.106C92.6043 92.2273 92.4736 92.4187 92.4736 92.68C92.4736 92.8387 92.539 92.974 92.6696 93.086C92.8003 93.1887 92.973 93.268 93.1876 93.324C93.4116 93.3707 93.659 93.422 93.9296 93.478C94.2096 93.534 94.4943 93.5853 94.7836 93.632C95.0823 93.6787 95.367 93.758 95.6376 93.87C95.9176 93.9727 96.165 94.0987 96.3796 94.248C96.6036 94.3973 96.781 94.6027 96.9116 94.864C97.0423 95.1253 97.1076 95.4333 97.1076 95.788C97.1076 96.5347 96.809 97.1227 96.2116 97.552C95.6236 97.9813 94.8583 98.196 93.9156 98.196C92.917 98.196 91.8063 97.972 90.5836 97.524C90.3503 97.4307 90.285 97.2673 90.3876 97.034L90.6956 96.334C90.7983 96.1193 90.9616 96.054 91.1856 96.138C92.259 96.5113 93.1503 96.698 93.8596 96.698C94.1956 96.698 94.471 96.6327 94.6856 96.502C94.9096 96.3713 95.0216 96.1753 95.0216 95.914C95.0216 95.7553 94.9563 95.6247 94.8256 95.522C94.695 95.41 94.5223 95.3307 94.3076 95.284C94.093 95.2373 93.8456 95.186 93.5656 95.13C93.2856 95.074 93.001 95.0273 92.7116 94.99C92.4316 94.9433 92.1516 94.8687 91.8716 94.766C91.601 94.654 91.3536 94.5233 91.1296 94.374C90.915 94.2247 90.7423 94.0147 90.6116 93.744C90.481 93.4733 90.4156 93.1607 90.4156 92.806C90.4156 92.3767 90.5043 92.0033 90.6816 91.686C90.8683 91.3593 91.1203 91.1027 91.4376 90.916C91.7643 90.7293 92.119 90.5893 92.5016 90.496C92.8936 90.4027 93.3183 90.356 93.7756 90.356ZM103.502 87.92H107.842C108.729 87.92 109.462 88.2233 110.04 88.83C110.619 89.4367 110.908 90.2347 110.908 91.224C110.908 91.5693 110.871 91.896 110.796 92.204C110.731 92.512 110.633 92.7873 110.502 93.03C110.372 93.2727 110.213 93.492 110.026 93.688C109.849 93.884 109.644 94.0473 109.41 94.178C109.186 94.3087 108.939 94.4067 108.668 94.472C108.407 94.5373 108.132 94.57 107.842 94.57H105.154V97.622C105.154 97.874 105.028 98 104.776 98H103.502C103.26 98 103.138 97.874 103.138 97.622V88.298C103.138 88.046 103.26 87.92 103.502 87.92ZM107.338 89.46H105.154V93.044H107.338C107.534 93.044 107.726 93.0067 107.912 92.932C108.099 92.848 108.272 92.736 108.43 92.596C108.589 92.4467 108.715 92.2553 108.808 92.022C108.902 91.7793 108.948 91.5133 108.948 91.224C108.948 90.664 108.785 90.23 108.458 89.922C108.141 89.614 107.768 89.46 107.338 89.46ZM115.885 90.37C117.771 90.37 118.713 91.3547 118.713 93.324V96.096C118.713 96.2173 118.737 96.3293 118.783 96.432C118.83 96.5253 118.9 96.6047 118.993 96.67C119.087 96.7353 119.194 96.782 119.315 96.81C119.549 96.8847 119.661 97.0153 119.651 97.202V97.86C119.642 98.0933 119.535 98.224 119.329 98.252C119.217 98.2707 119.091 98.28 118.951 98.28C118.457 98.2613 118.037 98.1493 117.691 97.944C117.346 97.7293 117.099 97.44 116.949 97.076C116.707 97.3747 116.366 97.6407 115.927 97.874C115.489 98.1073 114.989 98.224 114.429 98.224C113.692 98.224 113.076 98.0187 112.581 97.608C112.096 97.188 111.853 96.5953 111.853 95.83C111.853 95.4007 111.947 95.0273 112.133 94.71C112.329 94.3833 112.591 94.136 112.917 93.968C113.244 93.7907 113.617 93.6507 114.037 93.548C114.457 93.436 114.896 93.38 115.353 93.38C115.811 93.3707 116.268 93.3753 116.725 93.394C116.725 93.1607 116.711 92.9693 116.683 92.82C116.665 92.6707 116.618 92.5167 116.543 92.358C116.469 92.1993 116.347 92.0827 116.179 92.008C116.011 91.924 115.792 91.882 115.521 91.882C114.859 91.882 114.089 92.1153 113.211 92.582C112.987 92.694 112.815 92.6473 112.693 92.442L112.371 91.896C112.231 91.672 112.325 91.476 112.651 91.308C113.818 90.6827 114.896 90.37 115.885 90.37ZM116.711 95.494V94.542C114.798 94.3833 113.841 94.7613 113.841 95.676C113.841 95.844 113.879 95.998 113.953 96.138C114.037 96.278 114.173 96.3993 114.359 96.502C114.546 96.5953 114.775 96.642 115.045 96.642C115.437 96.642 115.811 96.5207 116.165 96.278C116.529 96.026 116.711 95.7647 116.711 95.494ZM121.383 87.92H122.643C122.895 87.92 123.021 88.0413 123.021 88.284V90.58H124.449C124.701 90.58 124.827 90.706 124.827 90.958V91.644C124.827 91.8867 124.701 92.008 124.449 92.008H123.021L123.007 95.214C123.007 96.1287 123.409 96.586 124.211 96.586C124.435 96.586 124.72 96.5113 125.065 96.362C125.317 96.2873 125.467 96.362 125.513 96.586L125.681 97.356C125.737 97.5893 125.663 97.7433 125.457 97.818C124.832 98.0887 124.221 98.224 123.623 98.224C122.83 98.224 122.195 98.0233 121.719 97.622C121.253 97.2207 121.019 96.5673 121.019 95.662V92.008H120.207C119.965 92.008 119.843 91.8867 119.843 91.644V90.958C119.843 90.706 119.965 90.58 120.207 90.58H121.019V88.284C121.019 88.0413 121.141 87.92 121.383 87.92ZM130.144 90.37C131.189 90.37 132.029 90.6733 132.664 91.28C133.299 91.8773 133.616 92.6987 133.616 93.744C133.616 94.0147 133.593 94.2853 133.546 94.556C133.499 94.7613 133.359 94.864 133.126 94.864H128.198C128.31 95.3587 128.543 95.7647 128.898 96.082C129.253 96.3993 129.733 96.558 130.34 96.558C131.012 96.558 131.572 96.376 132.02 96.012C132.244 95.9187 132.412 95.9653 132.524 96.152L132.902 96.866C133.033 97.0807 133.005 97.2487 132.818 97.37C132.155 97.9207 131.283 98.196 130.2 98.196C129.388 98.196 128.683 98.0513 128.086 97.762C127.489 97.4633 127.017 97.02 126.672 96.432C126.336 95.8347 126.168 95.1207 126.168 94.29C126.159 93.7767 126.233 93.2913 126.392 92.834C126.551 92.3767 126.784 91.9613 127.092 91.588C127.409 91.2147 127.829 90.9207 128.352 90.706C128.875 90.482 129.472 90.37 130.144 90.37ZM130.13 91.938C129.626 91.938 129.206 92.0873 128.87 92.386C128.534 92.6847 128.324 93.058 128.24 93.506H131.796C131.787 93.03 131.637 92.652 131.348 92.372C131.059 92.0827 130.653 91.938 130.13 91.938ZM139.346 90.37C140.345 90.37 141.078 90.6593 141.544 91.238C142.02 91.8073 142.258 92.6707 142.258 93.828V97.622C142.258 97.874 142.137 98 141.894 98H140.634C140.382 98 140.256 97.874 140.256 97.622V94.08C140.256 92.68 139.813 91.98 138.926 91.98C138.441 91.98 138.035 92.1387 137.708 92.456C137.382 92.764 137.162 93.2167 137.05 93.814V97.622C137.05 97.874 136.929 98 136.686 98H135.426C135.184 98 135.062 97.874 135.062 97.622V90.944C135.062 90.7013 135.184 90.58 135.426 90.58H136.588C136.803 90.58 136.948 90.678 137.022 90.874L137.064 91.42C137.354 91.0747 137.699 90.8133 138.1 90.636C138.502 90.4587 138.917 90.37 139.346 90.37ZM144.749 87.92H146.009C146.261 87.92 146.387 88.0413 146.387 88.284V90.58H147.815C148.067 90.58 148.193 90.706 148.193 90.958V91.644C148.193 91.8867 148.067 92.008 147.815 92.008H146.387L146.373 95.214C146.373 96.1287 146.774 96.586 147.577 96.586C147.801 96.586 148.085 96.5113 148.431 96.362C148.683 96.2873 148.832 96.362 148.879 96.586L149.047 97.356C149.103 97.5893 149.028 97.7433 148.823 97.818C148.197 98.0887 147.586 98.224 146.989 98.224C146.195 98.224 145.561 98.0233 145.085 97.622C144.618 97.2207 144.385 96.5673 144.385 95.662V92.008H143.573C143.33 92.008 143.209 91.8867 143.209 91.644V90.958C143.209 90.706 143.33 90.58 143.573 90.58H144.385V88.284C144.385 88.0413 144.506 87.92 144.749 87.92ZM153.509 90.37C154.554 90.37 155.394 90.6733 156.029 91.28C156.664 91.8773 156.981 92.6987 156.981 93.744C156.981 94.0147 156.958 94.2853 156.911 94.556C156.864 94.7613 156.724 94.864 156.491 94.864H151.563C151.675 95.3587 151.908 95.7647 152.263 96.082C152.618 96.3993 153.098 96.558 153.705 96.558C154.377 96.558 154.937 96.376 155.385 96.012C155.609 95.9187 155.777 95.9653 155.889 96.152L156.267 96.866C156.398 97.0807 156.37 97.2487 156.183 97.37C155.52 97.9207 154.648 98.196 153.565 98.196C152.753 98.196 152.048 98.0513 151.451 97.762C150.854 97.4633 150.382 97.02 150.037 96.432C149.701 95.8347 149.533 95.1207 149.533 94.29C149.524 93.7767 149.598 93.2913 149.757 92.834C149.916 92.3767 150.149 91.9613 150.457 91.588C150.774 91.2147 151.194 90.9207 151.717 90.706C152.24 90.482 152.837 90.37 153.509 90.37ZM153.495 91.938C152.991 91.938 152.571 92.0873 152.235 92.386C151.899 92.6847 151.689 93.058 151.605 93.506H155.161C155.152 93.03 155.002 92.652 154.713 92.372C154.424 92.0827 154.018 91.938 153.495 91.938ZM164.279 87.5H165.539C165.781 87.5 165.903 87.6213 165.903 87.864V97.622C165.903 97.874 165.781 98 165.539 98H164.573C164.339 98 164.209 97.8833 164.181 97.65L164.167 97.104C163.905 97.4307 163.555 97.6967 163.117 97.902C162.678 98.098 162.221 98.196 161.745 98.196C160.737 98.196 159.887 97.8413 159.197 97.132C158.515 96.4227 158.175 95.452 158.175 94.22C158.175 93.7253 158.235 93.268 158.357 92.848C158.487 92.428 158.665 92.0687 158.889 91.77C159.113 91.462 159.374 91.2053 159.673 91C159.971 90.7853 160.293 90.6267 160.639 90.524C160.984 90.4213 161.343 90.37 161.717 90.37C162.127 90.37 162.529 90.4587 162.921 90.636C163.322 90.8133 163.653 91.056 163.915 91.364V87.864C163.915 87.6213 164.036 87.5 164.279 87.5ZM162.067 92.022C161.731 92.022 161.423 92.1107 161.143 92.288C160.863 92.4653 160.639 92.7267 160.471 93.072C160.303 93.4173 160.219 93.8187 160.219 94.276C160.219 95.032 160.396 95.6013 160.751 95.984C161.105 96.3667 161.544 96.558 162.067 96.558C162.505 96.558 162.911 96.4133 163.285 96.124C163.658 95.8253 163.882 95.438 163.957 94.962V93.884C163.882 93.3053 163.672 92.8527 163.327 92.526C162.981 92.19 162.561 92.022 162.067 92.022ZM56.5651 104.304C57.3957 104.304 58.1331 104.565 58.7771 105.088C58.9077 105.191 58.9171 105.307 58.8051 105.438L58.5671 105.746C58.4831 105.858 58.3711 105.872 58.2311 105.788C58.1191 105.695 57.9837 105.611 57.8251 105.536C57.6664 105.452 57.4891 105.382 57.2931 105.326C57.0971 105.27 56.9057 105.242 56.7191 105.242C56.4484 105.242 56.2104 105.303 56.0051 105.424C55.7997 105.545 55.6411 105.704 55.5291 105.9C55.4171 106.087 55.3331 106.283 55.2771 106.488C55.2304 106.684 55.2071 106.88 55.2071 107.076V107.622H56.9291C57.0971 107.622 57.1811 107.701 57.1811 107.86V108.266C57.1811 108.425 57.0971 108.504 56.9291 108.504H55.2071V114.762C55.2071 114.921 55.1277 115 54.9691 115H54.2831C54.1151 115 54.0311 114.921 54.0311 114.762V108.504H52.8551C52.6871 108.504 52.6031 108.425 52.6031 108.266V107.86C52.6031 107.701 52.6871 107.622 52.8551 107.622H54.0311V107.076C54.0311 106.283 54.2457 105.625 54.6751 105.102C55.1137 104.57 55.7437 104.304 56.5651 104.304ZM62.0629 107.37C62.4269 107.37 62.7582 107.435 63.0569 107.566C63.2062 107.603 63.2576 107.701 63.2109 107.86L63.1129 108.308C63.0756 108.457 62.9869 108.513 62.8469 108.476C62.6229 108.373 62.3662 108.322 62.0769 108.322C61.6756 108.322 61.2976 108.429 60.9429 108.644C60.5976 108.859 60.3129 109.125 60.0889 109.442C59.8742 109.75 59.7062 110.067 59.5849 110.394C59.4636 110.711 59.4029 110.996 59.4029 111.248V114.762C59.4029 114.921 59.3189 115 59.1509 115H58.4789C58.3202 115 58.2409 114.921 58.2409 114.762V107.818C58.2409 107.659 58.3202 107.58 58.4789 107.58H59.0249C59.1742 107.58 59.2629 107.65 59.2909 107.79L59.3329 109.316C59.6409 108.681 60.0282 108.201 60.4949 107.874C60.9709 107.538 61.4936 107.37 62.0629 107.37ZM67.5251 107.37C68.6264 107.37 69.5177 107.739 70.1991 108.476C70.8804 109.213 71.2211 110.151 71.2211 111.29C71.2211 112.419 70.8804 113.353 70.1991 114.09C69.5177 114.827 68.6264 115.196 67.5251 115.196C66.4237 115.196 65.5324 114.827 64.8511 114.09C64.1697 113.353 63.8291 112.419 63.8291 111.29C63.8291 110.151 64.1697 109.213 64.8511 108.476C65.5324 107.739 66.4237 107.37 67.5251 107.37ZM69.3451 109.176C68.8691 108.616 68.2624 108.336 67.5251 108.336C66.7877 108.336 66.1811 108.616 65.7051 109.176C65.2384 109.727 65.0051 110.427 65.0051 111.276C65.0051 111.836 65.1077 112.34 65.3131 112.788C65.5277 113.236 65.8264 113.586 66.2091 113.838C66.6011 114.09 67.0397 114.216 67.5251 114.216C68.2624 114.216 68.8691 113.941 69.3451 113.39C69.8211 112.83 70.0591 112.125 70.0591 111.276C70.0591 110.427 69.8211 109.727 69.3451 109.176ZM81.4508 107.342C81.7868 107.342 82.0808 107.384 82.3328 107.468C82.5942 107.543 82.8042 107.664 82.9628 107.832C83.1308 107.991 83.2708 108.173 83.3828 108.378C83.4948 108.574 83.5788 108.812 83.6348 109.092C83.6908 109.363 83.7282 109.629 83.7468 109.89C83.7655 110.142 83.7748 110.436 83.7748 110.772V114.762C83.7748 114.921 83.6955 115 83.5368 115H82.8648C82.6968 115 82.6128 114.921 82.6128 114.762V110.898C82.6128 110.879 82.6128 110.847 82.6128 110.8C82.6128 110.576 82.6128 110.408 82.6128 110.296C82.6128 110.184 82.6035 110.025 82.5848 109.82C82.5662 109.615 82.5382 109.456 82.5008 109.344C82.4728 109.232 82.4215 109.101 82.3468 108.952C82.2815 108.803 82.1975 108.691 82.0948 108.616C82.0015 108.532 81.8755 108.462 81.7168 108.406C81.5582 108.35 81.3808 108.322 81.1848 108.322C80.2888 108.322 79.5422 109.003 78.9448 110.366V114.762C78.9448 114.921 78.8655 115 78.7068 115H78.0348C77.8668 115 77.7828 114.921 77.7828 114.762V110.898C77.7828 110.627 77.7735 110.389 77.7548 110.184C77.7455 109.969 77.7128 109.741 77.6568 109.498C77.6008 109.246 77.5215 109.041 77.4188 108.882C77.3255 108.723 77.1855 108.588 76.9988 108.476C76.8215 108.364 76.6021 108.308 76.3408 108.308C76.0421 108.308 75.7715 108.369 75.5288 108.49C75.2861 108.611 75.0761 108.789 74.8988 109.022C74.7215 109.255 74.5768 109.479 74.4648 109.694C74.3528 109.899 74.2361 110.147 74.1148 110.436V114.762C74.1148 114.921 74.0355 115 73.8768 115H73.2048C73.0368 115 72.9528 114.921 72.9528 114.762V107.818C72.9528 107.659 73.0368 107.58 73.2048 107.58H73.8348C73.9748 107.58 74.0635 107.645 74.1008 107.776L74.1148 108.868C74.7588 107.869 75.5988 107.37 76.6348 107.37C77.2135 107.37 77.6615 107.524 77.9788 107.832C78.2962 108.14 78.5388 108.555 78.7068 109.078C79.0615 108.481 79.4815 108.042 79.9668 107.762C80.4522 107.482 80.9468 107.342 81.4508 107.342ZM95.1191 104.92H95.8051C95.9637 104.92 96.0431 104.999 96.0431 105.158V111.388C96.0431 112.76 95.7677 113.74 95.2171 114.328C94.6757 114.916 93.8871 115.21 92.8511 115.21C91.8804 115.21 90.8631 114.911 89.7991 114.314C89.6591 114.239 89.6264 114.127 89.7011 113.978L89.8971 113.544C89.9624 113.404 90.0697 113.367 90.2191 113.432C91.1617 113.945 92.0017 114.202 92.7391 114.202C93.4951 114.202 94.0364 113.964 94.3631 113.488C94.6991 113.003 94.8671 112.293 94.8671 111.36V105.158C94.8671 104.999 94.9511 104.92 95.1191 104.92ZM101.417 107.37C103.144 107.37 104.007 108.392 104.007 110.436V113.348C104.007 113.609 104.091 113.838 104.259 114.034C104.427 114.221 104.661 114.328 104.959 114.356C105.109 114.393 105.183 114.477 105.183 114.608V115C105.174 115.159 105.109 115.243 104.987 115.252C104.913 115.261 104.838 115.266 104.763 115.266C104.25 115.238 103.844 115.084 103.545 114.804C103.247 114.524 103.055 114.202 102.971 113.838C102.887 113.959 102.771 114.09 102.621 114.23C102.472 114.37 102.281 114.524 102.047 114.692C101.814 114.851 101.529 114.981 101.193 115.084C100.857 115.187 100.507 115.238 100.143 115.238C99.3873 115.238 98.7853 115.023 98.3373 114.594C97.8893 114.155 97.6653 113.591 97.6653 112.9C97.6653 112.452 97.768 112.06 97.9733 111.724C98.188 111.388 98.468 111.136 98.8133 110.968C99.168 110.8 99.5693 110.669 100.017 110.576C100.475 110.473 100.941 110.431 101.417 110.45C101.903 110.459 102.383 110.483 102.859 110.52C102.859 110.249 102.85 110.021 102.831 109.834C102.813 109.647 102.771 109.451 102.705 109.246C102.64 109.031 102.551 108.863 102.439 108.742C102.327 108.611 102.169 108.504 101.963 108.42C101.767 108.327 101.529 108.28 101.249 108.28C100.512 108.28 99.6533 108.574 98.6733 109.162C98.5333 109.246 98.4213 109.218 98.3373 109.078L98.1553 108.77C98.062 108.63 98.1087 108.509 98.2953 108.406C99.434 107.715 100.475 107.37 101.417 107.37ZM102.859 112.578V111.276C102.495 111.229 102.141 111.201 101.795 111.192C101.45 111.183 101.091 111.201 100.717 111.248C100.353 111.295 100.036 111.374 99.7653 111.486C99.4947 111.598 99.2707 111.771 99.0933 112.004C98.916 112.228 98.8273 112.503 98.8273 112.83C98.8273 113.222 98.972 113.563 99.2613 113.852C99.5507 114.141 99.9613 114.286 100.493 114.286C101.044 114.286 101.576 114.09 102.089 113.698C102.603 113.306 102.859 112.933 102.859 112.578ZM110.092 107.37C110.522 107.37 110.928 107.449 111.31 107.608C111.702 107.767 112.052 108 112.36 108.308C112.668 108.607 112.911 109.003 113.088 109.498C113.266 109.983 113.354 110.534 113.354 111.15C113.354 112.307 113.051 113.273 112.444 114.048C111.838 114.813 111.026 115.196 110.008 115.196C109.486 115.196 108.991 115.084 108.524 114.86C108.067 114.636 107.717 114.314 107.474 113.894V118.906C107.474 119.065 107.395 119.144 107.236 119.144H106.564C106.396 119.144 106.312 119.065 106.312 118.906V107.818C106.312 107.659 106.396 107.58 106.564 107.58H107.152C107.302 107.58 107.39 107.65 107.418 107.79L107.446 108.812C107.717 108.373 108.095 108.023 108.58 107.762C109.066 107.501 109.57 107.37 110.092 107.37ZM109.91 108.364C109.35 108.364 108.837 108.56 108.37 108.952C107.904 109.335 107.6 109.843 107.46 110.478V112.382C107.638 113.007 107.95 113.474 108.398 113.782C108.846 114.081 109.322 114.23 109.826 114.23C110.564 114.23 111.138 113.941 111.548 113.362C111.968 112.783 112.178 112.06 112.178 111.192C112.178 110.744 112.113 110.338 111.982 109.974C111.861 109.601 111.693 109.302 111.478 109.078C111.273 108.845 111.035 108.667 110.764 108.546C110.494 108.425 110.209 108.364 109.91 108.364ZM118.535 107.37C120.261 107.37 121.125 108.392 121.125 110.436V113.348C121.125 113.609 121.209 113.838 121.377 114.034C121.545 114.221 121.778 114.328 122.077 114.356C122.226 114.393 122.301 114.477 122.301 114.608V115C122.291 115.159 122.226 115.243 122.105 115.252C122.03 115.261 121.955 115.266 121.881 115.266C121.367 115.238 120.961 115.084 120.663 114.804C120.364 114.524 120.173 114.202 120.089 113.838C120.005 113.959 119.888 114.09 119.739 114.23C119.589 114.37 119.398 114.524 119.165 114.692C118.931 114.851 118.647 114.981 118.311 115.084C117.975 115.187 117.625 115.238 117.261 115.238C116.505 115.238 115.903 115.023 115.455 114.594C115.007 114.155 114.783 113.591 114.783 112.9C114.783 112.452 114.885 112.06 115.091 111.724C115.305 111.388 115.585 111.136 115.931 110.968C116.285 110.8 116.687 110.669 117.135 110.576C117.592 110.473 118.059 110.431 118.535 110.45C119.02 110.459 119.501 110.483 119.977 110.52C119.977 110.249 119.967 110.021 119.949 109.834C119.93 109.647 119.888 109.451 119.823 109.246C119.757 109.031 119.669 108.863 119.557 108.742C119.445 108.611 119.286 108.504 119.081 108.42C118.885 108.327 118.647 108.28 118.367 108.28C117.629 108.28 116.771 108.574 115.791 109.162C115.651 109.246 115.539 109.218 115.455 109.078L115.273 108.77C115.179 108.63 115.226 108.509 115.413 108.406C116.551 107.715 117.592 107.37 118.535 107.37ZM119.977 112.578V111.276C119.613 111.229 119.258 111.201 118.913 111.192C118.567 111.183 118.208 111.201 117.835 111.248C117.471 111.295 117.153 111.374 116.883 111.486C116.612 111.598 116.388 111.771 116.211 112.004C116.033 112.228 115.945 112.503 115.945 112.83C115.945 113.222 116.089 113.563 116.379 113.852C116.668 114.141 117.079 114.286 117.611 114.286C118.161 114.286 118.693 114.09 119.207 113.698C119.72 113.306 119.977 112.933 119.977 112.578ZM127.293 107.356C128.208 107.356 128.861 107.655 129.253 108.252C129.645 108.84 129.841 109.68 129.841 110.772V114.762C129.841 114.921 129.757 115 129.589 115H128.917C128.759 115 128.679 114.921 128.679 114.762V110.898C128.679 110.515 128.656 110.184 128.609 109.904C128.563 109.615 128.483 109.349 128.371 109.106C128.259 108.854 128.096 108.663 127.881 108.532C127.667 108.401 127.401 108.336 127.083 108.336C126.505 108.336 126.005 108.513 125.585 108.868C125.165 109.213 124.834 109.699 124.591 110.324V114.762C124.591 114.921 124.512 115 124.353 115H123.681C123.513 115 123.429 114.921 123.429 114.762V107.818C123.429 107.659 123.513 107.58 123.681 107.58H124.311C124.451 107.58 124.54 107.645 124.577 107.776L124.591 108.798C124.769 108.555 124.965 108.345 125.179 108.168C125.394 107.981 125.618 107.832 125.851 107.72C126.085 107.599 126.323 107.51 126.565 107.454C126.808 107.389 127.051 107.356 127.293 107.356Z" fill="#7E222F"/>
</g>
<defs>
<filter id="filter0_b_825_481" x="-14.3599" y="-15" width="212" height="163" filterUnits="userSpaceOnUse" color-interpolation-filters="sRGB">
<feFlood flood-opacity="0" result="BackgroundImageFix"/>
<feGaussianBlur in="BackgroundImageFix" stdDeviation="7.5"/>
<feComposite in2="SourceAlpha" operator="in" result="effect1_backgroundBlur_825_481"/>
<feBlend mode="normal" in="SourceGraphic" in2="effect1_backgroundBlur_825_481" result="shape"/>
</filter>
<linearGradient id="paint0_linear_825_481" x1="91.6401" y1="0" x2="91.6401" y2="133" gradientUnits="userSpaceOnUse">
<stop stop-color="white" stop-opacity="0.8"/>
<stop offset="1" stop-color="white" stop-opacity="0.25"/>
</linearGradient>
</defs>
</svg>
