<svg width="27" height="27" viewBox="0 0 27 27" fill="none" xmlns="http://www.w3.org/2000/svg">
<path d="M13.4591 0.452419C15.3942 0.452419 17.3293 0.447186 19.2652 0.454288C20.8766 0.460268 22.3396 0.936475 23.6161 1.92589C25.2462 3.1893 26.1709 4.85826 26.3956 6.90999C26.4202 7.1514 26.4319 7.39397 26.4303 7.63663C26.4303 11.5068 26.4651 15.3774 26.421 19.2473C26.3874 22.1893 24.9924 24.3468 22.3878 25.7041C21.4305 26.2046 20.3866 26.4173 19.3093 26.4188C15.4017 26.4232 11.4941 26.4232 7.58654 26.4188C4.00864 26.4165 0.959648 23.7103 0.528296 20.1571C0.489071 19.8361 0.469224 19.513 0.468864 19.1897C0.465375 15.3382 0.465375 11.4865 0.468864 7.63476C0.473723 5.57145 1.2299 3.81053 2.72842 2.39425C3.96902 1.22168 5.45744 0.565303 7.1694 0.479705C8.0321 0.43672 8.89817 0.455783 9.76274 0.45354C10.9947 0.45055 12.2268 0.452419 13.4591 0.452419ZM24.5031 13.4356C24.5031 11.4758 24.5132 9.51567 24.4952 7.55552C24.4924 7.12157 24.4343 6.68975 24.3225 6.27044C23.6774 3.90323 21.6627 2.38304 19.2114 2.38304C15.4157 2.38304 11.6201 2.38304 7.82465 2.38304C7.5701 2.38304 7.3148 2.395 7.06175 2.41817C6.03976 2.50601 5.07081 2.91116 4.29048 3.57692C3.02259 4.64595 2.39574 6.02 2.395 7.6785C2.395 11.5053 2.39649 15.3321 2.39948 19.1587C2.40011 19.5494 2.43766 19.9393 2.51162 20.323C2.96016 22.6457 5.00628 24.4616 7.47366 24.4818C11.4556 24.5139 15.438 24.4956 19.4199 24.4818C19.8295 24.4763 20.2366 24.4175 20.631 24.3069C22.972 23.6688 24.5038 21.6459 24.505 19.2233C24.5045 17.2938 24.5038 15.3646 24.5031 13.4356Z" fill="#C83244"/>
<path d="M20.3638 13.4417C20.3866 17.2371 17.2438 20.362 13.4393 20.3568C9.63491 20.3515 6.52088 17.2184 6.52873 13.4211C6.53621 9.63615 9.64874 6.51501 13.4491 6.51501C17.2494 6.51501 20.3918 9.64587 20.3638 13.4417ZM13.4513 18.4355C16.2031 18.4329 18.4511 16.1808 18.4474 13.4297C18.4436 10.6857 16.2046 8.44526 13.4562 8.43778C10.7077 8.43031 8.45187 10.6831 8.45038 13.4342C8.44888 16.1853 10.7017 18.4377 13.4513 18.4355Z" fill="#C83244"/>
<path d="M20.6445 7.57448C20.4688 7.57588 20.2947 7.5423 20.1322 7.4757C19.9697 7.4091 19.822 7.31081 19.6979 7.18657C19.5738 7.06233 19.4756 6.91462 19.4091 6.75205C19.3427 6.58948 19.3092 6.41531 19.3108 6.23968C19.3096 6.06236 19.3435 5.88656 19.4107 5.72243C19.4778 5.5583 19.5768 5.40909 19.7019 5.28342C19.827 5.15775 19.9758 5.05811 20.1396 4.99026C20.3034 4.9224 20.4791 4.88767 20.6564 4.88806C21.0143 4.89259 21.3559 5.03809 21.6071 5.29296C21.8584 5.54784 21.9989 5.89152 21.9983 6.2494C21.9938 6.60442 21.8488 6.94319 21.595 7.19153C21.3413 7.43988 20.9995 7.57758 20.6445 7.57448Z" fill="#C83244"/>
</svg>
