<svg width="99" height="50" viewBox="0 0 99 50" fill="none" xmlns="http://www.w3.org/2000/svg">
<path d="M0.981934 0.0512695H17.9957C19.2431 0.16379 20.2187 0.365143 20.9223 0.655329C21.4441 0.88037 21.9198 1.10344 22.3516 1.32848C25.6181 3.18803 28.1588 6.61498 29.974 11.6113C30.2918 12.4167 30.6077 13.4827 30.9275 14.8033C31.1774 15.6324 31.4373 17.1011 31.7111 19.2055C31.8691 20.3484 31.983 21.7816 32.051 23.5069V25.7929C31.983 27.4274 31.8691 28.9178 31.7111 30.2621C31.4393 32.2342 31.1434 33.7897 30.8256 34.9327C30.2818 36.9482 29.6901 38.64 29.0564 40.008C28.5127 41.2181 27.785 42.4953 26.8795 43.8396L25.9939 44.949C25.834 45.1741 25.3702 45.6558 24.5986 46.3941C23.669 47.2014 22.8974 47.7502 22.2837 48.0404C21.8079 48.3326 21.1602 48.6129 20.3446 48.8814C19.3451 49.1498 18.6194 49.2841 18.1657 49.2841C18.1657 49.3058 18.1077 49.3176 17.9957 49.3176H0.981934C0.981934 49.2959 1.13986 49.2505 1.4577 49.1834C1.47969 49.1617 1.63962 49.0827 1.93348 48.9485C2.31929 48.7688 2.75108 48.4451 3.22685 47.9733C3.70262 47.3673 3.98649 46.775 4.07844 46.1927C4.14641 45.8788 4.18039 45.6775 4.18039 45.5886V3.78025C4.18039 3.33214 4.02247 2.76164 3.70462 2.06677C3.47673 1.70947 3.27283 1.43903 3.09292 1.25939C2.61515 0.789564 2.10539 0.453976 1.55966 0.252623C1.19783 0.140102 1.00392 0.0848284 0.981934 0.0848284V0.0512695ZM10.5093 1.19227V48.2714L10.5433 48.3049H14.3895C15.5909 48.3049 16.5224 48.149 17.1801 47.8351C18.9953 47.0277 20.6385 45.2807 22.1138 42.592C22.5435 41.7629 22.9653 40.8233 23.3731 39.7691C25.0523 35.3117 25.8919 30.2601 25.8919 24.6144C25.8919 19.4384 25.1663 14.7125 23.713 10.4328C23.0333 8.52784 22.3057 6.96044 21.536 5.72864C21.1282 4.98837 20.4126 4.07043 19.3931 2.97286C18.5755 2.278 17.8958 1.80817 17.352 1.56142C16.8763 1.31466 16.2506 1.14687 15.4809 1.05803C15.345 1.03632 15.2311 1.02448 15.1411 1.02448H11.8747C10.9671 1.04619 10.5133 1.10344 10.5133 1.19227" fill="white"/>
<path d="M31.0734 0H44.0391C44.0391 0.0236886 43.9152 0.0572474 43.6653 0.100677C43.2795 0.234912 42.8377 0.527071 42.3379 0.97518C42.134 1.22194 41.9741 1.46869 41.8622 1.71347C41.7042 2.16158 41.6243 2.52086 41.6243 2.78933V3.35983C41.6243 3.40524 42.8597 8.13111 45.3325 17.5414L51.1177 39.5521C51.2317 39.9548 51.2876 40.1798 51.2876 40.2232H51.3216V40.1561C55.2697 25.7298 57.2428 18.4929 57.2428 18.4475C57.9464 15.9602 58.9779 12.1759 60.3393 7.08881C60.951 4.96079 61.2588 3.8415 61.2588 3.72898C61.2808 3.57303 61.2928 3.46051 61.2928 3.39339V2.68865C61.2928 2.4873 61.2128 2.16158 61.0549 1.71347C60.897 1.37789 60.6471 1.05217 60.3073 0.738294C59.8075 0.357303 59.3877 0.144106 59.0479 0.100677L58.912 0H66.0245C66.0025 0.0236886 65.8206 0.078962 65.4808 0.167794C64.8691 0.369147 64.2774 0.671177 63.7116 1.07586C63.2119 1.50225 62.894 1.81415 62.7581 2.01748C62.1464 2.75775 61.7246 3.64212 61.4987 4.67257C61.3628 5.16609 59.3777 12.4681 55.5436 26.5825L53.0928 35.5882C51.9133 39.7771 50.8358 43.7666 49.8603 47.5509L49.4185 49.2644H47.2756C44.257 37.8386 41.9901 29.2021 40.4688 23.355C39.6752 20.3761 37.9501 13.8006 35.2953 3.63028C35.1134 3.13874 34.8196 2.62154 34.4118 2.0846C33.936 1.54765 33.4922 1.1331 33.0844 0.840945C32.5407 0.527071 31.9829 0.280315 31.4172 0.102651C31.1893 0.0572474 31.0774 0.0236886 31.0774 0.00197405" fill="white"/>
<path d="M66.9982 0H75.2322C75.2782 0.0236886 75.3901 0.2586 75.572 0.70671C80.9934 13.0958 83.898 19.7484 84.2838 20.6663C84.3298 20.7788 86.053 24.7329 89.4573 32.5284C92.7238 40.012 94.425 43.9206 94.5609 44.2562C94.8108 44.7714 94.9347 45.0636 94.9347 45.1307H95.0027V3.73095C94.9347 3.17032 94.8208 2.7005 94.6628 2.31951C94.5269 2.00563 94.323 1.68189 94.0511 1.34433C93.6433 0.941621 93.3255 0.683021 93.0976 0.572474C92.7578 0.349407 92.3819 0.181613 91.9741 0.0690917C91.8382 0.0473772 91.7702 0.0256626 91.7702 0.00197405H98.6789C98.6789 0.0256626 98.521 0.0690917 98.2031 0.136209C97.7953 0.292159 97.3516 0.55076 96.8758 0.910037C96.2641 1.44698 95.8423 2.12013 95.6164 2.92554C95.5484 3.23941 95.5024 3.55329 95.4804 3.86716V49.2663H90.4449C90.3989 49.2446 90.285 49.0097 90.105 48.5596L81.4612 28.7343L72.1377 7.32965C71.2081 5.24702 70.7424 4.17117 70.7424 4.10405H70.7084V45.4702C70.7084 45.8058 70.8103 46.2776 71.0142 46.8817C71.1722 47.3298 71.49 47.7898 71.9678 48.2596C72.0138 48.2596 72.1157 48.3385 72.2736 48.4945C72.9533 48.9426 73.499 49.1894 73.9068 49.2328V49.2663H66.9982C66.9982 49.2446 67.1681 49.1992 67.5079 49.1321C67.5079 49.0867 67.5979 49.0433 67.7798 48.9979C68.0737 48.8636 68.4155 48.6504 68.8013 48.3603C69.413 47.8213 69.8328 47.1502 70.0607 46.3448C70.1287 46.0309 70.1846 45.717 70.2306 45.4031V3.86519C70.1407 3.0578 69.9807 2.47743 69.7548 2.11815C69.5949 1.76085 69.369 1.43513 69.0752 1.14297C68.6434 0.718554 68.1796 0.41455 67.6798 0.234912C67.362 0.100677 67.1361 0.0335588 67.0002 0.0335588V0L66.9982 0Z" fill="white"/>
<path d="M35.9371 23.8721H36.183C36.3689 23.9037 36.5168 23.953 36.6267 24.0221C36.6967 24.0537 36.8027 24.1445 36.9426 24.2985C37.0745 24.5057 37.1405 24.6755 37.1405 24.8058C37.1485 24.8058 37.1525 24.8176 37.1525 24.8413V25.0486C37.1285 25.1868 37.0945 25.3112 37.0465 25.4177C37.0006 25.5184 36.8986 25.6408 36.7427 25.7869C36.5628 25.9172 36.3849 25.9902 36.2049 26.006C36.2049 26.0139 36.193 26.0179 36.169 26.0179H35.9471C35.6972 25.9725 35.5113 25.8955 35.3873 25.7869C35.1934 25.625 35.0835 25.475 35.0595 25.3368C35.0275 25.2914 35.0015 25.1947 34.9775 25.0486V24.8413C34.9935 24.7031 35.0275 24.5808 35.0815 24.4722C35.1275 24.3577 35.2174 24.2412 35.3514 24.1267C35.4673 24.0122 35.6632 23.9273 35.9351 23.8721" fill="white"/>
<path d="M63.0761 23.8191H63.322C63.5079 23.8507 63.6558 23.9 63.7658 23.9691C63.8357 24.0007 63.9417 24.0915 64.0816 24.2455C64.2136 24.4528 64.2795 24.6225 64.2795 24.7528C64.2875 24.7528 64.2915 24.7647 64.2915 24.7883V24.9956C64.2675 25.1338 64.2336 25.2562 64.1856 25.3648C64.1396 25.4654 64.0376 25.5878 63.8817 25.7339C63.7018 25.8642 63.5239 25.9372 63.344 25.953C63.344 25.9609 63.332 25.9649 63.308 25.9649H63.0861C62.8362 25.9195 62.6503 25.8425 62.5264 25.7339C62.3325 25.572 62.2225 25.422 62.1985 25.2838C62.1666 25.2384 62.1406 25.1417 62.1166 24.9956V24.7883C62.1326 24.6502 62.1666 24.5278 62.2225 24.4192C62.2685 24.3047 62.3585 24.1882 62.4904 24.0737C62.6083 23.9592 62.8022 23.8744 63.0741 23.8191" fill="white"/>
</svg>
