<svg width="89" height="113" viewBox="0 0 89 113" fill="none" xmlns="http://www.w3.org/2000/svg">
<g filter="url(#filter0_d_73_487)">
<rect x="12" y="8" width="65" height="89" rx="8" fill="url(#paint0_linear_73_487)"/>
<g filter="url(#filter1_b_73_487)">
<rect x="12" y="8" width="65" height="89" rx="8" fill="#FEFEFE" fill-opacity="0.19"/>
<rect x="12.5" y="8.5" width="64" height="88" rx="7.5" stroke="white"/>
</g>
<path d="M19 50H69.5" stroke="white"/>
<path d="M27.4603 56.8H30.5103C31.0236 56.8 31.4636 56.97 31.8303 57.31C32.197 57.65 32.3803 58.0867 32.3803 58.62C32.3803 58.7533 32.367 58.88 32.3403 59C32.3203 59.12 32.287 59.2367 32.2403 59.35C32.1936 59.4633 32.1336 59.57 32.0603 59.67C31.9936 59.7633 31.9103 59.85 31.8103 59.93C31.717 60.0033 31.6103 60.0667 31.4903 60.12C31.9303 60.2333 32.2603 60.4633 32.4803 60.81C32.7003 61.15 32.8103 61.5433 32.8103 61.99C32.8103 62.37 32.7036 62.72 32.4903 63.04C32.2836 63.3533 32.0303 63.5933 31.7303 63.76C31.437 63.92 31.1436 64 30.8503 64H27.4603C27.287 64 27.2003 63.91 27.2003 63.73V57.07C27.2003 56.89 27.287 56.8 27.4603 56.8ZM30.0303 57.9H28.6403V59.78H29.9803C30.0603 59.78 30.147 59.7667 30.2403 59.74C30.3336 59.7067 30.4303 59.66 30.5303 59.6C30.637 59.5333 30.7203 59.4367 30.7803 59.31C30.847 59.1767 30.8803 59.02 30.8803 58.84C30.8803 58.6333 30.8336 58.4567 30.7403 58.31C30.6536 58.1567 30.547 58.05 30.4203 57.99C30.3003 57.93 30.1703 57.9 30.0303 57.9ZM30.3503 60.88H28.6403V62.91H30.3303C30.5703 62.91 30.7936 62.8167 31.0003 62.63C31.207 62.4367 31.3103 62.1733 31.3103 61.84C31.3103 61.4933 31.2136 61.2467 31.0203 61.1C30.8336 60.9533 30.6103 60.88 30.3503 60.88ZM36.4412 58.55C37.1878 58.55 37.7878 58.7667 38.2412 59.2C38.6945 59.6267 38.9212 60.2133 38.9212 60.96C38.9212 61.1533 38.9045 61.3467 38.8712 61.54C38.8378 61.6867 38.7378 61.76 38.5712 61.76H35.0512C35.1312 62.1133 35.2978 62.4033 35.5512 62.63C35.8045 62.8567 36.1478 62.97 36.5812 62.97C37.0612 62.97 37.4612 62.84 37.7812 62.58C37.9412 62.5133 38.0612 62.5467 38.1412 62.68L38.4112 63.19C38.5045 63.3433 38.4845 63.4633 38.3512 63.55C37.8778 63.9433 37.2545 64.14 36.4812 64.14C35.9012 64.14 35.3978 64.0367 34.9712 63.83C34.5445 63.6167 34.2078 63.3 33.9612 62.88C33.7212 62.4533 33.6012 61.9433 33.6012 61.35C33.5945 60.9833 33.6478 60.6367 33.7612 60.31C33.8745 59.9833 34.0412 59.6867 34.2612 59.42C34.4878 59.1533 34.7878 58.9433 35.1612 58.79C35.5345 58.63 35.9612 58.55 36.4412 58.55ZM36.4312 59.67C36.0712 59.67 35.7712 59.7767 35.5312 59.99C35.2912 60.2033 35.1412 60.47 35.0812 60.79H37.6212C37.6145 60.45 37.5078 60.18 37.3012 59.98C37.0945 59.7733 36.8045 59.67 36.4312 59.67ZM42.6238 58.55C43.9704 58.55 44.6438 59.2533 44.6438 60.66V62.64C44.6438 62.7267 44.6604 62.8067 44.6938 62.88C44.7271 62.9467 44.7771 63.0033 44.8438 63.05C44.9104 63.0967 44.9871 63.13 45.0738 63.15C45.2404 63.2033 45.3204 63.2967 45.3138 63.43V63.9C45.3071 64.0667 45.2304 64.16 45.0838 64.18C45.0038 64.1933 44.9138 64.2 44.8138 64.2C44.4604 64.1867 44.1604 64.1067 43.9138 63.96C43.6671 63.8067 43.4904 63.6 43.3838 63.34C43.2104 63.5533 42.9671 63.7433 42.6538 63.91C42.3404 64.0767 41.9838 64.16 41.5838 64.16C41.0571 64.16 40.6171 64.0133 40.2638 63.72C39.9171 63.42 39.7438 62.9967 39.7438 62.45C39.7438 62.1433 39.8104 61.8767 39.9438 61.65C40.0838 61.4167 40.2704 61.24 40.5038 61.12C40.7371 60.9933 41.0038 60.8933 41.3038 60.82C41.6038 60.74 41.9171 60.7 42.2438 60.7C42.5704 60.6933 42.8971 60.6967 43.2238 60.71C43.2238 60.5433 43.2138 60.4067 43.1938 60.3C43.1804 60.1933 43.1471 60.0833 43.0938 59.97C43.0404 59.8567 42.9538 59.7733 42.8338 59.72C42.7138 59.66 42.5571 59.63 42.3638 59.63C41.8904 59.63 41.3404 59.7967 40.7138 60.13C40.5538 60.21 40.4304 60.1767 40.3438 60.03L40.1138 59.64C40.0138 59.48 40.0804 59.34 40.3138 59.22C41.1471 58.7733 41.9171 58.55 42.6238 58.55ZM43.2138 62.21V61.53C41.8471 61.4167 41.1638 61.6867 41.1638 62.34C41.1638 62.46 41.1904 62.57 41.2438 62.67C41.3038 62.77 41.4004 62.8567 41.5338 62.93C41.6671 62.9967 41.8304 63.03 42.0238 63.03C42.3038 63.03 42.5704 62.9433 42.8238 62.77C43.0838 62.59 43.2138 62.4033 43.2138 62.21ZM50.0268 58.7H50.9268C51.1001 58.7 51.1868 58.7867 51.1868 58.96V62.37C51.1868 62.7367 51.3401 62.9467 51.6468 63C51.7468 63.0133 51.8068 63.0167 51.8268 63.01C51.9335 63.0233 51.9801 63.1133 51.9668 63.28L51.9268 63.86C51.9135 64.0267 51.8635 64.1133 51.7768 64.12C51.6968 64.1333 51.6201 64.14 51.5468 64.14C50.7801 64.14 50.2935 63.8633 50.0868 63.31C50.0535 63.25 50.0235 63.19 49.9968 63.13C49.5968 63.81 48.9935 64.15 48.1868 64.15C47.4601 64.15 46.9201 63.9467 46.5668 63.54C46.2201 63.1267 46.0468 62.5033 46.0468 61.67V58.96C46.0468 58.7867 46.1335 58.7 46.3068 58.7H47.2068C47.3868 58.7 47.4768 58.7867 47.4768 58.96V61.49C47.4768 62.4967 47.8135 63 48.4868 63C48.8401 63 49.1268 62.8833 49.3468 62.65C49.5668 62.41 49.7068 62.09 49.7668 61.69V58.96C49.7668 58.7867 49.8535 58.7 50.0268 58.7ZM53.2793 56.8H54.1793C54.3593 56.8 54.4493 56.8867 54.4493 57.06V58.7H55.4693C55.6493 58.7 55.7393 58.79 55.7393 58.97V59.46C55.7393 59.6333 55.6493 59.72 55.4693 59.72H54.4493L54.4393 62.01C54.4393 62.6633 54.726 62.99 55.2993 62.99C55.4593 62.99 55.6626 62.9367 55.9093 62.83C56.0893 62.7767 56.196 62.83 56.2293 62.99L56.3493 63.54C56.3893 63.7067 56.336 63.8167 56.1893 63.87C55.7426 64.0633 55.306 64.16 54.8793 64.16C54.3126 64.16 53.8593 64.0167 53.5193 63.73C53.186 63.4433 53.0193 62.9767 53.0193 62.33V59.72H52.4393C52.266 59.72 52.1793 59.6333 52.1793 59.46V58.97C52.1793 58.79 52.266 58.7 52.4393 58.7H53.0193V57.06C53.0193 56.8867 53.106 56.8 53.2793 56.8ZM61.1731 58.7H62.1631C62.2631 58.7 62.3298 58.73 62.3631 58.79C62.4031 58.8433 62.4031 58.9167 62.3631 59.01L59.8131 65.09C59.6598 65.4367 59.5231 65.7133 59.4031 65.92C59.2831 66.1333 59.1365 66.3367 58.9631 66.53C58.7898 66.73 58.5898 66.8733 58.3631 66.96C58.1431 67.0533 57.8865 67.1 57.5931 67.1C57.0998 67.1 56.6498 67.0233 56.2431 66.87C56.0831 66.81 56.0331 66.6967 56.0931 66.53L56.3131 65.9C56.3731 65.74 56.4865 65.69 56.6531 65.75C56.9131 65.85 57.1665 65.9 57.4131 65.9C57.5531 65.9 57.6765 65.8633 57.7831 65.79C57.8965 65.7233 57.9931 65.6233 58.0731 65.49C58.1598 65.3567 58.2531 65.1767 58.3531 64.95L58.7031 64.09L56.4931 59.01C56.4531 58.9167 56.4498 58.8433 56.4831 58.79C56.5231 58.73 56.5931 58.7 56.6931 58.7H57.6731C57.8198 58.7 57.9198 58.77 57.9731 58.91L59.4231 62.73L60.8731 58.91C60.9265 58.77 61.0265 58.7 61.1731 58.7ZM23.25 68.67C24.1767 68.67 24.9767 69.0033 25.65 69.67C25.7834 69.79 25.7867 69.9133 25.66 70.04L25.25 70.49C25.1367 70.6033 25.0134 70.61 24.88 70.51C24.4134 70.0767 23.89 69.86 23.31 69.86C22.69 69.86 22.1834 70.09 21.79 70.55C21.3967 71.0033 21.2 71.62 21.2 72.4C21.2 73.1933 21.4 73.8167 21.8 74.27C22.2 74.7233 22.7034 74.95 23.31 74.95C23.8767 74.95 24.4 74.7133 24.88 74.24C25.0134 74.1267 25.1367 74.1367 25.25 74.27L25.67 74.76C25.79 74.8933 25.7867 75.0167 25.66 75.13C24.98 75.8033 24.1767 76.14 23.25 76.14C22.5234 76.14 21.8867 75.97 21.34 75.63C20.7934 75.29 20.38 74.84 20.1 74.28C19.8267 73.72 19.69 73.0933 19.69 72.4C19.69 71.7133 19.8267 71.09 20.1 70.53C20.3734 69.97 20.7834 69.52 21.33 69.18C21.8834 68.84 22.5234 68.67 23.25 68.67ZM27.0257 68.5H27.9257C28.0991 68.5 28.1857 68.5867 28.1857 68.76V71.31C28.6591 70.8033 29.2224 70.55 29.8757 70.55C30.2291 70.55 30.5424 70.6167 30.8157 70.75C31.0891 70.8767 31.3024 71.0567 31.4557 71.29C31.6157 71.5233 31.7357 71.7833 31.8157 72.07C31.8957 72.3567 31.9357 72.6733 31.9357 73.02V75.73C31.9357 75.91 31.8457 76 31.6657 76H30.7657C30.5857 76 30.4957 75.91 30.4957 75.73V73.21C30.4957 72.97 30.4791 72.7633 30.4457 72.59C30.4191 72.4167 30.3691 72.2633 30.2957 72.13C30.2291 71.99 30.1291 71.8867 29.9957 71.82C29.8691 71.7467 29.7157 71.71 29.5357 71.71C28.8224 71.71 28.3724 72.1567 28.1857 73.05V75.73C28.1857 75.91 28.0991 76 27.9257 76H27.0257C26.8524 76 26.7657 75.91 26.7657 75.73V68.76C26.7657 68.5867 26.8524 68.5 27.0257 68.5ZM35.7332 70.55C36.4798 70.55 37.0798 70.7667 37.5332 71.2C37.9865 71.6267 38.2132 72.2133 38.2132 72.96C38.2132 73.1533 38.1965 73.3467 38.1632 73.54C38.1298 73.6867 38.0298 73.76 37.8632 73.76H34.3432C34.4232 74.1133 34.5898 74.4033 34.8432 74.63C35.0965 74.8567 35.4398 74.97 35.8732 74.97C36.3532 74.97 36.7532 74.84 37.0732 74.58C37.2332 74.5133 37.3532 74.5467 37.4332 74.68L37.7032 75.19C37.7965 75.3433 37.7765 75.4633 37.6432 75.55C37.1698 75.9433 36.5465 76.14 35.7732 76.14C35.1932 76.14 34.6898 76.0367 34.2632 75.83C33.8365 75.6167 33.4998 75.3 33.2532 74.88C33.0132 74.4533 32.8932 73.9433 32.8932 73.35C32.8865 72.9833 32.9398 72.6367 33.0532 72.31C33.1665 71.9833 33.3332 71.6867 33.5532 71.42C33.7798 71.1533 34.0798 70.9433 34.4532 70.79C34.8265 70.63 35.2532 70.55 35.7332 70.55ZM35.7232 71.67C35.3632 71.67 35.0632 71.7767 34.8232 71.99C34.5832 72.2033 34.4332 72.47 34.3732 72.79H36.9132C36.9065 72.45 36.7998 72.18 36.5932 71.98C36.3865 71.7733 36.0965 71.67 35.7232 71.67ZM46.1481 70.69H47.0281C47.1281 70.69 47.1948 70.72 47.2281 70.78C47.2681 70.8333 47.2714 70.9067 47.2381 71L45.4581 75.79C45.4048 75.93 45.3014 76 45.1481 76H44.3681C44.2148 76 44.1148 75.9267 44.0681 75.78L42.9481 72.52L41.8281 75.78C41.7814 75.9267 41.6814 76 41.5281 76H40.7481C40.5948 76 40.4914 75.93 40.4381 75.79L38.6581 71C38.6381 70.94 38.6314 70.8867 38.6381 70.84C38.6448 70.7933 38.6681 70.7567 38.7081 70.73C38.7481 70.7033 38.8014 70.69 38.8681 70.69H39.7481C39.9014 70.69 40.0014 70.7633 40.0481 70.91L41.1681 74.24L42.2981 70.91C42.3448 70.7633 42.4448 70.69 42.5981 70.69H43.2981C43.4514 70.69 43.5514 70.7633 43.5981 70.91L44.7281 74.24L45.8481 70.91C45.8948 70.7633 45.9948 70.69 46.1481 70.69ZM50.6071 70.55C51.9538 70.55 52.6271 71.2533 52.6271 72.66V74.64C52.6271 74.7267 52.6438 74.8067 52.6771 74.88C52.7105 74.9467 52.7605 75.0033 52.8271 75.05C52.8938 75.0967 52.9705 75.13 53.0571 75.15C53.2238 75.2033 53.3038 75.2967 53.2971 75.43V75.9C53.2905 76.0667 53.2138 76.16 53.0671 76.18C52.9871 76.1933 52.8971 76.2 52.7971 76.2C52.4438 76.1867 52.1438 76.1067 51.8971 75.96C51.6505 75.8067 51.4738 75.6 51.3671 75.34C51.1938 75.5533 50.9505 75.7433 50.6371 75.91C50.3238 76.0767 49.9671 76.16 49.5671 76.16C49.0405 76.16 48.6005 76.0133 48.2471 75.72C47.9005 75.42 47.7271 74.9967 47.7271 74.45C47.7271 74.1433 47.7938 73.8767 47.9271 73.65C48.0671 73.4167 48.2538 73.24 48.4871 73.12C48.7205 72.9933 48.9871 72.8933 49.2871 72.82C49.5871 72.74 49.9005 72.7 50.2271 72.7C50.5538 72.6933 50.8805 72.6967 51.2071 72.71C51.2071 72.5433 51.1971 72.4067 51.1771 72.3C51.1638 72.1933 51.1305 72.0833 51.0771 71.97C51.0238 71.8567 50.9371 71.7733 50.8171 71.72C50.6971 71.66 50.5405 71.63 50.3471 71.63C49.8738 71.63 49.3238 71.7967 48.6971 72.13C48.5371 72.21 48.4138 72.1767 48.3271 72.03L48.0971 71.64C47.9971 71.48 48.0638 71.34 48.2971 71.22C49.1305 70.7733 49.9005 70.55 50.6071 70.55ZM51.1971 74.21V73.53C49.8305 73.4167 49.1471 73.6867 49.1471 74.34C49.1471 74.46 49.1738 74.57 49.2271 74.67C49.2871 74.77 49.3838 74.8567 49.5171 74.93C49.6505 74.9967 49.8138 75.03 50.0071 75.03C50.2871 75.03 50.5538 74.9433 50.8071 74.77C51.0671 74.59 51.1971 74.4033 51.1971 74.21ZM54.3402 68.5H55.2402C55.4202 68.5 55.5102 68.5867 55.5102 68.76V71.26C55.6302 71.1133 55.7802 70.9867 55.9602 70.88C56.1402 70.7733 56.3302 70.6933 56.5302 70.64C56.7302 70.58 56.9269 70.55 57.1202 70.55C57.8269 70.55 58.4169 70.7933 58.8902 71.28C59.3635 71.76 59.6002 72.4333 59.6002 73.3C59.6002 73.7533 59.5302 74.1633 59.3902 74.53C59.2569 74.8967 59.0702 75.1967 58.8302 75.43C58.5969 75.6567 58.3269 75.8333 58.0202 75.96C57.7202 76.08 57.3969 76.14 57.0502 76.14C56.7035 76.14 56.3769 76.07 56.0702 75.93C55.7635 75.79 55.5169 75.6033 55.3302 75.37L55.3202 75.75C55.2935 75.9167 55.1969 76 55.0302 76H54.3402C54.1669 76 54.0802 75.91 54.0802 75.73V68.76C54.0802 68.5867 54.1669 68.5 54.3402 68.5ZM56.8602 71.73C56.6002 71.73 56.3635 71.7967 56.1502 71.93C55.9369 72.0633 55.7702 72.2367 55.6502 72.45C55.5369 72.6567 55.4802 72.8767 55.4802 73.11V73.77C55.4802 73.9633 55.5402 74.1533 55.6602 74.34C55.7802 74.5267 55.9435 74.68 56.1502 74.8C56.3635 74.9133 56.5869 74.97 56.8202 74.97C57.2002 74.97 57.5135 74.8367 57.7602 74.57C58.0135 74.2967 58.1402 73.8867 58.1402 73.34C58.1402 73.0133 58.0835 72.7267 57.9702 72.48C57.8635 72.2333 57.7135 72.0467 57.5202 71.92C57.3269 71.7933 57.1069 71.73 56.8602 71.73ZM60.9322 68.5H61.8222C62.0022 68.5 62.0922 68.5867 62.0922 68.76V74.19C62.0922 74.39 62.1022 74.5467 62.1222 74.66C62.1422 74.7667 62.1922 74.8533 62.2722 74.92C62.3589 74.9867 62.4789 75.02 62.6322 75.02C62.7722 75.02 62.9356 74.9733 63.1222 74.88C63.2956 74.8333 63.4056 74.89 63.4522 75.05L63.5922 75.56C63.6456 75.72 63.5956 75.83 63.4422 75.89C63.0756 76.0633 62.6822 76.15 62.2622 76.15C61.9756 76.15 61.7256 76.1067 61.5122 76.02C61.2989 75.9333 61.1322 75.8133 61.0122 75.66C60.8922 75.5 60.8022 75.3233 60.7422 75.13C60.6889 74.9367 60.6622 74.7167 60.6622 74.47V68.76C60.6622 68.5867 60.7522 68.5 60.9322 68.5ZM66.8074 70.55C67.554 70.55 68.154 70.7667 68.6074 71.2C69.0607 71.6267 69.2874 72.2133 69.2874 72.96C69.2874 73.1533 69.2707 73.3467 69.2374 73.54C69.204 73.6867 69.104 73.76 68.9374 73.76H65.4174C65.4974 74.1133 65.664 74.4033 65.9174 74.63C66.1707 74.8567 66.514 74.97 66.9474 74.97C67.4274 74.97 67.8274 74.84 68.1474 74.58C68.3074 74.5133 68.4274 74.5467 68.5074 74.68L68.7774 75.19C68.8707 75.3433 68.8507 75.4633 68.7174 75.55C68.244 75.9433 67.6207 76.14 66.8474 76.14C66.2674 76.14 65.764 76.0367 65.3374 75.83C64.9107 75.6167 64.574 75.3 64.3274 74.88C64.0874 74.4533 63.9674 73.9433 63.9674 73.35C63.9607 72.9833 64.014 72.6367 64.1274 72.31C64.2407 71.9833 64.4074 71.6867 64.6274 71.42C64.854 71.1533 65.154 70.9433 65.5274 70.79C65.9007 70.63 66.3274 70.55 66.8074 70.55ZM66.7974 71.67C66.4374 71.67 66.1374 71.7767 65.8974 71.99C65.6574 72.2033 65.5074 72.47 65.4474 72.79H67.9874C67.9807 72.45 67.874 72.18 67.6674 71.98C67.4607 71.7733 67.1707 71.67 66.7974 71.67ZM25.5157 80.67C26.4423 80.67 27.2423 81.0033 27.9157 81.67C28.049 81.79 28.0523 81.9133 27.9257 82.04L27.5157 82.49C27.4023 82.6033 27.279 82.61 27.1457 82.51C26.679 82.0767 26.1557 81.86 25.5757 81.86C24.9557 81.86 24.449 82.09 24.0557 82.55C23.6623 83.0033 23.4657 83.62 23.4657 84.4C23.4657 85.1933 23.6657 85.8167 24.0657 86.27C24.4657 86.7233 24.969 86.95 25.5757 86.95C26.1423 86.95 26.6657 86.7133 27.1457 86.24C27.279 86.1267 27.4023 86.1367 27.5157 86.27L27.9357 86.76C28.0557 86.8933 28.0523 87.0167 27.9257 87.13C27.2457 87.8033 26.4423 88.14 25.5157 88.14C24.789 88.14 24.1523 87.97 23.6057 87.63C23.059 87.29 22.6457 86.84 22.3657 86.28C22.0923 85.72 21.9557 85.0933 21.9557 84.4C21.9557 83.7133 22.0923 83.09 22.3657 82.53C22.639 81.97 23.049 81.52 23.5957 81.18C24.149 80.84 24.789 80.67 25.5157 80.67ZM31.6637 82.55C32.557 82.55 33.257 82.8133 33.7637 83.34C34.277 83.86 34.5337 84.53 34.5337 85.35C34.5337 86.17 34.277 86.84 33.7637 87.36C33.257 87.88 32.557 88.14 31.6637 88.14C30.777 88.14 30.077 87.88 29.5637 87.36C29.057 86.84 28.8037 86.17 28.8037 85.35C28.8037 84.5233 29.057 83.85 29.5637 83.33C30.077 82.81 30.777 82.55 31.6637 82.55ZM32.6937 84.18C32.4337 83.8667 32.0904 83.71 31.6637 83.71C31.2437 83.71 30.9004 83.8667 30.6337 84.18C30.3737 84.4867 30.2437 84.8767 30.2437 85.35C30.2437 85.8167 30.3737 86.2067 30.6337 86.52C30.9004 86.8333 31.2437 86.99 31.6637 86.99C32.0904 86.99 32.4337 86.8333 32.6937 86.52C32.9604 86.2067 33.0937 85.8167 33.0937 85.35C33.0937 84.8767 32.9604 84.4867 32.6937 84.18ZM35.9322 80.5H36.8222C37.0022 80.5 37.0922 80.5867 37.0922 80.76V86.19C37.0922 86.39 37.1022 86.5467 37.1222 86.66C37.1422 86.7667 37.1922 86.8533 37.2722 86.92C37.3589 86.9867 37.4789 87.02 37.6322 87.02C37.7722 87.02 37.9356 86.9733 38.1222 86.88C38.2956 86.8333 38.4056 86.89 38.4522 87.05L38.5922 87.56C38.6456 87.72 38.5956 87.83 38.4422 87.89C38.0756 88.0633 37.6822 88.15 37.2622 88.15C36.9756 88.15 36.7256 88.1067 36.5122 88.02C36.2989 87.9333 36.1322 87.8133 36.0122 87.66C35.8922 87.5 35.8022 87.3233 35.7422 87.13C35.6889 86.9367 35.6622 86.7167 35.6622 86.47V80.76C35.6622 80.5867 35.7522 80.5 35.9322 80.5ZM39.4674 80.5H40.3574C40.5374 80.5 40.6274 80.5867 40.6274 80.76V86.19C40.6274 86.39 40.6374 86.5467 40.6574 86.66C40.6774 86.7667 40.7274 86.8533 40.8074 86.92C40.894 86.9867 41.014 87.02 41.1674 87.02C41.3074 87.02 41.4707 86.9733 41.6574 86.88C41.8307 86.8333 41.9407 86.89 41.9874 87.05L42.1274 87.56C42.1807 87.72 42.1307 87.83 41.9774 87.89C41.6107 88.0633 41.2174 88.15 40.7974 88.15C40.5107 88.15 40.2607 88.1067 40.0474 88.02C39.834 87.9333 39.6674 87.8133 39.5474 87.66C39.4274 87.5 39.3374 87.3233 39.2774 87.13C39.224 86.9367 39.1974 86.7167 39.1974 86.47V80.76C39.1974 80.5867 39.2874 80.5 39.4674 80.5ZM45.3825 82.55C46.7292 82.55 47.4025 83.2533 47.4025 84.66V86.64C47.4025 86.7267 47.4192 86.8067 47.4525 86.88C47.4859 86.9467 47.5359 87.0033 47.6025 87.05C47.6692 87.0967 47.7459 87.13 47.8325 87.15C47.9992 87.2033 48.0792 87.2967 48.0725 87.43V87.9C48.0659 88.0667 47.9892 88.16 47.8425 88.18C47.7625 88.1933 47.6725 88.2 47.5725 88.2C47.2192 88.1867 46.9192 88.1067 46.6725 87.96C46.4259 87.8067 46.2492 87.6 46.1425 87.34C45.9692 87.5533 45.7259 87.7433 45.4125 87.91C45.0992 88.0767 44.7425 88.16 44.3425 88.16C43.8159 88.16 43.3759 88.0133 43.0225 87.72C42.6759 87.42 42.5025 86.9967 42.5025 86.45C42.5025 86.1433 42.5692 85.8767 42.7025 85.65C42.8425 85.4167 43.0292 85.24 43.2625 85.12C43.4959 84.9933 43.7625 84.8933 44.0625 84.82C44.3625 84.74 44.6759 84.7 45.0025 84.7C45.3292 84.6933 45.6559 84.6967 45.9825 84.71C45.9825 84.5433 45.9725 84.4067 45.9525 84.3C45.9392 84.1933 45.9059 84.0833 45.8525 83.97C45.7992 83.8567 45.7125 83.7733 45.5925 83.72C45.4725 83.66 45.3159 83.63 45.1225 83.63C44.6492 83.63 44.0992 83.7967 43.4725 84.13C43.3125 84.21 43.1892 84.1767 43.1025 84.03L42.8725 83.64C42.7725 83.48 42.8392 83.34 43.0725 83.22C43.9059 82.7733 44.6759 82.55 45.3825 82.55ZM45.9725 86.21V85.53C44.6059 85.4167 43.9225 85.6867 43.9225 86.34C43.9225 86.46 43.9492 86.57 44.0025 86.67C44.0625 86.77 44.1592 86.8567 44.2925 86.93C44.4259 86.9967 44.5892 87.03 44.7825 87.03C45.0625 87.03 45.3292 86.9433 45.5825 86.77C45.8425 86.59 45.9725 86.4033 45.9725 86.21ZM51.1956 82.55C51.5089 82.55 51.8023 82.6167 52.0756 82.75C52.3556 82.8833 52.5823 83.0633 52.7556 83.29L52.8156 82.88C52.8823 82.76 52.9856 82.7 53.1256 82.7H53.9556C54.1356 82.7 54.2256 82.7867 54.2256 82.96V88.39C54.2123 90.13 53.3589 91 51.6656 91C50.8123 91 49.9723 90.8033 49.1456 90.41C48.9856 90.35 48.9323 90.2367 48.9856 90.07L49.1656 89.55C49.2256 89.3833 49.3389 89.33 49.5056 89.39C50.1256 89.7033 50.7256 89.86 51.3056 89.86C51.8589 89.86 52.2423 89.7367 52.4556 89.49C52.6689 89.2433 52.7789 88.8633 52.7856 88.35V87.46C52.4056 87.9133 51.8823 88.14 51.2156 88.14C50.4889 88.14 49.8823 87.8867 49.3956 87.38C48.9089 86.8733 48.6656 86.18 48.6656 85.3C48.6656 84.86 48.7356 84.4633 48.8756 84.11C49.0156 83.75 49.2023 83.46 49.4356 83.24C49.6689 83.02 49.9356 82.85 50.2356 82.73C50.5356 82.61 50.8556 82.55 51.1956 82.55ZM51.4456 83.71C51.0723 83.71 50.7589 83.86 50.5056 84.16C50.2523 84.4533 50.1256 84.8467 50.1256 85.34C50.1256 85.88 50.2489 86.29 50.4956 86.57C50.7489 86.85 51.0656 86.99 51.4456 86.99C51.7589 86.99 52.0489 86.8833 52.3156 86.67C52.5823 86.45 52.7389 86.17 52.7856 85.83V85.06C52.7389 84.64 52.5889 84.31 52.3356 84.07C52.0889 83.83 51.7923 83.71 51.4456 83.71ZM58.0964 82.55C58.8431 82.55 59.4431 82.7667 59.8964 83.2C60.3498 83.6267 60.5764 84.2133 60.5764 84.96C60.5764 85.1533 60.5598 85.3467 60.5264 85.54C60.4931 85.6867 60.3931 85.76 60.2264 85.76H56.7064C56.7864 86.1133 56.9531 86.4033 57.2064 86.63C57.4598 86.8567 57.8031 86.97 58.2364 86.97C58.7164 86.97 59.1164 86.84 59.4364 86.58C59.5964 86.5133 59.7164 86.5467 59.7964 86.68L60.0664 87.19C60.1598 87.3433 60.1398 87.4633 60.0064 87.55C59.5331 87.9433 58.9098 88.14 58.1364 88.14C57.5564 88.14 57.0531 88.0367 56.6264 87.83C56.1998 87.6167 55.8631 87.3 55.6164 86.88C55.3764 86.4533 55.2564 85.9433 55.2564 85.35C55.2498 84.9833 55.3031 84.6367 55.4164 84.31C55.5298 83.9833 55.6964 83.6867 55.9164 83.42C56.1431 83.1533 56.4431 82.9433 56.8164 82.79C57.1898 82.63 57.6164 82.55 58.0964 82.55ZM58.0864 83.67C57.7264 83.67 57.4264 83.7767 57.1864 83.99C56.9464 84.2033 56.7964 84.47 56.7364 84.79H59.2764C59.2698 84.45 59.1631 84.18 58.9564 83.98C58.7498 83.7733 58.4598 83.67 58.0864 83.67ZM64.6695 82.55C65.3828 82.55 65.9062 82.7567 66.2395 83.17C66.5795 83.5767 66.7495 84.1933 66.7495 85.02V87.73C66.7495 87.91 66.6628 88 66.4895 88H65.5895C65.4095 88 65.3195 87.91 65.3195 87.73V85.2C65.3195 84.2 65.0028 83.7 64.3695 83.7C64.0228 83.7 63.7328 83.8133 63.4995 84.04C63.2662 84.26 63.1095 84.5833 63.0295 85.01V87.73C63.0295 87.91 62.9428 88 62.7695 88H61.8695C61.6962 88 61.6095 87.91 61.6095 87.73V82.96C61.6095 82.7867 61.6962 82.7 61.8695 82.7H62.6995C62.8528 82.7 62.9562 82.77 63.0095 82.91L63.0395 83.3C63.2462 83.0533 63.4928 82.8667 63.7795 82.74C64.0662 82.6133 64.3628 82.55 64.6695 82.55Z" fill="white"/>
<path d="M23.7017 42V32.2H25.9837L31.3877 38.724H30.3097V32.2H33.0257V42H30.7437L25.3397 35.476H26.4177V42H23.7017ZM38.663 42.126C37.8323 42.126 37.095 41.958 36.451 41.622C35.807 41.286 35.2983 40.824 34.925 40.236C34.561 39.6387 34.379 38.9573 34.379 38.192C34.379 37.4267 34.561 36.75 34.925 36.162C35.2983 35.574 35.807 35.1167 36.451 34.79C37.095 34.454 37.8323 34.286 38.663 34.286C39.4936 34.286 40.231 34.454 40.875 34.79C41.5283 35.1167 42.037 35.574 42.401 36.162C42.765 36.75 42.947 37.4267 42.947 38.192C42.947 38.9573 42.765 39.6387 42.401 40.236C42.037 40.824 41.5283 41.286 40.875 41.622C40.231 41.958 39.4936 42.126 38.663 42.126ZM38.663 40.012C38.971 40.012 39.2416 39.942 39.475 39.802C39.7176 39.662 39.909 39.4567 40.049 39.186C40.189 38.906 40.259 38.5747 40.259 38.192C40.259 37.8093 40.189 37.4873 40.049 37.226C39.909 36.9553 39.7176 36.75 39.475 36.61C39.2416 36.47 38.971 36.4 38.663 36.4C38.3643 36.4 38.0936 36.47 37.851 36.61C37.6176 36.75 37.4263 36.9553 37.277 37.226C37.137 37.4873 37.067 37.8093 37.067 38.192C37.067 38.5747 37.137 38.906 37.277 39.186C37.4263 39.4567 37.6176 39.662 37.851 39.802C38.0936 39.942 38.3643 40.012 38.663 40.012ZM54.6616 42V21.872L57.3816 24.496H50.5016V19.6H60.9976V42H54.6616Z" fill="white"/>
<path d="M22.7217 37.66H43.325V38.36H22.7217V37.66Z" fill="white"/>
<path d="M43.3252 34.56H50.3092V35.76H43.3252V34.56Z" fill="white"/>
<path d="M50.3096 32.08H63.2696V33.68H50.3096V32.08Z" fill="white"/>
</g>
<defs>
<filter id="filter0_d_73_487" x="0.8" y="0.8" width="87.4" height="111.4" filterUnits="userSpaceOnUse" color-interpolation-filters="sRGB">
<feFlood flood-opacity="0" result="BackgroundImageFix"/>
<feColorMatrix in="SourceAlpha" type="matrix" values="0 0 0 0 0 0 0 0 0 0 0 0 0 0 0 0 0 0 127 0" result="hardAlpha"/>
<feOffset dy="4"/>
<feGaussianBlur stdDeviation="5.6"/>
<feComposite in2="hardAlpha" operator="out"/>
<feColorMatrix type="matrix" values="0 0 0 0 0.595833 0 0 0 0 0.0595833 0 0 0 0 0.156108 0 0 0 0.25 0"/>
<feBlend mode="normal" in2="BackgroundImageFix" result="effect1_dropShadow_73_487"/>
<feBlend mode="normal" in="SourceGraphic" in2="effect1_dropShadow_73_487" result="shape"/>
</filter>
<filter id="filter1_b_73_487" x="8" y="4" width="73" height="97" filterUnits="userSpaceOnUse" color-interpolation-filters="sRGB">
<feFlood flood-opacity="0" result="BackgroundImageFix"/>
<feGaussianBlur in="BackgroundImageFix" stdDeviation="2"/>
<feComposite in2="SourceAlpha" operator="in" result="effect1_backgroundBlur_73_487"/>
<feBlend mode="normal" in="SourceGraphic" in2="effect1_backgroundBlur_73_487" result="shape"/>
</filter>
<linearGradient id="paint0_linear_73_487" x1="44.5" y1="8" x2="44.5" y2="97" gradientUnits="userSpaceOnUse">
<stop stop-color="#FF3144"/>
<stop offset="1" stop-color="#EC6876"/>
</linearGradient>
</defs>
</svg>
