<svg width="21" height="21" viewBox="0 0 21 21" fill="none" xmlns="http://www.w3.org/2000/svg">
<g filter="url(#filter0_d_169_1166)">
<path d="M10.6227 10.4655C12.7555 10.4655 14.4846 8.73649 14.4846 6.60361C14.4846 4.47074 12.7555 2.7417 10.6227 2.7417C8.48978 2.7417 6.76074 4.47074 6.76074 6.60361C6.76074 8.73649 8.48978 10.4655 10.6227 10.4655Z" fill="#0052B4"/>
<path d="M10.6229 4.25293L10.748 4.63775H11.1526L10.8252 4.87557L10.9503 5.26039L10.6229 5.02255L10.2956 5.26039L10.4206 4.87557L10.0933 4.63775H10.4979L10.6229 4.25293Z" fill="#FFDA44"/>
<path d="M8.96078 4.94127L9.32133 5.12495L9.60743 4.83887L9.54411 5.23848L9.90465 5.42218L9.50501 5.48548L9.44171 5.88513L9.25802 5.5246L8.8584 5.58791L9.1445 5.30181L8.96078 4.94127Z" fill="#FFDA44"/>
<path d="M8.27197 6.60363L8.65679 6.47859V6.07397L8.8946 6.40133L9.27943 6.27629L9.04158 6.60363L9.27943 6.93097L8.8946 6.80594L8.65679 7.13329V6.72867L8.27197 6.60363Z" fill="#FFDA44"/>
<path d="M8.96078 8.26562L9.14448 7.90508L8.8584 7.61898L9.25803 7.68231L9.4417 7.32178L9.50501 7.72141L9.90463 7.78471L9.54414 7.96841L9.60743 8.36802L9.32133 8.08193L8.96078 8.26562Z" fill="#FFDA44"/>
<path d="M10.6229 8.95445L10.4979 8.56963H10.0933L10.4206 8.33181L10.2956 7.94702L10.6229 8.18483L10.9503 7.94702L10.8252 8.33181L11.1526 8.56963H10.7479L10.6229 8.95445Z" fill="#FFDA44"/>
<path d="M12.2851 8.26562L11.9246 8.08194L11.6385 8.36804L11.7018 7.96839L11.3413 7.78471L11.7409 7.72141L11.8042 7.32178L11.9879 7.68231L12.3875 7.61898L12.1014 7.90511L12.2851 8.26562Z" fill="#FFDA44"/>
<path d="M12.9733 6.60363L12.5884 6.72867V7.13329L12.3506 6.80593L11.9658 6.93097L12.2036 6.60363L11.9658 6.27629L12.3506 6.40133L12.5884 6.07397V6.4786L12.9733 6.60363Z" fill="#FFDA44"/>
<path d="M12.2851 4.94125L12.1014 5.3018L12.3875 5.5879L11.9879 5.52457L11.8042 5.8851L11.7409 5.48547L11.3413 5.42215L11.7018 5.23847L11.6385 4.83887L11.9246 5.12495L12.2851 4.94125Z" fill="#FFDA44"/>
</g>
<defs>
<filter id="filter0_d_169_1166" x="0.460742" y="0.441699" width="20.3236" height="20.3239" filterUnits="userSpaceOnUse" color-interpolation-filters="sRGB">
<feFlood flood-opacity="0" result="BackgroundImageFix"/>
<feColorMatrix in="SourceAlpha" type="matrix" values="0 0 0 0 0 0 0 0 0 0 0 0 0 0 0 0 0 0 127 0" result="hardAlpha"/>
<feOffset dy="4"/>
<feGaussianBlur stdDeviation="3.15"/>
<feComposite in2="hardAlpha" operator="out"/>
<feColorMatrix type="matrix" values="0 0 0 0 0.5625 0 0 0 0 0.133594 0 0 0 0 0.259308 0 0 0 0.19 0"/>
<feBlend mode="normal" in2="BackgroundImageFix" result="effect1_dropShadow_169_1166"/>
<feBlend mode="normal" in="SourceGraphic" in2="effect1_dropShadow_169_1166" result="shape"/>
</filter>
</defs>
</svg>
