<svg width="91" height="110" viewBox="0 0 91 110" fill="none" xmlns="http://www.w3.org/2000/svg">
<g filter="url(#filter0_d_21_165)">
<path d="M70 9H21C16.5817 9 13 12.5817 13 17V85C13 89.4183 16.5817 93 21 93H70C74.4183 93 78 89.4183 78 85V17C78 12.5817 74.4183 9 70 9Z" fill="white"/>
<path d="M37.1701 73.144C37.8687 73.144 38.5514 73.288 39.2181 73.576C39.3461 73.624 39.3834 73.7147 39.3301 73.848L39.1461 74.296C39.0927 74.424 39.0021 74.4667 38.8741 74.424C38.2714 74.184 37.7381 74.064 37.2741 74.064C36.9381 74.064 36.6794 74.1387 36.4981 74.288C36.3221 74.4373 36.2341 74.6213 36.2341 74.84C36.2341 74.9947 36.2794 75.1227 36.3701 75.224C36.4661 75.3253 36.5914 75.4 36.7461 75.448C36.9007 75.496 37.0767 75.544 37.2741 75.592C37.4714 75.64 37.6714 75.6827 37.8741 75.72C38.0821 75.752 38.2847 75.808 38.4821 75.888C38.6794 75.968 38.8554 76.064 39.0101 76.176C39.1647 76.288 39.2874 76.448 39.3781 76.656C39.4741 76.8587 39.5221 77.0987 39.5221 77.376C39.5221 77.5893 39.4794 77.7973 39.3941 78C39.3141 78.1973 39.1887 78.384 39.0181 78.56C38.8527 78.7307 38.6207 78.8693 38.3221 78.976C38.0234 79.0773 37.6794 79.128 37.2901 79.128C36.5807 79.128 35.8207 78.9627 35.0101 78.632C34.8821 78.5787 34.8474 78.4853 34.9061 78.352L35.1061 77.888C35.1594 77.7653 35.2501 77.7253 35.3781 77.768C35.6127 77.848 35.8021 77.912 35.9461 77.96C36.0954 78.008 36.2847 78.056 36.5141 78.104C36.7487 78.152 36.9674 78.176 37.1701 78.176C37.5221 78.176 37.7941 78.1067 37.9861 77.968C38.1834 77.824 38.2821 77.6373 38.2821 77.408C38.2821 77.2587 38.2341 77.1333 38.1381 77.032C38.0474 76.9307 37.9247 76.8587 37.7701 76.816C37.6154 76.768 37.4367 76.7227 37.2341 76.68C37.0367 76.632 36.8341 76.592 36.6261 76.56C36.4234 76.5227 36.2234 76.464 36.0261 76.384C35.8287 76.304 35.6527 76.208 35.4981 76.096C35.3434 75.984 35.2181 75.8267 35.1221 75.624C35.0261 75.416 34.9781 75.1707 34.9781 74.888C34.9781 74.68 35.0207 74.4773 35.1061 74.28C35.1914 74.0773 35.3194 73.8907 35.4901 73.72C35.6607 73.544 35.8901 73.4053 36.1781 73.304C36.4714 73.1973 36.8021 73.144 37.1701 73.144ZM42.4835 74.632C43.0862 74.632 43.5928 74.84 44.0035 75.256C44.1102 75.3467 44.1102 75.4453 44.0035 75.552L43.6595 75.912C43.5742 75.9973 43.4755 76.0027 43.3635 75.928C43.1288 75.6933 42.8515 75.576 42.5315 75.576C42.1742 75.576 41.8835 75.696 41.6595 75.936C41.4355 76.176 41.3235 76.4907 41.3235 76.88C41.3235 77.2747 41.4302 77.5893 41.6435 77.824C41.8622 78.0587 42.1475 78.176 42.4995 78.176C42.8142 78.176 43.1022 78.0587 43.3635 77.824C43.4808 77.7547 43.5822 77.7627 43.6675 77.848L44.0115 78.2C44.1182 78.312 44.1128 78.4133 43.9955 78.504C43.5582 78.9093 43.0488 79.112 42.4675 79.112C41.7422 79.112 41.1822 78.9147 40.7875 78.52C40.3982 78.12 40.2035 77.5707 40.2035 76.872C40.2035 76.1733 40.4142 75.6267 40.8355 75.232C41.2568 74.832 41.8062 74.632 42.4835 74.632ZM46.9679 74.64C48.0452 74.64 48.5839 75.2027 48.5839 76.328V77.912C48.5839 77.9813 48.5972 78.0453 48.6239 78.104C48.6505 78.1573 48.6905 78.2027 48.7439 78.24C48.7972 78.2773 48.8585 78.304 48.9279 78.32C49.0612 78.3627 49.1252 78.4373 49.1199 78.544V78.92C49.1145 79.0533 49.0532 79.128 48.9359 79.144C48.8719 79.1547 48.7999 79.16 48.7199 79.16C48.4372 79.1493 48.1972 79.0853 47.9999 78.968C47.8025 78.8453 47.6612 78.68 47.5759 78.472C47.4372 78.6427 47.2425 78.7947 46.9919 78.928C46.7412 79.0613 46.4559 79.128 46.1359 79.128C45.7145 79.128 45.3625 79.0107 45.0799 78.776C44.8025 78.536 44.6639 78.1973 44.6639 77.76C44.6639 77.5147 44.7172 77.3013 44.8239 77.12C44.9359 76.9333 45.0852 76.792 45.2719 76.696C45.4585 76.5947 45.6719 76.5147 45.9119 76.456C46.1519 76.392 46.4025 76.36 46.6639 76.36C46.9252 76.3547 47.1865 76.3573 47.4479 76.368C47.4479 76.2347 47.4399 76.1253 47.4239 76.04C47.4132 75.9547 47.3865 75.8667 47.3439 75.776C47.3012 75.6853 47.2319 75.6187 47.1359 75.576C47.0399 75.528 46.9145 75.504 46.7599 75.504C46.3812 75.504 45.9412 75.6373 45.4399 75.904C45.3119 75.968 45.2132 75.9413 45.1439 75.824L44.9599 75.512C44.8799 75.384 44.9332 75.272 45.1199 75.176C45.7865 74.8187 46.4025 74.64 46.9679 74.64ZM47.4399 77.568V77.024C46.3465 76.9333 45.7999 77.1493 45.7999 77.672C45.7999 77.768 45.8212 77.856 45.8639 77.936C45.9119 78.016 45.9892 78.0853 46.0959 78.144C46.2025 78.1973 46.3332 78.224 46.4879 78.224C46.7119 78.224 46.9252 78.1547 47.1279 78.016C47.3359 77.872 47.4399 77.7227 47.4399 77.568ZM52.1943 74.64C52.765 74.64 53.1836 74.8053 53.4503 75.136C53.7223 75.4613 53.8583 75.9547 53.8583 76.616V78.784C53.8583 78.928 53.789 79 53.6503 79H52.9303C52.7863 79 52.7143 78.928 52.7143 78.784V76.76C52.7143 75.96 52.461 75.56 51.9543 75.56C51.677 75.56 51.445 75.6507 51.2583 75.832C51.0716 76.008 50.9463 76.2667 50.8823 76.608V78.784C50.8823 78.928 50.813 79 50.6743 79H49.9543C49.8156 79 49.7463 78.928 49.7463 78.784V74.968C49.7463 74.8293 49.8156 74.76 49.9543 74.76H50.6183C50.741 74.76 50.8236 74.816 50.8663 74.928L50.8903 75.24C51.0556 75.0427 51.253 74.8933 51.4823 74.792C51.7116 74.6907 51.949 74.64 52.1943 74.64ZM28.8879 81.24H31.3679C31.8746 81.24 32.2932 81.4133 32.6239 81.76C32.9546 82.1067 33.1199 82.5627 33.1199 83.128C33.1199 83.3253 33.0986 83.512 33.0559 83.688C33.0186 83.864 32.9626 84.0213 32.8879 84.16C32.8132 84.2987 32.7226 84.424 32.6159 84.536C32.5146 84.648 32.3972 84.7413 32.2639 84.816C32.1359 84.8907 31.9946 84.9467 31.8399 84.984C31.6906 85.0213 31.5332 85.04 31.3679 85.04H29.8319V86.784C29.8319 86.928 29.7599 87 29.6159 87H28.8879C28.7492 87 28.6799 86.928 28.6799 86.784V81.456C28.6799 81.312 28.7492 81.24 28.8879 81.24ZM31.0799 82.12H29.8319V84.168H31.0799C31.1919 84.168 31.3012 84.1467 31.4079 84.104C31.5146 84.056 31.6132 83.992 31.7039 83.912C31.7946 83.8267 31.8666 83.7173 31.9199 83.584C31.9732 83.4453 31.9999 83.2933 31.9999 83.128C31.9999 82.808 31.9066 82.56 31.7199 82.384C31.5386 82.208 31.3252 82.12 31.0799 82.12ZM36.3148 82.64C36.4908 82.64 36.6535 82.664 36.8028 82.712C36.9308 82.744 36.9815 82.8293 36.9548 82.968L36.8748 83.424C36.8482 83.5573 36.7762 83.6107 36.6588 83.584C36.5628 83.552 36.4535 83.536 36.3308 83.536C36.0962 83.536 35.8722 83.6027 35.6588 83.736C35.4508 83.864 35.2855 84.0373 35.1628 84.256C35.0402 84.4693 34.9788 84.696 34.9788 84.936V86.784C34.9788 86.928 34.9068 87 34.7628 87H34.0508C33.9068 87 33.8348 86.928 33.8348 86.784V82.968C33.8348 82.8293 33.9068 82.76 34.0508 82.76H34.6108C34.7388 82.76 34.8188 82.8187 34.8508 82.936L34.8988 83.488C35.0588 83.2107 35.2642 83 35.5148 82.856C35.7655 82.712 36.0322 82.64 36.3148 82.64ZM39.567 82.64C40.2817 82.64 40.8417 82.8507 41.247 83.272C41.6577 83.688 41.863 84.224 41.863 84.88C41.863 85.536 41.6577 86.072 41.247 86.488C40.8417 86.904 40.2817 87.112 39.567 87.112C38.8577 87.112 38.2977 86.904 37.887 86.488C37.4817 86.072 37.279 85.536 37.279 84.88C37.279 84.2187 37.4817 83.68 37.887 83.264C38.2977 82.848 38.8577 82.64 39.567 82.64ZM40.391 83.944C40.183 83.6933 39.9084 83.568 39.567 83.568C39.231 83.568 38.9564 83.6933 38.743 83.944C38.535 84.1893 38.431 84.5013 38.431 84.88C38.431 85.2533 38.535 85.5653 38.743 85.816C38.9564 86.0667 39.231 86.192 39.567 86.192C39.9084 86.192 40.183 86.0667 40.391 85.816C40.6044 85.5653 40.711 85.2533 40.711 84.88C40.711 84.5013 40.6044 84.1893 40.391 83.944ZM46.0938 81H46.8138C46.9525 81 47.0218 81.0693 47.0218 81.208V86.784C47.0218 86.928 46.9525 87 46.8138 87H46.2618C46.1285 87 46.0538 86.9333 46.0378 86.8L46.0298 86.488C45.8805 86.6747 45.6805 86.8267 45.4298 86.944C45.1792 87.056 44.9178 87.112 44.6458 87.112C44.0698 87.112 43.5845 86.9093 43.1898 86.504C42.8005 86.0987 42.6058 85.544 42.6058 84.84C42.6058 84.5573 42.6405 84.296 42.7098 84.056C42.7845 83.816 42.8858 83.6107 43.0138 83.44C43.1418 83.264 43.2912 83.1173 43.4618 83C43.6325 82.8773 43.8165 82.7867 44.0138 82.728C44.2112 82.6693 44.4165 82.64 44.6298 82.64C44.8645 82.64 45.0938 82.6907 45.3178 82.792C45.5472 82.8933 45.7365 83.032 45.8858 83.208V81.208C45.8858 81.0693 45.9552 81 46.0938 81ZM44.8298 83.584C44.6378 83.584 44.4618 83.6347 44.3018 83.736C44.1418 83.8373 44.0138 83.9867 43.9178 84.184C43.8218 84.3813 43.7738 84.6107 43.7738 84.872C43.7738 85.304 43.8752 85.6293 44.0778 85.848C44.2805 86.0667 44.5312 86.176 44.8298 86.176C45.0805 86.176 45.3125 86.0933 45.5258 85.928C45.7392 85.7573 45.8672 85.536 45.9098 85.264V84.648C45.8672 84.3173 45.7472 84.0587 45.5498 83.872C45.3525 83.68 45.1125 83.584 44.8298 83.584ZM51.1755 82.76H51.8955C52.0341 82.76 52.1035 82.8293 52.1035 82.968V85.696C52.1035 85.9893 52.2261 86.1573 52.4715 86.2C52.5515 86.2107 52.5995 86.2133 52.6155 86.208C52.7008 86.2187 52.7381 86.2907 52.7275 86.424L52.6955 86.888C52.6848 87.0213 52.6448 87.0907 52.5755 87.096C52.5115 87.1067 52.4501 87.112 52.3915 87.112C51.7781 87.112 51.3888 86.8907 51.2235 86.448C51.1968 86.4 51.1728 86.352 51.1515 86.304C50.8315 86.848 50.3488 87.12 49.7035 87.12C49.1221 87.12 48.6901 86.9573 48.4075 86.632C48.1301 86.3013 47.9915 85.8027 47.9915 85.136V82.968C47.9915 82.8293 48.0608 82.76 48.1995 82.76H48.9195C49.0635 82.76 49.1355 82.8293 49.1355 82.968V84.992C49.1355 85.7973 49.4048 86.2 49.9435 86.2C50.2261 86.2 50.4555 86.1067 50.6315 85.92C50.8075 85.728 50.9195 85.472 50.9675 85.152V82.968C50.9675 82.8293 51.0368 82.76 51.1755 82.76ZM55.4249 82.632C56.0276 82.632 56.5342 82.84 56.9449 83.256C57.0516 83.3467 57.0516 83.4453 56.9449 83.552L56.6009 83.912C56.5156 83.9973 56.4169 84.0027 56.3049 83.928C56.0702 83.6933 55.7929 83.576 55.4729 83.576C55.1156 83.576 54.8249 83.696 54.6009 83.936C54.3769 84.176 54.2649 84.4907 54.2649 84.88C54.2649 85.2747 54.3716 85.5893 54.5849 85.824C54.8036 86.0587 55.0889 86.176 55.4409 86.176C55.7556 86.176 56.0436 86.0587 56.3049 85.824C56.4222 85.7547 56.5236 85.7627 56.6089 85.848L56.9529 86.2C57.0596 86.312 57.0542 86.4133 56.9369 86.504C56.4996 86.9093 55.9902 87.112 55.4089 87.112C54.6836 87.112 54.1236 86.9147 53.7289 86.52C53.3396 86.12 53.1449 85.5707 53.1449 84.872C53.1449 84.1733 53.3556 83.6267 53.7769 83.232C54.1982 82.832 54.7476 82.632 55.4249 82.632ZM58.2853 81.24H59.0053C59.1493 81.24 59.2213 81.3093 59.2213 81.448V82.76H60.0373C60.1813 82.76 60.2533 82.832 60.2533 82.976V83.368C60.2533 83.5067 60.1813 83.576 60.0373 83.576H59.2213L59.2133 85.408C59.2133 85.9307 59.4426 86.192 59.9013 86.192C60.0293 86.192 60.1919 86.1493 60.3893 86.064C60.5333 86.0213 60.6186 86.064 60.6453 86.192L60.7413 86.632C60.7733 86.7653 60.7306 86.8533 60.6133 86.896C60.2559 87.0507 59.9066 87.128 59.5653 87.128C59.1119 87.128 58.7493 87.0133 58.4773 86.784C58.2106 86.5547 58.0773 86.1813 58.0773 85.664V83.576H57.6133C57.4746 83.576 57.4053 83.5067 57.4053 83.368V82.976C57.4053 82.832 57.4746 82.76 57.6133 82.76H58.0773V81.448C58.0773 81.3093 58.1466 81.24 58.2853 81.24Z" fill="black"/>
<path d="M21.908 16.2954H19.8653V18.3381H21.908V16.2954Z" fill="black"/>
<path d="M23.9508 16.2954H21.908V18.3381H23.9508V16.2954Z" fill="black"/>
<path d="M25.9935 16.2954H23.9508V18.3381H25.9935V16.2954Z" fill="black"/>
<path d="M28.0362 16.2954H25.9935V18.3381H28.0362V16.2954Z" fill="black"/>
<path d="M30.0789 16.2954H28.0362V18.3381H30.0789V16.2954Z" fill="black"/>
<path d="M32.1217 16.2954H30.0789V18.3381H32.1217V16.2954Z" fill="black"/>
<path d="M34.1644 16.2954H32.1217V18.3381H34.1644V16.2954Z" fill="black"/>
<path d="M38.2499 16.2954H36.2071V18.3381H38.2499V16.2954Z" fill="black"/>
<path d="M40.2926 16.2954H38.2499V18.3381H40.2926V16.2954Z" fill="black"/>
<path d="M48.4635 16.2954H46.4208V18.3381H48.4635V16.2954Z" fill="black"/>
<path d="M54.5917 16.2954H52.549V18.3381H54.5917V16.2954Z" fill="black"/>
<path d="M58.6772 16.2954H56.6344V18.3381H58.6772V16.2954Z" fill="black"/>
<path d="M60.7199 16.2954H58.6772V18.3381H60.7199V16.2954Z" fill="black"/>
<path d="M62.7626 16.2954H60.7199V18.3381H62.7626V16.2954Z" fill="black"/>
<path d="M64.8054 16.2954H62.7626V18.3381H64.8054V16.2954Z" fill="black"/>
<path d="M66.8481 16.2954H64.8054V18.3381H66.8481V16.2954Z" fill="black"/>
<path d="M68.8908 16.2954H66.8481V18.3381H68.8908V16.2954Z" fill="black"/>
<path d="M70.9335 16.2954H68.8908V18.3381H70.9335V16.2954Z" fill="black"/>
<path d="M21.908 18.3381H19.8653V20.3809H21.908V18.3381Z" fill="black"/>
<path d="M34.1644 18.3381H32.1217L32.1217 20.3809H34.1644V18.3381Z" fill="black"/>
<path d="M46.4208 18.3381H44.3781V20.3809H46.4208V18.3381Z" fill="black"/>
<path d="M48.4635 18.3381H46.4208V20.3809H48.4635V18.3381Z" fill="black"/>
<path d="M54.5917 18.3381H52.549V20.3809H54.5917V18.3381Z" fill="black"/>
<path d="M58.6772 18.3381H56.6344V20.3809H58.6772V18.3381Z" fill="black"/>
<path d="M70.9335 18.3381H68.8908V20.3809H70.9335V18.3381Z" fill="black"/>
<path d="M21.908 20.3809H19.8653V22.4236H21.908V20.3809Z" fill="black"/>
<path d="M25.9935 20.3809H23.9508V22.4236H25.9935V20.3809Z" fill="black"/>
<path d="M28.0362 20.3809H25.9935V22.4236H28.0362V20.3809Z" fill="black"/>
<path d="M30.0789 20.3809H28.0362V22.4236H30.0789V20.3809Z" fill="black"/>
<path d="M34.1644 20.3809H32.1217V22.4236H34.1644V20.3809Z" fill="black"/>
<path d="M40.2926 20.3809H38.2499V22.4236H40.2926V20.3809Z" fill="black"/>
<path d="M42.3353 20.3809H40.2926V22.4236H42.3353V20.3809Z" fill="black"/>
<path d="M44.3781 20.3809H42.3353V22.4236H44.3781V20.3809Z" fill="black"/>
<path d="M46.4208 20.3809H44.3781V22.4236H46.4208V20.3809Z" fill="black"/>
<path d="M48.4635 20.3809H46.4208V22.4236H48.4635V20.3809Z" fill="black"/>
<path d="M54.5917 20.3809H52.549V22.4236H54.5917V20.3809Z" fill="black"/>
<path d="M58.6772 20.3809H56.6344V22.4236H58.6772V20.3809Z" fill="black"/>
<path d="M62.7626 20.3809H60.7199V22.4236H62.7626V20.3809Z" fill="black"/>
<path d="M64.8054 20.3809H62.7626V22.4236H64.8054V20.3809Z" fill="black"/>
<path d="M66.8481 20.3809H64.8054V22.4236H66.8481V20.3809Z" fill="black"/>
<path d="M70.9335 20.3809H68.8908V22.4236H70.9335V20.3809Z" fill="black"/>
<path d="M21.908 22.4236H19.8653V24.4663H21.908V22.4236Z" fill="black"/>
<path d="M25.9935 22.4236H23.9508V24.4663H25.9935V22.4236Z" fill="black"/>
<path d="M28.0362 22.4236H25.9935V24.4663H28.0362V22.4236Z" fill="black"/>
<path d="M30.0789 22.4236H28.0362V24.4663H30.0789V22.4236Z" fill="black"/>
<path d="M34.1644 22.4236H32.1217V24.4663H34.1644V22.4236Z" fill="black"/>
<path d="M40.2926 22.4236H38.2499V24.4663H40.2926V22.4236Z" fill="black"/>
<path d="M42.3353 22.4236H40.2926V24.4663H42.3353V22.4236Z" fill="black"/>
<path d="M48.4635 22.4236H46.4208V24.4663H48.4635V22.4236Z" fill="black"/>
<path d="M58.6772 22.4236H56.6344V24.4663H58.6772V22.4236Z" fill="black"/>
<path d="M62.7626 22.4236H60.7199V24.4663H62.7626V22.4236Z" fill="black"/>
<path d="M64.8054 22.4236H62.7626V24.4663H64.8054V22.4236Z" fill="black"/>
<path d="M66.8481 22.4236H64.8054V24.4663H66.8481V22.4236Z" fill="black"/>
<path d="M70.9335 22.4236H68.8908V24.4663H70.9335V22.4236Z" fill="black"/>
<path d="M21.908 24.4663H19.8653V26.5091H21.908V24.4663Z" fill="black"/>
<path d="M25.9935 24.4663H23.9508V26.5091H25.9935V24.4663Z" fill="black"/>
<path d="M28.0362 24.4663H25.9935V26.5091H28.0362V24.4663Z" fill="black"/>
<path d="M30.0789 24.4663H28.0362V26.5091H30.0789V24.4663Z" fill="black"/>
<path d="M34.1644 24.4663H32.1217V26.5091H34.1644V24.4663Z" fill="black"/>
<path d="M38.2499 24.4663H36.2071V26.5091H38.2499V24.4663Z" fill="black"/>
<path d="M42.3353 24.4663H40.2926V26.5091H42.3353V24.4663Z" fill="black"/>
<path d="M44.3781 24.4663H42.3353V26.5091H44.3781V24.4663Z" fill="black"/>
<path d="M46.4208 24.4663H44.3781V26.5091H46.4208V24.4663Z" fill="black"/>
<path d="M50.5062 24.4663H48.4635V26.5091H50.5062V24.4663Z" fill="black"/>
<path d="M58.6772 24.4663H56.6344V26.5091H58.6772V24.4663Z" fill="black"/>
<path d="M62.7626 24.4663H60.7199V26.5091H62.7626V24.4663Z" fill="black"/>
<path d="M64.8054 24.4663H62.7626V26.5091H64.8054V24.4663Z" fill="black"/>
<path d="M66.8481 24.4663H64.8054V26.5091H66.8481V24.4663Z" fill="black"/>
<path d="M70.9335 24.4663H68.8908V26.5091H70.9335V24.4663Z" fill="black"/>
<path d="M21.908 26.5091H19.8653V28.5518H21.908V26.5091Z" fill="black"/>
<path d="M34.1644 26.5091H32.1217V28.5518H34.1644V26.5091Z" fill="black"/>
<path d="M50.5062 26.5091H48.4635V28.5518H50.5062V26.5091Z" fill="black"/>
<path d="M58.6772 26.5091H56.6344V28.5518H58.6772V26.5091Z" fill="black"/>
<path d="M70.9335 26.5091H68.8908V28.5518H70.9335V26.5091Z" fill="black"/>
<path d="M21.908 28.5518H19.8653V30.5945H21.908V28.5518Z" fill="black"/>
<path d="M23.9508 28.5518L21.908 28.5518V30.5945H23.9508V28.5518Z" fill="black"/>
<path d="M25.9935 28.5518H23.9508V30.5945H25.9935V28.5518Z" fill="black"/>
<path d="M28.0362 28.5518H25.9935V30.5945H28.0362V28.5518Z" fill="black"/>
<path d="M30.0789 28.5518H28.0362V30.5945H30.0789V28.5518Z" fill="black"/>
<path d="M32.1217 28.5518L30.0789 28.5518V30.5945H32.1217L32.1217 28.5518Z" fill="black"/>
<path d="M34.1644 28.5518H32.1217L32.1217 30.5945H34.1644V28.5518Z" fill="black"/>
<path d="M38.2499 28.5518H36.2071V30.5945H38.2499V28.5518Z" fill="black"/>
<path d="M42.3353 28.5518H40.2926V30.5945H42.3353V28.5518Z" fill="black"/>
<path d="M46.4208 28.5518H44.3781V30.5945H46.4208V28.5518Z" fill="black"/>
<path d="M50.5062 28.5518H48.4635V30.5945H50.5062V28.5518Z" fill="black"/>
<path d="M54.5917 28.5518H52.549V30.5945H54.5917V28.5518Z" fill="black"/>
<path d="M58.6772 28.5518H56.6344V30.5945H58.6772V28.5518Z" fill="black"/>
<path d="M60.7199 28.5518L58.6772 28.5518V30.5945H60.7199V28.5518Z" fill="black"/>
<path d="M62.7626 28.5518H60.7199V30.5945H62.7626V28.5518Z" fill="black"/>
<path d="M64.8054 28.5518H62.7626V30.5945H64.8054V28.5518Z" fill="black"/>
<path d="M66.8481 28.5518H64.8054V30.5945H66.8481V28.5518Z" fill="black"/>
<path d="M68.8908 28.5518L66.8481 28.5518V30.5945H68.8908V28.5518Z" fill="black"/>
<path d="M70.9335 28.5518H68.8908V30.5945H70.9335V28.5518Z" fill="black"/>
<path d="M38.2499 30.5945H36.2071V32.6373H38.2499V30.5945Z" fill="black"/>
<path d="M42.3353 30.5945H40.2926V32.6373H42.3353V30.5945Z" fill="black"/>
<path d="M46.4208 30.5945H44.3781V32.6373H46.4208V30.5945Z" fill="black"/>
<path d="M48.4635 30.5945H46.4208V32.6373H48.4635V30.5945Z" fill="black"/>
<path d="M52.549 30.5945H50.5062L50.5062 32.6373H52.549V30.5945Z" fill="black"/>
<path d="M54.5917 30.5945H52.549V32.6373H54.5917V30.5945Z" fill="black"/>
<path d="M21.908 32.6373H19.8653V34.68H21.908V32.6373Z" fill="black"/>
<path d="M28.0362 32.6373H25.9935V34.68H28.0362V32.6373Z" fill="black"/>
<path d="M30.0789 32.6373H28.0362V34.68H30.0789V32.6373Z" fill="black"/>
<path d="M32.1217 32.6373H30.0789V34.68H32.1217V32.6373Z" fill="black"/>
<path d="M34.1644 32.6373H32.1217V34.68H34.1644V32.6373Z" fill="black"/>
<path d="M36.2071 32.6373H34.1644V34.68H36.2071V32.6373Z" fill="black"/>
<path d="M38.2499 32.6373H36.2071V34.68H38.2499V32.6373Z" fill="black"/>
<path d="M40.2926 32.6373H38.2499V34.68H40.2926V32.6373Z" fill="black"/>
<path d="M48.4635 32.6373H46.4208V34.68H48.4635V32.6373Z" fill="black"/>
<path d="M54.5917 32.6373H52.549V34.68H54.5917V32.6373Z" fill="black"/>
<path d="M56.6344 32.6373H54.5917V34.68H56.6344V32.6373Z" fill="black"/>
<path d="M58.6772 32.6373H56.6344V34.68H58.6772V32.6373Z" fill="black"/>
<path d="M62.7626 32.6373H60.7199V34.68H62.7626V32.6373Z" fill="black"/>
<path d="M70.9335 32.6373H68.8908V34.68H70.9335V32.6373Z" fill="black"/>
<path d="M23.9508 34.68H21.908V36.7227H23.9508V34.68Z" fill="black"/>
<path d="M28.0362 34.68H25.9935V36.7227H28.0362V34.68Z" fill="black"/>
<path d="M30.0789 34.68H28.0362V36.7227H30.0789V34.68Z" fill="black"/>
<path d="M36.2071 34.68H34.1644V36.7227H36.2071V34.68Z" fill="black"/>
<path d="M38.2499 34.68H36.2071V36.7227H38.2499V34.68Z" fill="black"/>
<path d="M46.4208 34.68H44.3781V36.7227H46.4208V34.68Z" fill="black"/>
<path d="M52.549 34.68H50.5062V36.7227H52.549V34.68Z" fill="black"/>
<path d="M56.6344 34.68H54.5917V36.7227H56.6344V34.68Z" fill="black"/>
<path d="M58.6772 34.68H56.6344V36.7227H58.6772V34.68Z" fill="black"/>
<path d="M62.7626 34.68H60.7199V36.7227H62.7626V34.68Z" fill="black"/>
<path d="M64.8054 34.68H62.7626V36.7227H64.8054V34.68Z" fill="black"/>
<path d="M66.8481 34.68H64.8054V36.7227H66.8481V34.68Z" fill="black"/>
<path d="M68.8908 34.68H66.8481V36.7227H68.8908V34.68Z" fill="black"/>
<path d="M70.9335 34.68H68.8908V36.7227H70.9335V34.68Z" fill="black"/>
<path d="M21.908 36.7227H19.8653V38.7654H21.908V36.7227Z" fill="black"/>
<path d="M23.9508 36.7227H21.908V38.7654H23.9508V36.7227Z" fill="black"/>
<path d="M28.0362 36.7227H25.9935V38.7654H28.0362V36.7227Z" fill="black"/>
<path d="M30.0789 36.7227H28.0362V38.7654H30.0789V36.7227Z" fill="black"/>
<path d="M32.1217 36.7227H30.0789V38.7654H32.1217V36.7227Z" fill="black"/>
<path d="M34.1644 36.7227H32.1217V38.7654H34.1644V36.7227Z" fill="black"/>
<path d="M36.2071 36.7227H34.1644V38.7654H36.2071V36.7227Z" fill="black"/>
<path d="M40.2926 36.7227H38.2499V38.7654H40.2926V36.7227Z" fill="black"/>
<path d="M44.3781 36.7227H42.3353V38.7654H44.3781V36.7227Z" fill="black"/>
<path d="M46.4208 36.7227H44.3781V38.7654H46.4208V36.7227Z" fill="black"/>
<path d="M50.5062 36.7227H48.4635V38.7654H50.5062L50.5062 36.7227Z" fill="black"/>
<path d="M54.5917 36.7227H52.549V38.7654H54.5917V36.7227Z" fill="black"/>
<path d="M56.6344 36.7227H54.5917V38.7654H56.6344V36.7227Z" fill="black"/>
<path d="M58.6772 36.7227H56.6344V38.7654H58.6772V36.7227Z" fill="black"/>
<path d="M60.7199 36.7227H58.6772V38.7654H60.7199V36.7227Z" fill="black"/>
<path d="M62.7626 36.7227H60.7199V38.7654H62.7626V36.7227Z" fill="black"/>
<path d="M64.8054 36.7227H62.7626V38.7654H64.8054V36.7227Z" fill="black"/>
<path d="M66.8481 36.7227H64.8054V38.7654H66.8481V36.7227Z" fill="black"/>
<path d="M68.8908 36.7227H66.8481V38.7654H68.8908V36.7227Z" fill="black"/>
<path d="M21.908 38.7654H19.8653V40.8082H21.908V38.7654Z" fill="black"/>
<path d="M30.0789 38.7654H28.0362V40.8082H30.0789V38.7654Z" fill="black"/>
<path d="M32.1217 38.7654H30.0789V40.8082H32.1217V38.7654Z" fill="black"/>
<path d="M36.2071 38.7654H34.1644V40.8082H36.2071V38.7654Z" fill="black"/>
<path d="M40.2926 38.7654H38.2499V40.8082H40.2926V38.7654Z" fill="black"/>
<path d="M42.3353 38.7654H40.2926V40.8082H42.3353V38.7654Z" fill="black"/>
<path d="M50.5062 38.7654H48.4635V40.8082H50.5062V38.7654Z" fill="black"/>
<path d="M52.549 38.7654H50.5062V40.8082H52.549V38.7654Z" fill="black"/>
<path d="M62.7626 38.7654H60.7199V40.8082H62.7626V38.7654Z" fill="black"/>
<path d="M66.8481 38.7654H64.8054V40.8082H66.8481V38.7654Z" fill="black"/>
<path d="M68.8908 38.7654H66.8481V40.8082H68.8908V38.7654Z" fill="black"/>
<path d="M21.908 40.8082H19.8653V42.8509H21.908V40.8082Z" fill="black"/>
<path d="M28.0362 40.8082H25.9935V42.8509H28.0362V40.8082Z" fill="black"/>
<path d="M30.0789 40.8082H28.0362V42.8509H30.0789V40.8082Z" fill="black"/>
<path d="M32.1217 40.8082H30.0789V42.8509H32.1217V40.8082Z" fill="black"/>
<path d="M34.1644 40.8082H32.1217V42.8509H34.1644V40.8082Z" fill="black"/>
<path d="M36.2071 40.8082H34.1644V42.8509H36.2071V40.8082Z" fill="black"/>
<path d="M38.2499 40.8082H36.2071V42.8509H38.2499V40.8082Z" fill="black"/>
<path d="M42.3353 40.8082H40.2926V42.8509H42.3353V40.8082Z" fill="black"/>
<path d="M44.3781 40.8082H42.3353V42.8509H44.3781V40.8082Z" fill="black"/>
<path d="M48.4635 40.8082H46.4208V42.8509H48.4635V40.8082Z" fill="black"/>
<path d="M50.5062 40.8082H48.4635V42.8509H50.5062V40.8082Z" fill="black"/>
<path d="M54.5917 40.8082H52.549V42.8509H54.5917V40.8082Z" fill="black"/>
<path d="M60.7199 40.8082H58.6772V42.8509H60.7199V40.8082Z" fill="black"/>
<path d="M64.8054 40.8082H62.7626V42.8509H64.8054V40.8082Z" fill="black"/>
<path d="M66.8481 40.8082H64.8054V42.8509H66.8481V40.8082Z" fill="black"/>
<path d="M70.9335 40.8082H68.8908V42.8509H70.9335V40.8082Z" fill="black"/>
<path d="M21.908 42.8509H19.8653V44.8936H21.908V42.8509Z" fill="black"/>
<path d="M23.9508 42.8509H21.908V44.8936H23.9508V42.8509Z" fill="black"/>
<path d="M36.2071 42.8509H34.1644V44.8936H36.2071V42.8509Z" fill="black"/>
<path d="M38.2499 42.8509H36.2071V44.8936H38.2499V42.8509Z" fill="black"/>
<path d="M40.2926 42.8509H38.2499V44.8936H40.2926V42.8509Z" fill="black"/>
<path d="M46.4208 42.8509H44.3781V44.8936H46.4208V42.8509Z" fill="black"/>
<path d="M50.5062 42.8509H48.4635V44.8936H50.5062V42.8509Z" fill="black"/>
<path d="M52.549 42.8509H50.5062V44.8936H52.549V42.8509Z" fill="black"/>
<path d="M54.5917 42.8509H52.549V44.8936H54.5917V42.8509Z" fill="black"/>
<path d="M56.6344 42.8509H54.5917V44.8936H56.6344V42.8509Z" fill="black"/>
<path d="M62.7626 42.8509H60.7199V44.8936H62.7626V42.8509Z" fill="black"/>
<path d="M66.8481 42.8509H64.8054V44.8936H66.8481V42.8509Z" fill="black"/>
<path d="M68.8908 42.8509H66.8481V44.8936H68.8908V42.8509Z" fill="black"/>
<path d="M70.9335 42.8509H68.8908V44.8936H70.9335V42.8509Z" fill="black"/>
<path d="M21.908 44.8936H19.8653V46.9364H21.908V44.8936Z" fill="black"/>
<path d="M23.9508 44.8936H21.908V46.9364H23.9508V44.8936Z" fill="black"/>
<path d="M25.9935 44.8936H23.9508V46.9364H25.9935V44.8936Z" fill="black"/>
<path d="M34.1644 44.8936H32.1217V46.9364H34.1644V44.8936Z" fill="black"/>
<path d="M40.2926 44.8936H38.2499V46.9364H40.2926V44.8936Z" fill="black"/>
<path d="M44.3781 44.8936H42.3353V46.9364H44.3781V44.8936Z" fill="black"/>
<path d="M46.4208 44.8936H44.3781V46.9364H46.4208V44.8936Z" fill="black"/>
<path d="M50.5062 44.8936H48.4635V46.9364H50.5062V44.8936Z" fill="black"/>
<path d="M56.6344 44.8936H54.5917V46.9364H56.6344V44.8936Z" fill="black"/>
<path d="M60.7199 44.8936H58.6772V46.9364H60.7199V44.8936Z" fill="black"/>
<path d="M62.7626 44.8936H60.7199V46.9364H62.7626V44.8936Z" fill="black"/>
<path d="M66.8481 44.8936H64.8054V46.9364H66.8481V44.8936Z" fill="black"/>
<path d="M23.9508 46.9364H21.908V48.9791H23.9508V46.9364Z" fill="black"/>
<path d="M36.2071 46.9364L34.1644 46.9364V48.9791H36.2071V46.9364Z" fill="black"/>
<path d="M46.4208 46.9364H44.3781V48.9791H46.4208V46.9364Z" fill="black"/>
<path d="M50.5062 46.9364H48.4635V48.9791H50.5062V46.9364Z" fill="black"/>
<path d="M52.549 46.9364L50.5062 46.9364V48.9791H52.549V46.9364Z" fill="black"/>
<path d="M58.6772 46.9364H56.6344V48.9791H58.6772V46.9364Z" fill="black"/>
<path d="M62.7626 46.9364H60.7199V48.9791H62.7626V46.9364Z" fill="black"/>
<path d="M68.8908 46.9364L66.8481 46.9364V48.9791H68.8908V46.9364Z" fill="black"/>
<path d="M21.908 48.9791H19.8653V51.0218H21.908V48.9791Z" fill="black"/>
<path d="M32.1217 48.9791H30.0789V51.0218H32.1217V48.9791Z" fill="black"/>
<path d="M34.1644 48.9791H32.1217V51.0218H34.1644V48.9791Z" fill="black"/>
<path d="M36.2071 48.9791H34.1644V51.0218H36.2071V48.9791Z" fill="black"/>
<path d="M40.2926 48.9791H38.2499V51.0218H40.2926V48.9791Z" fill="black"/>
<path d="M42.3353 48.9791H40.2926V51.0218H42.3353V48.9791Z" fill="black"/>
<path d="M46.4208 48.9791H44.3781V51.0218H46.4208V48.9791Z" fill="black"/>
<path d="M52.549 48.9791H50.5062L50.5062 51.0218H52.549V48.9791Z" fill="black"/>
<path d="M54.5917 48.9791H52.549V51.0218H54.5917V48.9791Z" fill="black"/>
<path d="M56.6344 48.9791H54.5917V51.0218H56.6344V48.9791Z" fill="black"/>
<path d="M58.6772 48.9791H56.6344V51.0218H58.6772V48.9791Z" fill="black"/>
<path d="M60.7199 48.9791H58.6772V51.0218H60.7199V48.9791Z" fill="black"/>
<path d="M62.7626 48.9791H60.7199V51.0218H62.7626V48.9791Z" fill="black"/>
<path d="M64.8054 48.9791H62.7626V51.0218H64.8054V48.9791Z" fill="black"/>
<path d="M68.8908 48.9791H66.8481V51.0218H68.8908V48.9791Z" fill="black"/>
<path d="M38.2499 51.0218H36.2071V53.0646H38.2499V51.0218Z" fill="black"/>
<path d="M42.3353 51.0218H40.2926V53.0646H42.3353V51.0218Z" fill="black"/>
<path d="M46.4208 51.0218H44.3781V53.0646H46.4208V51.0218Z" fill="black"/>
<path d="M52.549 51.0218H50.5062V53.0646H52.549V51.0218Z" fill="black"/>
<path d="M54.5917 51.0218H52.549V53.0646H54.5917V51.0218Z" fill="black"/>
<path d="M62.7626 51.0218H60.7199V53.0646H62.7626V51.0218Z" fill="black"/>
<path d="M64.8054 51.0218H62.7626V53.0646H64.8054V51.0218Z" fill="black"/>
<path d="M66.8481 51.0218H64.8054V53.0646H66.8481V51.0218Z" fill="black"/>
<path d="M21.908 53.0646H19.8653V55.1073H21.908V53.0646Z" fill="black"/>
<path d="M23.9508 53.0646H21.908V55.1073H23.9508V53.0646Z" fill="black"/>
<path d="M25.9935 53.0646H23.9508V55.1073H25.9935V53.0646Z" fill="black"/>
<path d="M28.0362 53.0646H25.9935V55.1073H28.0362V53.0646Z" fill="black"/>
<path d="M30.0789 53.0646H28.0362V55.1073H30.0789V53.0646Z" fill="black"/>
<path d="M32.1217 53.0646H30.0789V55.1073H32.1217V53.0646Z" fill="black"/>
<path d="M34.1644 53.0646H32.1217V55.1073H34.1644V53.0646Z" fill="black"/>
<path d="M38.2499 53.0646H36.2071V55.1073H38.2499V53.0646Z" fill="black"/>
<path d="M46.4208 53.0646H44.3781V55.1073H46.4208V53.0646Z" fill="black"/>
<path d="M52.549 53.0646H50.5062V55.1073H52.549V53.0646Z" fill="black"/>
<path d="M54.5917 53.0646H52.549V55.1073H54.5917V53.0646Z" fill="black"/>
<path d="M58.6772 53.0646H56.6344V55.1073H58.6772V53.0646Z" fill="black"/>
<path d="M62.7626 53.0646H60.7199V55.1073H62.7626V53.0646Z" fill="black"/>
<path d="M64.8054 53.0646H62.7626V55.1073H64.8054V53.0646Z" fill="black"/>
<path d="M66.8481 53.0646H64.8054V55.1073H66.8481V53.0646Z" fill="black"/>
<path d="M70.9335 53.0646H68.8908V55.1073H70.9335V53.0646Z" fill="black"/>
<path d="M21.908 55.1073H19.8653V57.15H21.908V55.1073Z" fill="black"/>
<path d="M34.1644 55.1073H32.1217L32.1217 57.15H34.1644V55.1073Z" fill="black"/>
<path d="M38.2499 55.1073H36.2071V57.15H38.2499V55.1073Z" fill="black"/>
<path d="M42.3353 55.1073H40.2926V57.15H42.3353V55.1073Z" fill="black"/>
<path d="M50.5062 55.1073H48.4635V57.15H50.5062L50.5062 55.1073Z" fill="black"/>
<path d="M54.5917 55.1073H52.549V57.15H54.5917V55.1073Z" fill="black"/>
<path d="M62.7626 55.1073H60.7199V57.15H62.7626V55.1073Z" fill="black"/>
<path d="M66.8481 55.1073H64.8054V57.15H66.8481V55.1073Z" fill="black"/>
<path d="M21.908 57.15H19.8653V59.1927H21.908V57.15Z" fill="black"/>
<path d="M25.9935 57.15H23.9508V59.1927H25.9935V57.15Z" fill="black"/>
<path d="M28.0362 57.15H25.9935V59.1927H28.0362V57.15Z" fill="black"/>
<path d="M30.0789 57.15H28.0362V59.1927H30.0789V57.15Z" fill="black"/>
<path d="M34.1644 57.15H32.1217V59.1927H34.1644V57.15Z" fill="black"/>
<path d="M38.2499 57.15H36.2071V59.1927H38.2499V57.15Z" fill="black"/>
<path d="M40.2926 57.15H38.2499V59.1927H40.2926V57.15Z" fill="black"/>
<path d="M42.3353 57.15H40.2926V59.1927H42.3353V57.15Z" fill="black"/>
<path d="M48.4635 57.15H46.4208V59.1927H48.4635V57.15Z" fill="black"/>
<path d="M50.5062 57.15H48.4635V59.1927H50.5062V57.15Z" fill="black"/>
<path d="M54.5917 57.15H52.549V59.1927H54.5917V57.15Z" fill="black"/>
<path d="M56.6344 57.15H54.5917V59.1927H56.6344V57.15Z" fill="black"/>
<path d="M58.6772 57.15H56.6344V59.1927H58.6772V57.15Z" fill="black"/>
<path d="M60.7199 57.15H58.6772V59.1927H60.7199V57.15Z" fill="black"/>
<path d="M62.7626 57.15H60.7199V59.1927H62.7626V57.15Z" fill="black"/>
<path d="M70.9335 57.15H68.8908V59.1927H70.9335V57.15Z" fill="black"/>
<path d="M21.908 59.1927H19.8653V61.2355H21.908V59.1927Z" fill="black"/>
<path d="M25.9935 59.1927H23.9508V61.2355H25.9935V59.1927Z" fill="black"/>
<path d="M28.0362 59.1927H25.9935V61.2355H28.0362V59.1927Z" fill="black"/>
<path d="M30.0789 59.1927H28.0362V61.2355H30.0789V59.1927Z" fill="black"/>
<path d="M34.1644 59.1927H32.1217V61.2355H34.1644V59.1927Z" fill="black"/>
<path d="M38.2499 59.1927H36.2071V61.2355H38.2499V59.1927Z" fill="black"/>
<path d="M46.4208 59.1927H44.3781V61.2355H46.4208V59.1927Z" fill="black"/>
<path d="M54.5917 59.1927H52.549V61.2355H54.5917V59.1927Z" fill="black"/>
<path d="M56.6344 59.1927H54.5917V61.2355H56.6344V59.1927Z" fill="black"/>
<path d="M64.8054 59.1927H62.7626V61.2355H64.8054V59.1927Z" fill="black"/>
<path d="M21.908 61.2355H19.8653V63.2782H21.908V61.2355Z" fill="black"/>
<path d="M25.9935 61.2355H23.9508V63.2782H25.9935V61.2355Z" fill="black"/>
<path d="M28.0362 61.2355H25.9935V63.2782H28.0362V61.2355Z" fill="black"/>
<path d="M30.0789 61.2355H28.0362V63.2782H30.0789V61.2355Z" fill="black"/>
<path d="M34.1644 61.2355H32.1217V63.2782H34.1644V61.2355Z" fill="black"/>
<path d="M44.3781 61.2355H42.3353V63.2782H44.3781V61.2355Z" fill="black"/>
<path d="M46.4208 61.2355H44.3781V63.2782H46.4208V61.2355Z" fill="black"/>
<path d="M50.5062 61.2355H48.4635V63.2782H50.5062V61.2355Z" fill="black"/>
<path d="M52.549 61.2355H50.5062V63.2782H52.549V61.2355Z" fill="black"/>
<path d="M54.5917 61.2355H52.549V63.2782H54.5917V61.2355Z" fill="black"/>
<path d="M60.7199 61.2355H58.6772V63.2782H60.7199V61.2355Z" fill="black"/>
<path d="M62.7626 61.2355H60.7199V63.2782H62.7626V61.2355Z" fill="black"/>
<path d="M66.8481 61.2355H64.8054V63.2782H66.8481V61.2355Z" fill="black"/>
<path d="M68.8908 61.2355H66.8481V63.2782H68.8908V61.2355Z" fill="black"/>
<path d="M70.9335 61.2355H68.8908V63.2782H70.9335V61.2355Z" fill="black"/>
<path d="M21.908 63.2782H19.8653V65.3209H21.908V63.2782Z" fill="black"/>
<path d="M34.1644 63.2782H32.1217V65.3209H34.1644V63.2782Z" fill="black"/>
<path d="M40.2926 63.2782H38.2499V65.3209H40.2926V63.2782Z" fill="black"/>
<path d="M42.3353 63.2782H40.2926V65.3209H42.3353V63.2782Z" fill="black"/>
<path d="M44.3781 63.2782H42.3353V65.3209H44.3781V63.2782Z" fill="black"/>
<path d="M48.4635 63.2782H46.4208V65.3209H48.4635V63.2782Z" fill="black"/>
<path d="M50.5062 63.2782H48.4635V65.3209H50.5062V63.2782Z" fill="black"/>
<path d="M56.6344 63.2782H54.5917V65.3209H56.6344V63.2782Z" fill="black"/>
<path d="M58.6772 63.2782H56.6344V65.3209H58.6772V63.2782Z" fill="black"/>
<path d="M60.7199 63.2782H58.6772V65.3209H60.7199V63.2782Z" fill="black"/>
<path d="M62.7626 63.2782H60.7199V65.3209H62.7626V63.2782Z" fill="black"/>
<path d="M66.8481 63.2782H64.8054V65.3209H66.8481V63.2782Z" fill="black"/>
<path d="M68.8908 63.2782H66.8481V65.3209H68.8908V63.2782Z" fill="black"/>
<path d="M70.9335 63.2782H68.8908V65.3209H70.9335V63.2782Z" fill="black"/>
<path d="M21.908 65.3209H19.8653V67.3637H21.908V65.3209Z" fill="black"/>
<path d="M23.9508 65.3209H21.908V67.3637H23.9508V65.3209Z" fill="black"/>
<path d="M25.9935 65.3209H23.9508V67.3637H25.9935V65.3209Z" fill="black"/>
<path d="M28.0362 65.3209H25.9935V67.3637H28.0362V65.3209Z" fill="black"/>
<path d="M30.0789 65.3209H28.0362V67.3637H30.0789V65.3209Z" fill="black"/>
<path d="M32.1217 65.3209H30.0789V67.3637H32.1217L32.1217 65.3209Z" fill="black"/>
<path d="M34.1644 65.3209H32.1217L32.1217 67.3637H34.1644V65.3209Z" fill="black"/>
<path d="M38.2499 65.3209H36.2071V67.3637H38.2499V65.3209Z" fill="black"/>
<path d="M44.3781 65.3209H42.3353V67.3637H44.3781V65.3209Z" fill="black"/>
<path d="M46.4208 65.3209H44.3781V67.3637H46.4208V65.3209Z" fill="black"/>
<path d="M54.5917 65.3209H52.549V67.3637H54.5917V65.3209Z" fill="black"/>
<path d="M64.8054 65.3209H62.7626V67.3637H64.8054V65.3209Z" fill="black"/>
<path d="M70.9335 65.3209H68.8908V67.3637H70.9335V65.3209Z" fill="black"/>
<mask id="mask0_21_165" style="mask-type:alpha" maskUnits="userSpaceOnUse" x="19" y="16" width="52" height="52">
<path d="M21.908 16.2954H19.8653V18.3381H21.908V16.2954Z" fill="black"/>
<path d="M23.9508 16.2954H21.908V18.3381H23.9508V16.2954Z" fill="black"/>
<path d="M25.9935 16.2954H23.9508V18.3381H25.9935V16.2954Z" fill="black"/>
<path d="M28.0362 16.2954H25.9935V18.3381H28.0362V16.2954Z" fill="black"/>
<path d="M30.0789 16.2954H28.0362V18.3381H30.0789V16.2954Z" fill="black"/>
<path d="M32.1217 16.2954H30.0789V18.3381H32.1217V16.2954Z" fill="black"/>
<path d="M34.1644 16.2954H32.1217V18.3381H34.1644V16.2954Z" fill="black"/>
<path d="M38.2499 16.2954H36.2071V18.3381H38.2499V16.2954Z" fill="black"/>
<path d="M40.2926 16.2954H38.2499V18.3381H40.2926V16.2954Z" fill="black"/>
<path d="M48.4635 16.2954H46.4208V18.3381H48.4635V16.2954Z" fill="black"/>
<path d="M54.5917 16.2954H52.549V18.3381H54.5917V16.2954Z" fill="black"/>
<path d="M58.6772 16.2954H56.6344V18.3381H58.6772V16.2954Z" fill="black"/>
<path d="M60.7199 16.2954H58.6772V18.3381H60.7199V16.2954Z" fill="black"/>
<path d="M62.7626 16.2954H60.7199V18.3381H62.7626V16.2954Z" fill="black"/>
<path d="M64.8054 16.2954H62.7626V18.3381H64.8054V16.2954Z" fill="black"/>
<path d="M66.8481 16.2954H64.8054V18.3381H66.8481V16.2954Z" fill="black"/>
<path d="M68.8908 16.2954H66.8481V18.3381H68.8908V16.2954Z" fill="black"/>
<path d="M70.9335 16.2954H68.8908V18.3381H70.9335V16.2954Z" fill="black"/>
<path d="M21.908 18.3381H19.8653V20.3809H21.908V18.3381Z" fill="black"/>
<path d="M34.1644 18.3381H32.1217L32.1217 20.3809H34.1644V18.3381Z" fill="black"/>
<path d="M46.4208 18.3381H44.3781V20.3809H46.4208V18.3381Z" fill="black"/>
<path d="M48.4635 18.3381H46.4208V20.3809H48.4635V18.3381Z" fill="black"/>
<path d="M54.5917 18.3381H52.549V20.3809H54.5917V18.3381Z" fill="black"/>
<path d="M58.6772 18.3381H56.6344V20.3809H58.6772V18.3381Z" fill="black"/>
<path d="M70.9335 18.3381H68.8908V20.3809H70.9335V18.3381Z" fill="black"/>
<path d="M21.908 20.3809H19.8653V22.4236H21.908V20.3809Z" fill="black"/>
<path d="M25.9935 20.3809H23.9508V22.4236H25.9935V20.3809Z" fill="black"/>
<path d="M28.0362 20.3809H25.9935V22.4236H28.0362V20.3809Z" fill="black"/>
<path d="M30.0789 20.3809H28.0362V22.4236H30.0789V20.3809Z" fill="black"/>
<path d="M34.1644 20.3809H32.1217V22.4236H34.1644V20.3809Z" fill="black"/>
<path d="M40.2926 20.3809H38.2499V22.4236H40.2926V20.3809Z" fill="black"/>
<path d="M42.3353 20.3809H40.2926V22.4236H42.3353V20.3809Z" fill="black"/>
<path d="M44.3781 20.3809H42.3353V22.4236H44.3781V20.3809Z" fill="black"/>
<path d="M46.4208 20.3809H44.3781V22.4236H46.4208V20.3809Z" fill="black"/>
<path d="M48.4635 20.3809H46.4208V22.4236H48.4635V20.3809Z" fill="black"/>
<path d="M54.5917 20.3809H52.549V22.4236H54.5917V20.3809Z" fill="black"/>
<path d="M58.6772 20.3809H56.6344V22.4236H58.6772V20.3809Z" fill="black"/>
<path d="M62.7626 20.3809H60.7199V22.4236H62.7626V20.3809Z" fill="black"/>
<path d="M64.8054 20.3809H62.7626V22.4236H64.8054V20.3809Z" fill="black"/>
<path d="M66.8481 20.3809H64.8054V22.4236H66.8481V20.3809Z" fill="black"/>
<path d="M70.9335 20.3809H68.8908V22.4236H70.9335V20.3809Z" fill="black"/>
<path d="M21.908 22.4236H19.8653V24.4663H21.908V22.4236Z" fill="black"/>
<path d="M25.9935 22.4236H23.9508V24.4663H25.9935V22.4236Z" fill="black"/>
<path d="M28.0362 22.4236H25.9935V24.4663H28.0362V22.4236Z" fill="black"/>
<path d="M30.0789 22.4236H28.0362V24.4663H30.0789V22.4236Z" fill="black"/>
<path d="M34.1644 22.4236H32.1217V24.4663H34.1644V22.4236Z" fill="black"/>
<path d="M40.2926 22.4236H38.2499V24.4663H40.2926V22.4236Z" fill="black"/>
<path d="M42.3353 22.4236H40.2926V24.4663H42.3353V22.4236Z" fill="black"/>
<path d="M48.4635 22.4236H46.4208V24.4663H48.4635V22.4236Z" fill="black"/>
<path d="M58.6772 22.4236H56.6344V24.4663H58.6772V22.4236Z" fill="black"/>
<path d="M62.7626 22.4236H60.7199V24.4663H62.7626V22.4236Z" fill="black"/>
<path d="M64.8054 22.4236H62.7626V24.4663H64.8054V22.4236Z" fill="black"/>
<path d="M66.8481 22.4236H64.8054V24.4663H66.8481V22.4236Z" fill="black"/>
<path d="M70.9335 22.4236H68.8908V24.4663H70.9335V22.4236Z" fill="black"/>
<path d="M21.908 24.4663H19.8653V26.5091H21.908V24.4663Z" fill="black"/>
<path d="M25.9935 24.4663H23.9508V26.5091H25.9935V24.4663Z" fill="black"/>
<path d="M28.0362 24.4663H25.9935V26.5091H28.0362V24.4663Z" fill="black"/>
<path d="M30.0789 24.4663H28.0362V26.5091H30.0789V24.4663Z" fill="black"/>
<path d="M34.1644 24.4663H32.1217V26.5091H34.1644V24.4663Z" fill="black"/>
<path d="M38.2499 24.4663H36.2071V26.5091H38.2499V24.4663Z" fill="black"/>
<path d="M42.3353 24.4663H40.2926V26.5091H42.3353V24.4663Z" fill="black"/>
<path d="M44.3781 24.4663H42.3353V26.5091H44.3781V24.4663Z" fill="black"/>
<path d="M46.4208 24.4663H44.3781V26.5091H46.4208V24.4663Z" fill="black"/>
<path d="M50.5062 24.4663H48.4635V26.5091H50.5062V24.4663Z" fill="black"/>
<path d="M58.6772 24.4663H56.6344V26.5091H58.6772V24.4663Z" fill="black"/>
<path d="M62.7626 24.4663H60.7199V26.5091H62.7626V24.4663Z" fill="black"/>
<path d="M64.8054 24.4663H62.7626V26.5091H64.8054V24.4663Z" fill="black"/>
<path d="M66.8481 24.4663H64.8054V26.5091H66.8481V24.4663Z" fill="black"/>
<path d="M70.9335 24.4663H68.8908V26.5091H70.9335V24.4663Z" fill="black"/>
<path d="M21.908 26.5091H19.8653V28.5518H21.908V26.5091Z" fill="black"/>
<path d="M34.1644 26.5091H32.1217V28.5518H34.1644V26.5091Z" fill="black"/>
<path d="M50.5062 26.5091H48.4635V28.5518H50.5062V26.5091Z" fill="black"/>
<path d="M58.6772 26.5091H56.6344V28.5518H58.6772V26.5091Z" fill="black"/>
<path d="M70.9335 26.5091H68.8908V28.5518H70.9335V26.5091Z" fill="black"/>
<path d="M21.908 28.5518H19.8653V30.5945H21.908V28.5518Z" fill="black"/>
<path d="M23.9508 28.5518L21.908 28.5518V30.5945H23.9508V28.5518Z" fill="black"/>
<path d="M25.9935 28.5518H23.9508V30.5945H25.9935V28.5518Z" fill="black"/>
<path d="M28.0362 28.5518H25.9935V30.5945H28.0362V28.5518Z" fill="black"/>
<path d="M30.0789 28.5518H28.0362V30.5945H30.0789V28.5518Z" fill="black"/>
<path d="M32.1217 28.5518L30.0789 28.5518V30.5945H32.1217L32.1217 28.5518Z" fill="black"/>
<path d="M34.1644 28.5518H32.1217L32.1217 30.5945H34.1644V28.5518Z" fill="black"/>
<path d="M38.2499 28.5518H36.2071V30.5945H38.2499V28.5518Z" fill="black"/>
<path d="M42.3353 28.5518H40.2926V30.5945H42.3353V28.5518Z" fill="black"/>
<path d="M46.4208 28.5518H44.3781V30.5945H46.4208V28.5518Z" fill="black"/>
<path d="M50.5062 28.5518H48.4635V30.5945H50.5062V28.5518Z" fill="black"/>
<path d="M54.5917 28.5518H52.549V30.5945H54.5917V28.5518Z" fill="black"/>
<path d="M58.6772 28.5518H56.6344V30.5945H58.6772V28.5518Z" fill="black"/>
<path d="M60.7199 28.5518L58.6772 28.5518V30.5945H60.7199V28.5518Z" fill="black"/>
<path d="M62.7626 28.5518H60.7199V30.5945H62.7626V28.5518Z" fill="black"/>
<path d="M64.8054 28.5518H62.7626V30.5945H64.8054V28.5518Z" fill="black"/>
<path d="M66.8481 28.5518H64.8054V30.5945H66.8481V28.5518Z" fill="black"/>
<path d="M68.8908 28.5518L66.8481 28.5518V30.5945H68.8908V28.5518Z" fill="black"/>
<path d="M70.9335 28.5518H68.8908V30.5945H70.9335V28.5518Z" fill="black"/>
<path d="M38.2499 30.5945H36.2071V32.6373H38.2499V30.5945Z" fill="black"/>
<path d="M42.3353 30.5945H40.2926V32.6373H42.3353V30.5945Z" fill="black"/>
<path d="M46.4208 30.5945H44.3781V32.6373H46.4208V30.5945Z" fill="black"/>
<path d="M48.4635 30.5945H46.4208V32.6373H48.4635V30.5945Z" fill="black"/>
<path d="M52.549 30.5945H50.5062L50.5062 32.6373H52.549V30.5945Z" fill="black"/>
<path d="M54.5917 30.5945H52.549V32.6373H54.5917V30.5945Z" fill="black"/>
<path d="M21.908 32.6373H19.8653V34.68H21.908V32.6373Z" fill="black"/>
<path d="M28.0362 32.6373H25.9935V34.68H28.0362V32.6373Z" fill="black"/>
<path d="M30.0789 32.6373H28.0362V34.68H30.0789V32.6373Z" fill="black"/>
<path d="M32.1217 32.6373H30.0789V34.68H32.1217V32.6373Z" fill="black"/>
<path d="M34.1644 32.6373H32.1217V34.68H34.1644V32.6373Z" fill="black"/>
<path d="M36.2071 32.6373H34.1644V34.68H36.2071V32.6373Z" fill="black"/>
<path d="M38.2499 32.6373H36.2071V34.68H38.2499V32.6373Z" fill="black"/>
<path d="M40.2926 32.6373H38.2499V34.68H40.2926V32.6373Z" fill="black"/>
<path d="M48.4635 32.6373H46.4208V34.68H48.4635V32.6373Z" fill="black"/>
<path d="M54.5917 32.6373H52.549V34.68H54.5917V32.6373Z" fill="black"/>
<path d="M56.6344 32.6373H54.5917V34.68H56.6344V32.6373Z" fill="black"/>
<path d="M58.6772 32.6373H56.6344V34.68H58.6772V32.6373Z" fill="black"/>
<path d="M62.7626 32.6373H60.7199V34.68H62.7626V32.6373Z" fill="black"/>
<path d="M70.9335 32.6373H68.8908V34.68H70.9335V32.6373Z" fill="black"/>
<path d="M23.9508 34.68H21.908V36.7227H23.9508V34.68Z" fill="black"/>
<path d="M28.0362 34.68H25.9935V36.7227H28.0362V34.68Z" fill="black"/>
<path d="M30.0789 34.68H28.0362V36.7227H30.0789V34.68Z" fill="black"/>
<path d="M36.2071 34.68H34.1644V36.7227H36.2071V34.68Z" fill="black"/>
<path d="M38.2499 34.68H36.2071V36.7227H38.2499V34.68Z" fill="black"/>
<path d="M46.4208 34.68H44.3781V36.7227H46.4208V34.68Z" fill="black"/>
<path d="M52.549 34.68H50.5062V36.7227H52.549V34.68Z" fill="black"/>
<path d="M56.6344 34.68H54.5917V36.7227H56.6344V34.68Z" fill="black"/>
<path d="M58.6772 34.68H56.6344V36.7227H58.6772V34.68Z" fill="black"/>
<path d="M62.7626 34.68H60.7199V36.7227H62.7626V34.68Z" fill="black"/>
<path d="M64.8054 34.68H62.7626V36.7227H64.8054V34.68Z" fill="black"/>
<path d="M66.8481 34.68H64.8054V36.7227H66.8481V34.68Z" fill="black"/>
<path d="M68.8908 34.68H66.8481V36.7227H68.8908V34.68Z" fill="black"/>
<path d="M70.9335 34.68H68.8908V36.7227H70.9335V34.68Z" fill="black"/>
<path d="M21.908 36.7227H19.8653V38.7654H21.908V36.7227Z" fill="black"/>
<path d="M23.9508 36.7227H21.908V38.7654H23.9508V36.7227Z" fill="black"/>
<path d="M28.0362 36.7227H25.9935V38.7654H28.0362V36.7227Z" fill="black"/>
<path d="M30.0789 36.7227H28.0362V38.7654H30.0789V36.7227Z" fill="black"/>
<path d="M32.1217 36.7227H30.0789V38.7654H32.1217V36.7227Z" fill="black"/>
<path d="M34.1644 36.7227H32.1217V38.7654H34.1644V36.7227Z" fill="black"/>
<path d="M36.2071 36.7227H34.1644V38.7654H36.2071V36.7227Z" fill="black"/>
<path d="M40.2926 36.7227H38.2499V38.7654H40.2926V36.7227Z" fill="black"/>
<path d="M44.3781 36.7227H42.3353V38.7654H44.3781V36.7227Z" fill="black"/>
<path d="M46.4208 36.7227H44.3781V38.7654H46.4208V36.7227Z" fill="black"/>
<path d="M50.5062 36.7227H48.4635V38.7654H50.5062L50.5062 36.7227Z" fill="black"/>
<path d="M54.5917 36.7227H52.549V38.7654H54.5917V36.7227Z" fill="black"/>
<path d="M56.6344 36.7227H54.5917V38.7654H56.6344V36.7227Z" fill="black"/>
<path d="M58.6772 36.7227H56.6344V38.7654H58.6772V36.7227Z" fill="black"/>
<path d="M60.7199 36.7227H58.6772V38.7654H60.7199V36.7227Z" fill="black"/>
<path d="M62.7626 36.7227H60.7199V38.7654H62.7626V36.7227Z" fill="black"/>
<path d="M64.8054 36.7227H62.7626V38.7654H64.8054V36.7227Z" fill="black"/>
<path d="M66.8481 36.7227H64.8054V38.7654H66.8481V36.7227Z" fill="black"/>
<path d="M68.8908 36.7227H66.8481V38.7654H68.8908V36.7227Z" fill="black"/>
<path d="M21.908 38.7654H19.8653V40.8082H21.908V38.7654Z" fill="black"/>
<path d="M30.0789 38.7654H28.0362V40.8082H30.0789V38.7654Z" fill="black"/>
<path d="M32.1217 38.7654H30.0789V40.8082H32.1217V38.7654Z" fill="black"/>
<path d="M36.2071 38.7654H34.1644V40.8082H36.2071V38.7654Z" fill="black"/>
<path d="M40.2926 38.7654H38.2499V40.8082H40.2926V38.7654Z" fill="black"/>
<path d="M42.3353 38.7654H40.2926V40.8082H42.3353V38.7654Z" fill="black"/>
<path d="M50.5062 38.7654H48.4635V40.8082H50.5062V38.7654Z" fill="black"/>
<path d="M52.549 38.7654H50.5062V40.8082H52.549V38.7654Z" fill="black"/>
<path d="M62.7626 38.7654H60.7199V40.8082H62.7626V38.7654Z" fill="black"/>
<path d="M66.8481 38.7654H64.8054V40.8082H66.8481V38.7654Z" fill="black"/>
<path d="M68.8908 38.7654H66.8481V40.8082H68.8908V38.7654Z" fill="black"/>
<path d="M21.908 40.8082H19.8653V42.8509H21.908V40.8082Z" fill="black"/>
<path d="M28.0362 40.8082H25.9935V42.8509H28.0362V40.8082Z" fill="black"/>
<path d="M30.0789 40.8082H28.0362V42.8509H30.0789V40.8082Z" fill="black"/>
<path d="M32.1217 40.8082H30.0789V42.8509H32.1217V40.8082Z" fill="black"/>
<path d="M34.1644 40.8082H32.1217V42.8509H34.1644V40.8082Z" fill="black"/>
<path d="M36.2071 40.8082H34.1644V42.8509H36.2071V40.8082Z" fill="black"/>
<path d="M38.2499 40.8082H36.2071V42.8509H38.2499V40.8082Z" fill="black"/>
<path d="M42.3353 40.8082H40.2926V42.8509H42.3353V40.8082Z" fill="black"/>
<path d="M44.3781 40.8082H42.3353V42.8509H44.3781V40.8082Z" fill="black"/>
<path d="M48.4635 40.8082H46.4208V42.8509H48.4635V40.8082Z" fill="black"/>
<path d="M50.5062 40.8082H48.4635V42.8509H50.5062V40.8082Z" fill="black"/>
<path d="M54.5917 40.8082H52.549V42.8509H54.5917V40.8082Z" fill="black"/>
<path d="M60.7199 40.8082H58.6772V42.8509H60.7199V40.8082Z" fill="black"/>
<path d="M64.8054 40.8082H62.7626V42.8509H64.8054V40.8082Z" fill="black"/>
<path d="M66.8481 40.8082H64.8054V42.8509H66.8481V40.8082Z" fill="black"/>
<path d="M70.9335 40.8082H68.8908V42.8509H70.9335V40.8082Z" fill="black"/>
<path d="M21.908 42.8509H19.8653V44.8936H21.908V42.8509Z" fill="black"/>
<path d="M23.9508 42.8509H21.908V44.8936H23.9508V42.8509Z" fill="black"/>
<path d="M36.2071 42.8509H34.1644V44.8936H36.2071V42.8509Z" fill="black"/>
<path d="M38.2499 42.8509H36.2071V44.8936H38.2499V42.8509Z" fill="black"/>
<path d="M40.2926 42.8509H38.2499V44.8936H40.2926V42.8509Z" fill="black"/>
<path d="M46.4208 42.8509H44.3781V44.8936H46.4208V42.8509Z" fill="black"/>
<path d="M50.5062 42.8509H48.4635V44.8936H50.5062V42.8509Z" fill="black"/>
<path d="M52.549 42.8509H50.5062V44.8936H52.549V42.8509Z" fill="black"/>
<path d="M54.5917 42.8509H52.549V44.8936H54.5917V42.8509Z" fill="black"/>
<path d="M56.6344 42.8509H54.5917V44.8936H56.6344V42.8509Z" fill="black"/>
<path d="M62.7626 42.8509H60.7199V44.8936H62.7626V42.8509Z" fill="black"/>
<path d="M66.8481 42.8509H64.8054V44.8936H66.8481V42.8509Z" fill="black"/>
<path d="M68.8908 42.8509H66.8481V44.8936H68.8908V42.8509Z" fill="black"/>
<path d="M70.9335 42.8509H68.8908V44.8936H70.9335V42.8509Z" fill="black"/>
<path d="M21.908 44.8936H19.8653V46.9364H21.908V44.8936Z" fill="black"/>
<path d="M23.9508 44.8936H21.908V46.9364H23.9508V44.8936Z" fill="black"/>
<path d="M25.9935 44.8936H23.9508V46.9364H25.9935V44.8936Z" fill="black"/>
<path d="M34.1644 44.8936H32.1217V46.9364H34.1644V44.8936Z" fill="black"/>
<path d="M40.2926 44.8936H38.2499V46.9364H40.2926V44.8936Z" fill="black"/>
<path d="M44.3781 44.8936H42.3353V46.9364H44.3781V44.8936Z" fill="black"/>
<path d="M46.4208 44.8936H44.3781V46.9364H46.4208V44.8936Z" fill="black"/>
<path d="M50.5062 44.8936H48.4635V46.9364H50.5062V44.8936Z" fill="black"/>
<path d="M56.6344 44.8936H54.5917V46.9364H56.6344V44.8936Z" fill="black"/>
<path d="M60.7199 44.8936H58.6772V46.9364H60.7199V44.8936Z" fill="black"/>
<path d="M62.7626 44.8936H60.7199V46.9364H62.7626V44.8936Z" fill="black"/>
<path d="M66.8481 44.8936H64.8054V46.9364H66.8481V44.8936Z" fill="black"/>
<path d="M23.9508 46.9364H21.908V48.9791H23.9508V46.9364Z" fill="black"/>
<path d="M36.2071 46.9364L34.1644 46.9364V48.9791H36.2071V46.9364Z" fill="black"/>
<path d="M46.4208 46.9364H44.3781V48.9791H46.4208V46.9364Z" fill="black"/>
<path d="M50.5062 46.9364H48.4635V48.9791H50.5062V46.9364Z" fill="black"/>
<path d="M52.549 46.9364L50.5062 46.9364V48.9791H52.549V46.9364Z" fill="black"/>
<path d="M58.6772 46.9364H56.6344V48.9791H58.6772V46.9364Z" fill="black"/>
<path d="M62.7626 46.9364H60.7199V48.9791H62.7626V46.9364Z" fill="black"/>
<path d="M68.8908 46.9364L66.8481 46.9364V48.9791H68.8908V46.9364Z" fill="black"/>
<path d="M21.908 48.9791H19.8653V51.0218H21.908V48.9791Z" fill="black"/>
<path d="M32.1217 48.9791H30.0789V51.0218H32.1217V48.9791Z" fill="black"/>
<path d="M34.1644 48.9791H32.1217V51.0218H34.1644V48.9791Z" fill="black"/>
<path d="M36.2071 48.9791H34.1644V51.0218H36.2071V48.9791Z" fill="black"/>
<path d="M40.2926 48.9791H38.2499V51.0218H40.2926V48.9791Z" fill="black"/>
<path d="M42.3353 48.9791H40.2926V51.0218H42.3353V48.9791Z" fill="black"/>
<path d="M46.4208 48.9791H44.3781V51.0218H46.4208V48.9791Z" fill="black"/>
<path d="M52.549 48.9791H50.5062L50.5062 51.0218H52.549V48.9791Z" fill="black"/>
<path d="M54.5917 48.9791H52.549V51.0218H54.5917V48.9791Z" fill="black"/>
<path d="M56.6344 48.9791H54.5917V51.0218H56.6344V48.9791Z" fill="black"/>
<path d="M58.6772 48.9791H56.6344V51.0218H58.6772V48.9791Z" fill="black"/>
<path d="M60.7199 48.9791H58.6772V51.0218H60.7199V48.9791Z" fill="black"/>
<path d="M62.7626 48.9791H60.7199V51.0218H62.7626V48.9791Z" fill="black"/>
<path d="M64.8054 48.9791H62.7626V51.0218H64.8054V48.9791Z" fill="black"/>
<path d="M68.8908 48.9791H66.8481V51.0218H68.8908V48.9791Z" fill="black"/>
<path d="M38.2499 51.0218H36.2071V53.0646H38.2499V51.0218Z" fill="black"/>
<path d="M42.3353 51.0218H40.2926V53.0646H42.3353V51.0218Z" fill="black"/>
<path d="M46.4208 51.0218H44.3781V53.0646H46.4208V51.0218Z" fill="black"/>
<path d="M52.549 51.0218H50.5062V53.0646H52.549V51.0218Z" fill="black"/>
<path d="M54.5917 51.0218H52.549V53.0646H54.5917V51.0218Z" fill="black"/>
<path d="M62.7626 51.0218H60.7199V53.0646H62.7626V51.0218Z" fill="black"/>
<path d="M64.8054 51.0218H62.7626V53.0646H64.8054V51.0218Z" fill="black"/>
<path d="M66.8481 51.0218H64.8054V53.0646H66.8481V51.0218Z" fill="black"/>
<path d="M21.908 53.0646H19.8653V55.1073H21.908V53.0646Z" fill="black"/>
<path d="M23.9508 53.0646H21.908V55.1073H23.9508V53.0646Z" fill="black"/>
<path d="M25.9935 53.0646H23.9508V55.1073H25.9935V53.0646Z" fill="black"/>
<path d="M28.0362 53.0646H25.9935V55.1073H28.0362V53.0646Z" fill="black"/>
<path d="M30.0789 53.0646H28.0362V55.1073H30.0789V53.0646Z" fill="black"/>
<path d="M32.1217 53.0646H30.0789V55.1073H32.1217V53.0646Z" fill="black"/>
<path d="M34.1644 53.0646H32.1217V55.1073H34.1644V53.0646Z" fill="black"/>
<path d="M38.2499 53.0646H36.2071V55.1073H38.2499V53.0646Z" fill="black"/>
<path d="M46.4208 53.0646H44.3781V55.1073H46.4208V53.0646Z" fill="black"/>
<path d="M52.549 53.0646H50.5062V55.1073H52.549V53.0646Z" fill="black"/>
<path d="M54.5917 53.0646H52.549V55.1073H54.5917V53.0646Z" fill="black"/>
<path d="M58.6772 53.0646H56.6344V55.1073H58.6772V53.0646Z" fill="black"/>
<path d="M62.7626 53.0646H60.7199V55.1073H62.7626V53.0646Z" fill="black"/>
<path d="M64.8054 53.0646H62.7626V55.1073H64.8054V53.0646Z" fill="black"/>
<path d="M66.8481 53.0646H64.8054V55.1073H66.8481V53.0646Z" fill="black"/>
<path d="M70.9335 53.0646H68.8908V55.1073H70.9335V53.0646Z" fill="black"/>
<path d="M21.908 55.1073H19.8653V57.15H21.908V55.1073Z" fill="black"/>
<path d="M34.1644 55.1073H32.1217L32.1217 57.15H34.1644V55.1073Z" fill="black"/>
<path d="M38.2499 55.1073H36.2071V57.15H38.2499V55.1073Z" fill="black"/>
<path d="M42.3353 55.1073H40.2926V57.15H42.3353V55.1073Z" fill="black"/>
<path d="M50.5062 55.1073H48.4635V57.15H50.5062L50.5062 55.1073Z" fill="black"/>
<path d="M54.5917 55.1073H52.549V57.15H54.5917V55.1073Z" fill="black"/>
<path d="M62.7626 55.1073H60.7199V57.15H62.7626V55.1073Z" fill="black"/>
<path d="M66.8481 55.1073H64.8054V57.15H66.8481V55.1073Z" fill="black"/>
<path d="M21.908 57.15H19.8653V59.1927H21.908V57.15Z" fill="black"/>
<path d="M25.9935 57.15H23.9508V59.1927H25.9935V57.15Z" fill="black"/>
<path d="M28.0362 57.15H25.9935V59.1927H28.0362V57.15Z" fill="black"/>
<path d="M30.0789 57.15H28.0362V59.1927H30.0789V57.15Z" fill="black"/>
<path d="M34.1644 57.15H32.1217V59.1927H34.1644V57.15Z" fill="black"/>
<path d="M38.2499 57.15H36.2071V59.1927H38.2499V57.15Z" fill="black"/>
<path d="M40.2926 57.15H38.2499V59.1927H40.2926V57.15Z" fill="black"/>
<path d="M42.3353 57.15H40.2926V59.1927H42.3353V57.15Z" fill="black"/>
<path d="M48.4635 57.15H46.4208V59.1927H48.4635V57.15Z" fill="black"/>
<path d="M50.5062 57.15H48.4635V59.1927H50.5062V57.15Z" fill="black"/>
<path d="M54.5917 57.15H52.549V59.1927H54.5917V57.15Z" fill="black"/>
<path d="M56.6344 57.15H54.5917V59.1927H56.6344V57.15Z" fill="black"/>
<path d="M58.6772 57.15H56.6344V59.1927H58.6772V57.15Z" fill="black"/>
<path d="M60.7199 57.15H58.6772V59.1927H60.7199V57.15Z" fill="black"/>
<path d="M62.7626 57.15H60.7199V59.1927H62.7626V57.15Z" fill="black"/>
<path d="M70.9335 57.15H68.8908V59.1927H70.9335V57.15Z" fill="black"/>
<path d="M21.908 59.1927H19.8653V61.2355H21.908V59.1927Z" fill="black"/>
<path d="M25.9935 59.1927H23.9508V61.2355H25.9935V59.1927Z" fill="black"/>
<path d="M28.0362 59.1927H25.9935V61.2355H28.0362V59.1927Z" fill="black"/>
<path d="M30.0789 59.1927H28.0362V61.2355H30.0789V59.1927Z" fill="black"/>
<path d="M34.1644 59.1927H32.1217V61.2355H34.1644V59.1927Z" fill="black"/>
<path d="M38.2499 59.1927H36.2071V61.2355H38.2499V59.1927Z" fill="black"/>
<path d="M46.4208 59.1927H44.3781V61.2355H46.4208V59.1927Z" fill="black"/>
<path d="M54.5917 59.1927H52.549V61.2355H54.5917V59.1927Z" fill="black"/>
<path d="M56.6344 59.1927H54.5917V61.2355H56.6344V59.1927Z" fill="black"/>
<path d="M64.8054 59.1927H62.7626V61.2355H64.8054V59.1927Z" fill="black"/>
<path d="M21.908 61.2355H19.8653V63.2782H21.908V61.2355Z" fill="black"/>
<path d="M25.9935 61.2355H23.9508V63.2782H25.9935V61.2355Z" fill="black"/>
<path d="M28.0362 61.2355H25.9935V63.2782H28.0362V61.2355Z" fill="black"/>
<path d="M30.0789 61.2355H28.0362V63.2782H30.0789V61.2355Z" fill="black"/>
<path d="M34.1644 61.2355H32.1217V63.2782H34.1644V61.2355Z" fill="black"/>
<path d="M44.3781 61.2355H42.3353V63.2782H44.3781V61.2355Z" fill="black"/>
<path d="M46.4208 61.2355H44.3781V63.2782H46.4208V61.2355Z" fill="black"/>
<path d="M50.5062 61.2355H48.4635V63.2782H50.5062V61.2355Z" fill="black"/>
<path d="M52.549 61.2355H50.5062V63.2782H52.549V61.2355Z" fill="black"/>
<path d="M54.5917 61.2355H52.549V63.2782H54.5917V61.2355Z" fill="black"/>
<path d="M60.7199 61.2355H58.6772V63.2782H60.7199V61.2355Z" fill="black"/>
<path d="M62.7626 61.2355H60.7199V63.2782H62.7626V61.2355Z" fill="black"/>
<path d="M66.8481 61.2355H64.8054V63.2782H66.8481V61.2355Z" fill="black"/>
<path d="M68.8908 61.2355H66.8481V63.2782H68.8908V61.2355Z" fill="black"/>
<path d="M70.9335 61.2355H68.8908V63.2782H70.9335V61.2355Z" fill="black"/>
<path d="M21.908 63.2782H19.8653V65.3209H21.908V63.2782Z" fill="black"/>
<path d="M34.1644 63.2782H32.1217V65.3209H34.1644V63.2782Z" fill="black"/>
<path d="M40.2926 63.2782H38.2499V65.3209H40.2926V63.2782Z" fill="black"/>
<path d="M42.3353 63.2782H40.2926V65.3209H42.3353V63.2782Z" fill="black"/>
<path d="M44.3781 63.2782H42.3353V65.3209H44.3781V63.2782Z" fill="black"/>
<path d="M48.4635 63.2782H46.4208V65.3209H48.4635V63.2782Z" fill="black"/>
<path d="M50.5062 63.2782H48.4635V65.3209H50.5062V63.2782Z" fill="black"/>
<path d="M56.6344 63.2782H54.5917V65.3209H56.6344V63.2782Z" fill="black"/>
<path d="M58.6772 63.2782H56.6344V65.3209H58.6772V63.2782Z" fill="black"/>
<path d="M60.7199 63.2782H58.6772V65.3209H60.7199V63.2782Z" fill="black"/>
<path d="M62.7626 63.2782H60.7199V65.3209H62.7626V63.2782Z" fill="black"/>
<path d="M66.8481 63.2782H64.8054V65.3209H66.8481V63.2782Z" fill="black"/>
<path d="M68.8908 63.2782H66.8481V65.3209H68.8908V63.2782Z" fill="black"/>
<path d="M70.9335 63.2782H68.8908V65.3209H70.9335V63.2782Z" fill="black"/>
<path d="M21.908 65.3209H19.8653V67.3637H21.908V65.3209Z" fill="black"/>
<path d="M23.9508 65.3209H21.908V67.3637H23.9508V65.3209Z" fill="black"/>
<path d="M25.9935 65.3209H23.9508V67.3637H25.9935V65.3209Z" fill="black"/>
<path d="M28.0362 65.3209H25.9935V67.3637H28.0362V65.3209Z" fill="black"/>
<path d="M30.0789 65.3209H28.0362V67.3637H30.0789V65.3209Z" fill="black"/>
<path d="M32.1217 65.3209H30.0789V67.3637H32.1217L32.1217 65.3209Z" fill="black"/>
<path d="M34.1644 65.3209H32.1217L32.1217 67.3637H34.1644V65.3209Z" fill="black"/>
<path d="M38.2499 65.3209H36.2071V67.3637H38.2499V65.3209Z" fill="black"/>
<path d="M44.3781 65.3209H42.3353V67.3637H44.3781V65.3209Z" fill="black"/>
<path d="M46.4208 65.3209H44.3781V67.3637H46.4208V65.3209Z" fill="black"/>
<path d="M54.5917 65.3209H52.549V67.3637H54.5917V65.3209Z" fill="black"/>
<path d="M64.8054 65.3209H62.7626V67.3637H64.8054V65.3209Z" fill="black"/>
<path d="M70.9335 65.3209H68.8908V67.3637H70.9335V65.3209Z" fill="black"/>
</mask>
<g mask="url(#mask0_21_165)">
</g>
<g filter="url(#filter1_d_21_165)">
<rect x="18.4975" y="15.1555" width="53.8041" height="2.50782" rx="1.25391" fill="#E93B6E"/>
</g>
</g>
<defs>
<filter id="filter0_d_21_165" x="0.8" y="0.8" width="89.4" height="108.4" filterUnits="userSpaceOnUse" color-interpolation-filters="sRGB">
<feFlood flood-opacity="0" result="BackgroundImageFix"/>
<feColorMatrix in="SourceAlpha" type="matrix" values="0 0 0 0 0 0 0 0 0 0 0 0 0 0 0 0 0 0 127 0" result="hardAlpha"/>
<feOffset dy="4"/>
<feGaussianBlur stdDeviation="6.1"/>
<feComposite in2="hardAlpha" operator="out"/>
<feColorMatrix type="matrix" values="0 0 0 0 0.495833 0 0 0 0 0.00619792 0 0 0 0 0.035576 0 0 0 0.16 0"/>
<feBlend mode="normal" in2="BackgroundImageFix" result="effect1_dropShadow_21_165"/>
<feBlend mode="normal" in="SourceGraphic" in2="effect1_dropShadow_21_165" result="shape"/>
</filter>
<filter id="filter1_d_21_165" x="7.60864" y="4.26663" width="75.5818" height="24.2856" filterUnits="userSpaceOnUse" color-interpolation-filters="sRGB">
<feFlood flood-opacity="0" result="BackgroundImageFix"/>
<feColorMatrix in="SourceAlpha" type="matrix" values="0 0 0 0 0 0 0 0 0 0 0 0 0 0 0 0 0 0 127 0" result="hardAlpha"/>
<feOffset/>
<feGaussianBlur stdDeviation="5.44444"/>
<feColorMatrix type="matrix" values="0 0 0 0 0.913725 0 0 0 0 0.231373 0 0 0 0 0.431373 0 0 0 0.5 0"/>
<feBlend mode="normal" in2="BackgroundImageFix" result="effect1_dropShadow_21_165"/>
<feBlend mode="normal" in="SourceGraphic" in2="effect1_dropShadow_21_165" result="shape"/>
</filter>
</defs>
</svg>
