<svg width="25" height="29" viewBox="0 0 25 29" fill="none" xmlns="http://www.w3.org/2000/svg">
<path d="M8.04828 28.8727C7.11398 28.6062 6.13432 28.4407 5.25218 28.054C1.63289 26.4666 -0.293543 23.0367 0.0364105 18.9038C0.336884 15.0985 2.91415 11.8319 6.38604 10.8613C7.62308 10.5154 9.291 10.4485 10.3353 10.7173V15.865C9.68331 15.9002 9.02567 15.8763 8.38844 15.9784C6.42232 16.3038 5.1524 17.7926 5.09457 19.7666C5.03448 21.8529 6.06629 23.2612 7.98479 23.7113C9.90328 24.1615 11.917 23.2691 12.6268 21.4946C12.9375 20.7202 12.9942 19.804 12.9976 18.9502C13.0282 12.8705 13.0146 6.7907 13.0146 0.709798V0H17.8426C18.2213 4.17602 20.2498 6.80317 24.656 7.21363V12.1323C22.2 11.9588 19.9289 11.3386 17.8766 9.73761V10.4179C17.8766 13.4487 17.8766 16.4796 17.8698 19.5104C17.8698 21.1295 17.5841 22.6965 16.8629 24.1592C15.5805 26.7614 13.484 28.2751 10.6267 28.7582C10.4827 28.782 10.3421 28.833 10.2004 28.8715L8.04828 28.8727Z" fill="#C83244"/>
</svg>
